SplineFontDB: 3.2
FontName: Jura-Bold
FullName: Jura Bold
FamilyName: Jura
Weight: Bold
Copyright: Copyright 2019 The Jura Project Authors (https://github.com/ossobuffo/jura)
Version: 5.104
ItalicAngle: 0
UnderlinePosition: -125
UnderlineWidth: 50
Ascent: 1600
Descent: 400
InvalidEm: 0
sfntRevision: 0x00051aa0
LayerCount: 2
Layer: 0 1 "+BBcEMAQ0BD0EOAQ5 +BD8EOwQwBD0A" 1
Layer: 1 1 "+BB8ENQRABDUENAQ9BDgEOQAA +BD8EOwQwBD0A" 0
XUID: [1021 21 1392231673 7163]
StyleMap: 0x0020
FSType: 0
OS2Version: 4
OS2_WeightWidthSlopeOnly: 0
OS2_UseTypoMetrics: 1
CreationTime: 1562772782
ModificationTime: 1619200244
PfmFamily: 81
TTFWeight: 700
TTFWidth: 5
LineGap: 0
VLineGap: 0
Panose: 0 0 0 0 0 0 0 0 0 0
OS2TypoAscent: 1930
OS2TypoAOffset: 0
OS2TypoDescent: -436
OS2TypoDOffset: 0
OS2TypoLinegap: 0
OS2WinAscent: 2203
OS2WinAOffset: 0
OS2WinDescent: 456
OS2WinDOffset: 0
HheadAscent: 1930
HheadAOffset: 0
HheadDescent: -436
HheadDOffset: 0
OS2SubXSize: 1300
OS2SubYSize: 1200
OS2SubXOff: 0
OS2SubYOff: 150
OS2SupXSize: 1300
OS2SupYSize: 1200
OS2SupXOff: 0
OS2SupYOff: 700
OS2StrikeYSize: 50
OS2StrikeYPos: 553
OS2CapHeight: 1266
OS2XHeight: 922
OS2Vendor: 'GOOG'
OS2CodePages: 2000019f.00000000
OS2UnicodeRanges: e00002ff.4000204b.00000020.00100000
Lookup: 1 0 0 "'aalt' +BBIEQQQ1 +BDAEOwRMBEIENQRABD0EMARCBDgEMgQ9BEsENQAA +BDIEMARABDgEMAQ9BEIESwAA in Latin lookup 0" { "'aalt' +BBIEQQQ1 +BDAEOwRMBEIENQRABD0EMARCBDgEMgQ9BEsENQAA +BDIEMARABDgEMAQ9BEIESwAA in Latin lookup 0 subtable"  } ['aalt' ('DFLT' <'dflt' > 'latn' <'AZE ' 'CAT ' 'CRT ' 'KAZ ' 'MOL ' 'NLD ' 'ROM ' 'TAT ' 'TRK ' 'dflt' > ) ]
Lookup: 3 0 0 "'aalt' +BBIEQQQ1 +BDAEOwRMBEIENQRABD0EMARCBDgEMgQ9BEsENQAA +BDIEMARABDgEMAQ9BEIESwAA in Latin lookup 1" { "'aalt' +BBIEQQQ1 +BDAEOwRMBEIENQRABD0EMARCBDgEMgQ9BEsENQAA +BDIEMARABDgEMAQ9BEIESwAA in Latin lookup 1 subtable"  } ['aalt' ('DFLT' <'dflt' > 'latn' <'AZE ' 'CAT ' 'CRT ' 'KAZ ' 'MOL ' 'NLD ' 'ROM ' 'TAT ' 'TRK ' 'dflt' > ) ]

StartChar: .notdef
Encoding: 65536 -1 0
Width: 1000
Flags: W
LayerCount: 2
Fore
SplineSet
100 -400 m 1,0,-1
 900 -400 l 1,1,-1
 900 1408 l 1,2,-1
 100 1408 l 1,3,-1
 100 -400 l 1,0,-1
200 -300 m 1,4,-1
 200 1308 l 1,5,-1
 800 1308 l 1,6,-1
 800 -300 l 1,7,-1
 200 -300 l 1,4,-1
EndSplineSet
EndChar

StartChar: A
Encoding: 65 65 1
Width: 1332
GlyphClass: 2
Flags: W
AnchorPoint: "+BBEENQQ3BEsEPARPBD0EPQQ+BDUA--3" 1124 0 basechar 0
AnchorPoint: "+BBEENQQ3BEsEPARPBD0EPQQ+BDUA--2" 666 0 basechar 0
AnchorPoint: "+BBEENQQ3BEsEPARPBD0EPQQ+BDUA--0" 668 1356 basechar 0
LayerCount: 2
Fore
SplineSet
144 8 m 0,0,1
 64 39 64 39 96 118 c 2,2,-1
 572 1290 l 2,3,4
 602 1356 602 1356 666 1356 c 2,5,-1
 670 1356 l 2,6,7
 735 1353 735 1353 758 1290 c 2,8,-1
 1242 118 l 2,9,10
 1274 39 1274 39 1196 8 c 0,11,12
 1117 -23 1117 -23 1086 54 c 2,13,-1
 978 316 l 1,14,-1
 355 316 l 1,15,-1
 252 54 l 2,16,17
 221 -24 221 -24 144 8 c 0,0,1
421 484 m 1,18,-1
 909 484 l 1,19,-1
 660 1090 l 1,20,-1
 421 484 l 1,18,-1
EndSplineSet
Substitution2: "'c2sc' +BBoEMAQ/BDgEQgQ1BDsETAAA +BDgENwAA +BD8EQAQ+BD8EOARBBD0ESwRF in Latin lookup 33 subtable" a.sc
Substitution2: "Single Substitution lookup 23 subtable" ordfeminine
AlternateSubs2: "'aalt' +BBIEQQQ1 +BDAEOwRMBEIENQRABD0EMARCBDgEMgQ9BEsENQAA +BDIEMARABDgEMAQ9BEIESwAA in Latin lookup 1 subtable" a.sc ordfeminine
EndChar

StartChar: AE
Encoding: 198 198 26
Width: 1720
GlyphClass: 2
Flags: W
AnchorPoint: "+BBEENQQ3BEsEPARPBD0EPQQ+BDUA--2" 1080 0 basechar 0
AnchorPoint: "+BBEENQQ3BEsEPARPBD0EPQQ+BDUA--0" 1074 1356 basechar 0
LayerCount: 2
Fore
SplineSet
942 0 m 2,0,1
 858 0 858 0 858 84 c 2,2,-1
 858 316 l 1,3,-1
 402 316 l 1,4,-1
 248 48 l 2,5,6
 205 -29 205 -29 134 14 c 0,7,8
 62 58 62 58 102 128 c 2,9,-1
 766 1298 l 2,10,11
 784 1327 784 1327 808 1341.5 c 128,-1,12
 832 1356 832 1356 868 1356 c 2,13,-1
 1524 1356 l 2,14,15
 1608 1356 1608 1356 1608 1272 c 256,16,17
 1608 1188 1608 1188 1524 1188 c 2,18,-1
 1026 1188 l 1,19,-1
 1026 768 l 1,20,-1
 1288 768 l 2,21,22
 1372 768 1372 768 1372 684 c 256,23,24
 1372 600 1372 600 1288 600 c 2,25,-1
 1026 600 l 1,26,-1
 1026 168 l 1,27,-1
 1524 168 l 2,28,29
 1608 168 1608 168 1608 84 c 256,30,31
 1608 0 1608 0 1524 0 c 2,32,-1
 942 0 l 2,0,1
498 484 m 1,33,-1
 858 484 l 1,34,-1
 858 1149 l 1,35,-1
 864 1149 l 1,36,-1
 498 484 l 1,33,-1
EndSplineSet
EndChar

StartChar: B
Encoding: 66 66 28
Width: 1346
GlyphClass: 2
Flags: W
AnchorPoint: "+BBEENQQ3BEsEPARPBD0EPQQ+BDUA--2" 682 0 basechar 0
AnchorPoint: "+BBEENQQ3BEsEPARPBD0EPQQ+BDUA--0" 676 1356 basechar 0
LayerCount: 2
Fore
SplineSet
292 0 m 2,0,1
 208 0 208 0 208 84 c 2,2,-1
 208 1272 l 2,3,4
 208 1356 208 1356 292 1356 c 2,5,-1
 814 1356 l 2,6,7
 973 1356 973 1356 1058.5 1272 c 128,-1,8
 1144 1188 1144 1188 1144 1032 c 2,9,-1
 1144 978 l 2,10,11
 1144 843 1144 843 1059 769 c 1,12,13
 1218 680 1218 680 1218 444 c 2,14,-1
 1218 376 l 2,15,16
 1218 192 1218 192 1120.5 96 c 128,-1,17
 1023 0 1023 0 840 0 c 2,18,-1
 292 0 l 2,0,1
376 168 m 1,19,-1
 840 168 l 2,20,21
 953 168 953 168 1001.5 216.5 c 128,-1,22
 1050 265 1050 265 1050 376 c 2,23,-1
 1050 444 l 2,24,25
 1050 555 1050 555 1003 602.5 c 128,-1,26
 956 650 956 650 840 650 c 2,27,-1
 376 650 l 1,28,-1
 376 168 l 1,19,-1
376 818 m 1,29,-1
 850 818 l 2,30,31
 923 818 923 818 949.5 863 c 128,-1,32
 976 908 976 908 976 978 c 2,33,-1
 976 1032 l 2,34,35
 976 1119 976 1119 940 1153.5 c 128,-1,36
 904 1188 904 1188 814 1188 c 2,37,-1
 376 1188 l 1,38,-1
 376 818 l 1,29,-1
EndSplineSet
EndChar

StartChar: C
Encoding: 67 67 30
Width: 1392
GlyphClass: 2
Flags: W
AnchorPoint: "+BBEENQQ3BEsEPARPBD0EPQQ+BDUA--2" 728 0 basechar 0
AnchorPoint: "+BBEENQQ3BEsEPARPBD0EPQQ+BDUA--0" 744 1356 basechar 0
LayerCount: 2
Fore
SplineSet
608 0 m 2,0,1
 379 0 379 0 269.5 109.5 c 128,-1,2
 160 219 160 219 160 448 c 2,3,-1
 160 908 l 2,4,5
 160 1139 160 1139 269 1248.5 c 128,-1,6
 378 1358 378 1358 606 1356 c 2,7,-1
 848 1356 l 2,8,9
 1036 1356 1036 1356 1135 1278.5 c 128,-1,10
 1234 1201 1234 1201 1250 1034 c 0,11,12
 1256 992 1256 992 1234 970 c 128,-1,13
 1212 948 1212 948 1170 948 c 0,14,15
 1094 948 1094 948 1082 1032 c 0,16,17
 1072 1124 1072 1124 1018.5 1156 c 128,-1,18
 965 1188 965 1188 848 1188 c 2,19,-1
 606 1188 l 2,20,21
 500 1189 500 1189 439.5 1164 c 128,-1,22
 379 1139 379 1139 353.5 1077.5 c 128,-1,23
 328 1016 328 1016 328 908 c 2,24,-1
 328 448 l 2,25,26
 328 341 328 341 353.5 280 c 128,-1,27
 379 219 379 219 440 193.5 c 128,-1,28
 501 168 501 168 608 168 c 2,29,-1
 848 168 l 2,30,31
 965 168 965 168 1018.5 200.5 c 128,-1,32
 1072 233 1072 233 1082 324 c 0,33,34
 1094 408 1094 408 1170 408 c 0,35,36
 1212 408 1212 408 1234 386 c 128,-1,37
 1256 364 1256 364 1250 322 c 0,38,39
 1234 154 1234 154 1135 77 c 128,-1,40
 1036 0 1036 0 848 0 c 2,41,-1
 608 0 l 2,0,1
EndSplineSet
EndChar

StartChar: D
Encoding: 68 68 36
Width: 1442
GlyphClass: 2
Flags: W
AnchorPoint: "+BBEENQQ3BEsEPARPBD0EPQQ+BDUA--4" 384 676 basechar 0
AnchorPoint: "+BBEENQQ3BEsEPARPBD0EPQQ+BDUA--2" 682 0 basechar 0
AnchorPoint: "+BBEENQQ3BEsEPARPBD0EPQQ+BDUA--0" 706 1356 basechar 0
LayerCount: 2
Fore
SplineSet
292 0 m 2,0,1
 208 0 208 0 208 84 c 2,2,-1
 208 1272 l 2,3,4
 208 1356 208 1356 292 1356 c 2,5,-1
 774 1356 l 2,6,7
 1035 1356 1035 1356 1158.5 1232.5 c 128,-1,8
 1282 1109 1282 1109 1282 848 c 2,9,-1
 1282 508 l 2,10,11
 1282 247 1282 247 1159.5 123.5 c 128,-1,12
 1037 0 1037 0 774 0 c 2,13,-1
 292 0 l 2,0,1
376 168 m 1,14,-1
 774 168 l 2,15,16
 902 168 902 168 976.5 199.5 c 128,-1,17
 1051 231 1051 231 1082.5 305.5 c 128,-1,18
 1114 380 1114 380 1114 508 c 2,19,-1
 1114 848 l 2,20,21
 1114 975 1114 975 1082.5 1049.5 c 128,-1,22
 1051 1124 1051 1124 976.5 1156 c 128,-1,23
 902 1188 902 1188 774 1188 c 2,24,-1
 376 1188 l 1,25,-1
 376 168 l 1,14,-1
EndSplineSet
EndChar

StartChar: E
Encoding: 69 69 45
Width: 1206
GlyphClass: 2
Flags: W
AnchorPoint: "+BBEENQQ3BEsEPARPBD0EPQQ+BDUA--3" 1012 82 basechar 0
AnchorPoint: "+BBEENQQ3BEsEPARPBD0EPQQ+BDUA--2" 696 0 basechar 0
AnchorPoint: "+BBEENQQ3BEsEPARPBD0EPQQ+BDUA--0" 680 1356 basechar 0
LayerCount: 2
Fore
SplineSet
292 0 m 2,0,1
 208 0 208 0 208 84 c 2,2,-1
 208 1272 l 2,3,4
 208 1356 208 1356 292 1356 c 2,5,-1
 1010 1356 l 2,6,7
 1094 1356 1094 1356 1094 1272 c 256,8,9
 1094 1188 1094 1188 1010 1188 c 2,10,-1
 376 1188 l 1,11,-1
 376 768 l 1,12,-1
 774 768 l 2,13,14
 858 768 858 768 858 684 c 256,15,16
 858 600 858 600 774 600 c 2,17,-1
 376 600 l 1,18,-1
 376 168 l 1,19,-1
 1010 168 l 2,20,21
 1094 168 1094 168 1094 84 c 256,22,23
 1094 0 1094 0 1010 0 c 2,24,-1
 292 0 l 2,0,1
EndSplineSet
Substitution2: "'c2sc' +BBoEMAQ/BDgEQgQ1BDsETAAA +BDgENwAA +BD8EQAQ+BD8EOARBBD0ESwRF in Latin lookup 33 subtable" e.sc
Substitution2: "'aalt' +BBIEQQQ1 +BDAEOwRMBEIENQRABD0EMARCBDgEMgQ9BEsENQAA +BDIEMARABDgEMAQ9BEIESwAA in Latin lookup 0 subtable" e.sc
EndChar

StartChar: F
Encoding: 70 70 65
Width: 1112
GlyphClass: 2
Flags: W
AnchorPoint: "+BBEENQQ3BEsEPARPBD0EPQQ+BDUA--2" 824 0 basechar 0
AnchorPoint: "+BBEENQQ3BEsEPARPBD0EPQQ+BDUA--0" 668 1356 basechar 0
LayerCount: 2
Fore
SplineSet
292 0 m 256,0,1
 208 0 208 0 208 84 c 2,2,-1
 208 1272 l 2,3,4
 208 1356 208 1356 292 1356 c 2,5,-1
 1028 1356 l 2,6,7
 1067 1356 1067 1356 1089.5 1333.5 c 128,-1,8
 1112 1311 1112 1311 1112 1272 c 0,9,10
 1112 1188 1112 1188 1028 1188 c 2,11,-1
 376 1188 l 1,12,-1
 376 768 l 1,13,-1
 778 768 l 2,14,15
 862 768 862 768 862 684 c 256,16,17
 862 600 862 600 778 600 c 2,18,-1
 376 600 l 1,19,-1
 376 84 l 2,20,21
 376 0 376 0 292 0 c 256,0,1
EndSplineSet
EndChar

StartChar: G
Encoding: 71 71 67
Width: 1397
GlyphClass: 2
Flags: W
AnchorPoint: "+BBEENQQ3BEsEPARPBD0EPQQ+BDUA--2" 744 0 basechar 0
AnchorPoint: "+BBEENQQ3BEsEPARPBD0EPQQ+BDUA--0" 730 1356 basechar 0
LayerCount: 2
Fore
SplineSet
608 0 m 2,0,1
 379 0 379 0 269.5 109.5 c 128,-1,2
 160 219 160 219 160 448 c 2,3,-1
 160 908 l 2,4,5
 160 1139 160 1139 269 1248.5 c 128,-1,6
 378 1358 378 1358 606 1356 c 2,7,-1
 848 1356 l 2,8,9
 1036 1356 1036 1356 1135 1278.5 c 128,-1,10
 1234 1201 1234 1201 1250 1034 c 0,11,12
 1256 992 1256 992 1234 970 c 128,-1,13
 1212 948 1212 948 1170 948 c 0,14,15
 1094 948 1094 948 1082 1032 c 0,16,17
 1072 1124 1072 1124 1018.5 1156 c 128,-1,18
 965 1188 965 1188 848 1188 c 2,19,-1
 606 1188 l 2,20,21
 500 1189 500 1189 439.5 1164 c 128,-1,22
 379 1139 379 1139 353.5 1077.5 c 128,-1,23
 328 1016 328 1016 328 908 c 2,24,-1
 328 448 l 2,25,26
 328 341 328 341 353.5 280 c 128,-1,27
 379 219 379 219 440 193.5 c 128,-1,28
 501 168 501 168 608 168 c 2,29,-1
 848 168 l 2,30,31
 941 168 941 168 993.5 188.5 c 128,-1,32
 1046 209 1046 209 1067 261 c 128,-1,33
 1088 313 1088 313 1088 408 c 2,34,-1
 1088 502 l 1,35,-1
 932 504 l 2,36,37
 848 504 848 504 848 588 c 256,38,39
 848 672 848 672 932 672 c 2,40,-1
 1172 670 l 2,41,42
 1256 670 1256 670 1256 586 c 2,43,-1
 1256 408 l 2,44,45
 1256 195 1256 195 1157 97.5 c 128,-1,46
 1058 0 1058 0 848 0 c 2,47,-1
 608 0 l 2,0,1
EndSplineSet
EndChar

StartChar: H
Encoding: 72 72 73
Width: 1568
GlyphClass: 2
Flags: W
AnchorPoint: "+BBEENQQ3BEsEPARPBD0EPQQ+BDUA--4" 784 1026 basechar 0
AnchorPoint: "+BBEENQQ3BEsEPARPBD0EPQQ+BDUA--2" 784 0 basechar 0
AnchorPoint: "+BBEENQQ3BEsEPARPBD0EPQQ+BDUA--0" 784 1356 basechar 0
LayerCount: 2
Fore
SplineSet
292 0 m 256,0,1
 259 0 259 0 233.5 25.5 c 128,-1,2
 208 51 208 51 208 84 c 2,3,-1
 208 1272 l 2,4,5
 208 1305 208 1305 233.5 1330.5 c 128,-1,6
 259 1356 259 1356 292 1356 c 256,7,8
 325 1356 325 1356 350.5 1330.5 c 128,-1,9
 376 1305 376 1305 376 1272 c 2,10,-1
 376 770 l 1,11,-1
 1192 770 l 1,12,-1
 1192 1272 l 2,13,14
 1192 1305 1192 1305 1217 1330.5 c 128,-1,15
 1242 1356 1242 1356 1276 1356 c 0,16,17
 1309 1356 1309 1356 1334.5 1330.5 c 128,-1,18
 1360 1305 1360 1305 1360 1272 c 2,19,-1
 1360 84 l 2,20,21
 1360 51 1360 51 1334.5 25.5 c 128,-1,22
 1309 0 1309 0 1276 0 c 0,23,24
 1242 0 1242 0 1217 25.5 c 128,-1,25
 1192 51 1192 51 1192 84 c 2,26,-1
 1192 602 l 1,27,-1
 376 602 l 1,28,-1
 376 84 l 2,29,30
 376 51 376 51 350.5 25.5 c 128,-1,31
 325 0 325 0 292 0 c 256,0,1
EndSplineSet
EndChar

StartChar: I
Encoding: 73 73 76
Width: 584
GlyphClass: 2
Flags: W
AnchorPoint: "+BBEENQQ3BEsEPARPBD0EPQQ+BDUA--3" 236 14 basechar 0
AnchorPoint: "+BBEENQQ3BEsEPARPBD0EPQQ+BDUA--2" 292 0 basechar 0
AnchorPoint: "+BBEENQQ3BEsEPARPBD0EPQQ+BDUA--0" 292 1356 basechar 0
LayerCount: 2
Fore
SplineSet
292 0 m 0,0,1
 249 0 249 0 228.5 20.5 c 128,-1,2
 208 41 208 41 208 84 c 2,3,-1
 208 1270 l 2,4,5
 208 1314 208 1314 228.5 1334 c 128,-1,6
 249 1354 249 1354 292 1354 c 0,7,8
 336 1354 336 1354 356 1334 c 128,-1,9
 376 1314 376 1314 376 1270 c 2,10,-1
 376 84 l 2,11,12
 376 41 376 41 356 20.5 c 128,-1,13
 336 0 336 0 292 0 c 0,0,1
EndSplineSet
Substitution2: "'c2sc' +BBoEMAQ/BDgEQgQ1BDsETAAA +BDgENwAA +BD8EQAQ+BD8EOARBBD0ESwRF in Latin lookup 33 subtable" i.sc
Substitution2: "'aalt' +BBIEQQQ1 +BDAEOwRMBEIENQRABD0EMARCBDgEMgQ9BEsENQAA +BDIEMARABDgEMAQ9BEIESwAA in Latin lookup 0 subtable" i.sc
EndChar

StartChar: J
Encoding: 74 74 90
Width: 1244
GlyphClass: 2
Flags: W
AnchorPoint: "+BBEENQQ3BEsEPARPBD0EPQQ+BDUA--2" 566 0 basechar 0
AnchorPoint: "+BBEENQQ3BEsEPARPBD0EPQQ+BDUA--0" 962 1356 basechar 0
LayerCount: 2
Fore
SplineSet
472 0 m 2,0,1
 285 0 285 0 185.5 77.5 c 128,-1,2
 86 155 86 155 68 320 c 0,3,4
 64 362 64 362 86 385 c 128,-1,5
 108 408 108 408 150 408 c 0,6,7
 227 408 227 408 236 324 c 0,8,9
 248 233 248 233 301 200.5 c 128,-1,10
 354 168 354 168 472 168 c 2,11,-1
 638 168 l 2,12,13
 731 168 731 168 783.5 189 c 128,-1,14
 836 210 836 210 857 262 c 128,-1,15
 878 314 878 314 878 408 c 2,16,-1
 878 1272 l 2,17,18
 878 1356 878 1356 962 1356 c 256,19,20
 1046 1356 1046 1356 1046 1272 c 2,21,-1
 1046 408 l 2,22,23
 1046 197 1046 197 947 98.5 c 128,-1,24
 848 0 848 0 638 0 c 2,25,-1
 472 0 l 2,0,1
EndSplineSet
EndChar

StartChar: K
Encoding: 75 75 92
Width: 1174
GlyphClass: 2
Flags: W
AnchorPoint: "+BBEENQQ3BEsEPARPBD0EPQQ+BDUA--2" 586 0 basechar 0
AnchorPoint: "+BBEENQQ3BEsEPARPBD0EPQQ+BDUA--0" 594 1356 basechar 0
LayerCount: 2
Fore
SplineSet
292 0 m 256,0,1
 208 0 208 0 208 84 c 2,2,-1
 208 1272 l 2,3,4
 208 1356 208 1356 292 1356 c 256,5,6
 376 1356 376 1356 376 1272 c 2,7,-1
 376 797 l 1,8,-1
 886 1324 l 2,9,10
 944 1386 944 1386 1004 1326 c 0,11,12
 1066 1268 1066 1268 1006 1208 c 2,13,-1
 581 769 l 1,14,-1
 1082 146 l 2,15,16
 1133 79 1133 79 1070 28 c 0,17,18
 1005 -25 1005 -25 952 40 c 2,19,-1
 463 646 l 1,20,-1
 376 556 l 1,21,-1
 376 84 l 2,22,23
 376 0 376 0 292 0 c 256,0,1
EndSplineSet
EndChar

StartChar: L
Encoding: 76 76 94
Width: 1082
GlyphClass: 2
Flags: W
AnchorPoint: "+BBEENQQ3BEsEPARPBD0EPQQ+BDUA--4" 316 628 basechar 0
AnchorPoint: "+BBEENQQ3BEsEPARPBD0EPQQ+BDUA--2" 644 0 basechar 0
AnchorPoint: "+BBEENQQ3BEsEPARPBD0EPQQ+BDUA--1" 480 908 basechar 0
AnchorPoint: "+BBEENQQ3BEsEPARPBD0EPQQ+BDUA--0" 292 1356 basechar 0
LayerCount: 2
Fore
SplineSet
292 0 m 2,0,1
 208 0 208 0 208 84 c 2,2,-1
 208 1272 l 2,3,4
 208 1356 208 1356 292 1356 c 256,5,6
 376 1356 376 1356 376 1272 c 2,7,-1
 376 168 l 1,8,-1
 930 168 l 2,9,10
 1014 168 1014 168 1014 84 c 256,11,12
 1014 0 1014 0 930 0 c 2,13,-1
 292 0 l 2,0,1
EndSplineSet
EndChar

StartChar: M
Encoding: 77 77 102
Width: 1674
GlyphClass: 2
Flags: W
AnchorPoint: "+BBEENQQ3BEsEPARPBD0EPQQ+BDUA--2" 844 0 basechar 0
AnchorPoint: "+BBEENQQ3BEsEPARPBD0EPQQ+BDUA--0" 844 1356 basechar 0
LayerCount: 2
Fore
SplineSet
292 0 m 256,0,1
 208 0 208 0 208 84 c 2,2,-1
 208 1272 l 2,3,4
 208 1356 208 1356 292 1356 c 0,5,6
 347 1356 347 1356 384 1302 c 2,7,-1
 856 592 l 1,8,-1
 820 586 l 1,9,-1
 1296 1302 l 2,10,11
 1330 1356 1330 1356 1398 1356 c 256,12,13
 1466 1356 1466 1356 1466 1272 c 2,14,-1
 1466 84 l 2,15,16
 1466 0 1466 0 1382 0 c 256,17,18
 1298 0 1298 0 1298 84 c 2,19,-1
 1298 1104 l 1,20,-1
 1350 1086 l 1,21,-1
 930 468 l 2,22,23
 893 414 893 414 828 414 c 0,24,25
 783 414 783 414 746 468 c 2,26,-1
 326 1086 l 1,27,-1
 376 1072 l 1,28,-1
 376 84 l 2,29,30
 376 0 376 0 292 0 c 256,0,1
EndSplineSet
EndChar

StartChar: N
Encoding: 78 78 104
Width: 1514
GlyphClass: 2
Flags: W
AnchorPoint: "+BBEENQQ3BEsEPARPBD0EPQQ+BDUA--2" 750 0 basechar 0
AnchorPoint: "+BBEENQQ3BEsEPARPBD0EPQQ+BDUA--0" 750 1356 basechar 0
LayerCount: 2
Fore
SplineSet
292 0 m 256,0,1
 208 0 208 0 208 84 c 2,2,-1
 208 1272 l 2,3,4
 208 1356 208 1356 292 1356 c 0,5,6
 335 1356 335 1356 376 1306 c 2,7,-1
 1180 270 l 1,8,-1
 1138 270 l 1,9,-1
 1138 1272 l 2,10,11
 1138 1356 1138 1356 1222 1356 c 256,12,13
 1306 1356 1306 1356 1306 1272 c 2,14,-1
 1306 84 l 2,15,16
 1306 0 1306 0 1222 0 c 0,17,18
 1177 0 1177 0 1138 50 c 2,19,-1
 334 1086 l 1,20,-1
 376 1086 l 1,21,-1
 376 84 l 2,22,23
 376 0 376 0 292 0 c 256,0,1
EndSplineSet
EndChar

StartChar: Eng
Encoding: 330 330 109
Width: 1514
GlyphClass: 2
Flags: W
AnchorPoint: "+BBEENQQ3BEsEPARPBD0EPQQ+BDUA--2" 750 0 basechar 0
AnchorPoint: "+BBEENQQ3BEsEPARPBD0EPQQ+BDUA--0" 750 1356 basechar 0
LayerCount: 2
Fore
SplineSet
780 -400 m 2,0,1
 659 -400 659 -400 588.5 -351 c 128,-1,2
 518 -302 518 -302 500 -200 c 0,3,4
 493 -158 493 -158 515 -135 c 128,-1,5
 537 -112 537 -112 582 -112 c 0,6,7
 620 -112 620 -112 633 -134.5 c 128,-1,8
 646 -157 646 -157 668 -194 c 0,9,10
 682 -216 682 -216 706.5 -224 c 128,-1,11
 731 -232 731 -232 780 -232 c 2,12,-1
 1018 -232 l 2,13,14
 1092 -232 1092 -232 1115 -208.5 c 128,-1,15
 1138 -185 1138 -185 1138 -112 c 2,16,-1
 1138 50 l 1,17,-1
 376 1032 l 1,18,-1
 376 84 l 2,19,20
 376 0 376 0 292 0 c 256,21,22
 208 0 208 0 208 84 c 2,23,-1
 208 1272 l 2,24,25
 208 1356 208 1356 292 1356 c 0,26,27
 337 1356 337 1356 376 1306 c 2,28,-1
 1138 324 l 1,29,-1
 1138 1272 l 2,30,31
 1138 1356 1138 1356 1222 1356 c 256,32,33
 1306 1356 1306 1356 1306 1272 c 2,34,-1
 1306 -112 l 2,35,36
 1306 -259 1306 -259 1235.5 -329.5 c 128,-1,37
 1165 -400 1165 -400 1018 -400 c 2,38,-1
 780 -400 l 2,0,1
EndSplineSet
EndChar

StartChar: O
Encoding: 79 79 112
Width: 1456
GlyphClass: 2
Flags: W
AnchorPoint: "+BBEENQQ3BEsEPARPBD0EPQQ+BDUA--4" 706 678 basechar 0
AnchorPoint: "+BBEENQQ3BEsEPARPBD0EPQQ+BDUA--3" 944 40 basechar 0
AnchorPoint: "+BBEENQQ3BEsEPARPBD0EPQQ+BDUA--2" 706 0 basechar 0
AnchorPoint: "+BBEENQQ3BEsEPARPBD0EPQQ+BDUA--1" 1150 1222 basechar 0
AnchorPoint: "+BBEENQQ3BEsEPARPBD0EPQQ+BDUA--0" 728 1356 basechar 0
LayerCount: 2
Fore
SplineSet
608 0 m 2,0,1
 379 0 379 0 269.5 109.5 c 128,-1,2
 160 219 160 219 160 448 c 2,3,-1
 160 910 l 2,4,5
 160 1141 160 1141 270 1249.5 c 128,-1,6
 380 1358 380 1358 608 1356 c 2,7,-1
 848 1356 l 2,8,9
 1078 1356 1078 1356 1187 1247 c 128,-1,10
 1296 1138 1296 1138 1296 908 c 2,11,-1
 1296 448 l 2,12,13
 1296 219 1296 219 1187 109.5 c 128,-1,14
 1078 0 1078 0 848 0 c 2,15,-1
 608 0 l 2,0,1
608 168 m 2,16,-1
 848 168 l 2,17,18
 955 168 955 168 1016 193.5 c 128,-1,19
 1077 219 1077 219 1102.5 280 c 128,-1,20
 1128 341 1128 341 1128 448 c 2,21,-1
 1128 908 l 2,22,23
 1128 1014 1128 1014 1102.5 1075 c 128,-1,24
 1077 1136 1077 1136 1016 1162 c 128,-1,25
 955 1188 955 1188 848 1188 c 2,26,-1
 608 1188 l 2,27,28
 502 1189 502 1189 441 1164 c 128,-1,29
 380 1139 380 1139 354 1078 c 128,-1,30
 328 1017 328 1017 328 910 c 2,31,-1
 328 448 l 2,32,33
 328 341 328 341 353.5 280 c 128,-1,34
 379 219 379 219 440 193.5 c 128,-1,35
 501 168 501 168 608 168 c 2,16,-1
EndSplineSet
Substitution2: "'c2sc' +BBoEMAQ/BDgEQgQ1BDsETAAA +BDgENwAA +BD8EQAQ+BD8EOARBBD0ESwRF in Latin lookup 33 subtable" o.sc
Substitution2: "Single Substitution lookup 23 subtable" ordmasculine
AlternateSubs2: "'aalt' +BBIEQQQ1 +BDAEOwRMBEIENQRABD0EMARCBDgEMgQ9BEsENQAA +BDIEMARABDgEMAQ9BEIESwAA in Latin lookup 1 subtable" o.sc ordmasculine
EndChar

StartChar: OE
Encoding: 338 338 142
Width: 1782
Flags: W
LayerCount: 2
Fore
SplineSet
608 0 m 2,0,1
 379 0 379 0 269.5 109.5 c 128,-1,2
 160 219 160 219 160 448 c 2,3,-1
 160 910 l 2,4,5
 160 1141 160 1141 270 1248.5 c 128,-1,6
 380 1356 380 1356 608 1356 c 2,7,-1
 1586 1356 l 2,8,9
 1625 1356 1625 1356 1647.5 1333.5 c 128,-1,10
 1670 1311 1670 1311 1670 1272 c 0,11,12
 1670 1188 1670 1188 1586 1188 c 2,13,-1
 1008 1188 l 1,14,-1
 1008 768 l 1,15,-1
 1350 768 l 2,16,17
 1434 768 1434 768 1434 684 c 256,18,19
 1434 600 1434 600 1350 600 c 2,20,-1
 1008 600 l 1,21,-1
 1008 168 l 1,22,-1
 1586 168 l 2,23,24
 1670 168 1670 168 1670 84 c 256,25,26
 1670 0 1670 0 1586 0 c 2,27,-1
 608 0 l 2,0,1
608 168 m 2,28,-1
 840 168 l 1,29,-1
 840 1188 l 1,30,-1
 608 1188 l 2,31,32
 502 1188 502 1188 441 1163 c 128,-1,33
 380 1138 380 1138 354 1077.5 c 128,-1,34
 328 1017 328 1017 328 910 c 2,35,-1
 328 448 l 2,36,37
 328 341 328 341 353.5 280 c 128,-1,38
 379 219 379 219 440 193.5 c 128,-1,39
 501 168 501 168 608 168 c 2,28,-1
EndSplineSet
EndChar

StartChar: P
Encoding: 80 80 143
Width: 1226
GlyphClass: 2
Flags: W
AnchorPoint: "+BBEENQQ3BEsEPARPBD0EPQQ+BDUA--2" 758 0 basechar 0
AnchorPoint: "+BBEENQQ3BEsEPARPBD0EPQQ+BDUA--0" 630 1356 basechar 0
LayerCount: 2
Fore
SplineSet
292 0 m 256,0,1
 208 0 208 0 208 84 c 2,2,-1
 208 1272 l 2,3,4
 208 1356 208 1356 292 1356 c 2,5,-1
 760 1356 l 2,6,7
 943 1356 943 1356 1040.5 1258.5 c 128,-1,8
 1138 1161 1138 1161 1138 978 c 2,9,-1
 1138 918 l 2,10,11
 1138 735 1138 735 1040.5 637.5 c 128,-1,12
 943 540 943 540 760 540 c 2,13,-1
 376 540 l 1,14,-1
 376 84 l 2,15,16
 376 0 376 0 292 0 c 256,0,1
376 708 m 1,17,-1
 760 708 l 2,18,19
 874 708 874 708 922 756 c 128,-1,20
 970 804 970 804 970 918 c 2,21,-1
 970 978 l 2,22,23
 970 1091 970 1091 922 1139.5 c 128,-1,24
 874 1188 874 1188 760 1188 c 2,25,-1
 376 1188 l 1,26,-1
 376 708 l 1,17,-1
EndSplineSet
EndChar

StartChar: Thorn
Encoding: 222 222 145
Width: 1130
Flags: W
LayerCount: 2
Fore
SplineSet
292 0 m 256,0,1
 208 0 208 0 208 84 c 2,2,-1
 208 1272 l 2,3,4
 208 1356 208 1356 292 1356 c 256,5,6
 376 1356 376 1356 376 1272 c 2,7,-1
 376 1150 l 1,8,-1
 664 1150 l 2,9,10
 847 1150 847 1150 944.5 1052.5 c 128,-1,11
 1042 955 1042 955 1042 772 c 2,12,-1
 1042 712 l 2,13,14
 1042 529 1042 529 944.5 431.5 c 128,-1,15
 847 334 847 334 664 334 c 2,16,-1
 376 334 l 1,17,-1
 376 84 l 2,18,19
 376 0 376 0 292 0 c 256,0,1
376 502 m 1,20,-1
 664 502 l 2,21,22
 778 502 778 502 826 550 c 128,-1,23
 874 598 874 598 874 712 c 2,24,-1
 874 772 l 2,25,26
 874 886 874 886 826 934 c 128,-1,27
 778 982 778 982 664 982 c 2,28,-1
 376 982 l 1,29,-1
 376 502 l 1,20,-1
EndSplineSet
EndChar

StartChar: Q
Encoding: 81 81 146
Width: 1466
GlyphClass: 2
Flags: W
AnchorPoint: "+BBEENQQ3BEsEPARPBD0EPQQ+BDUA--4" 706 678 basechar 0
AnchorPoint: "+BBEENQQ3BEsEPARPBD0EPQQ+BDUA--3" 944 40 basechar 0
AnchorPoint: "+BBEENQQ3BEsEPARPBD0EPQQ+BDUA--2" 728 0 basechar 0
AnchorPoint: "+BBEENQQ3BEsEPARPBD0EPQQ+BDUA--1" 1150 1222 basechar 0
AnchorPoint: "+BBEENQQ3BEsEPARPBD0EPQQ+BDUA--0" 728 1356 basechar 0
LayerCount: 2
Fore
SplineSet
1286 -44 m 2,0,1
 1307 -66 1307 -66 1306.5 -92.5 c 128,-1,2
 1306 -119 1306 -119 1280 -142 c 0,3,4
 1231 -188 1231 -188 1180 -140 c 1,5,-1
 836 224 l 2,6,7
 814 247 814 247 814 273.5 c 128,-1,8
 814 300 814 300 838 322 c 0,9,10
 888 369 888 369 940 320 c 2,11,-1
 1286 -44 l 2,0,1
608 0 m 2,12,13
 379 0 379 0 269.5 109.5 c 128,-1,14
 160 219 160 219 160 448 c 2,15,-1
 160 910 l 2,16,17
 160 1141 160 1141 270 1249.5 c 128,-1,18
 380 1358 380 1358 608 1356 c 2,19,-1
 848 1356 l 2,20,21
 1078 1356 1078 1356 1187 1247 c 128,-1,22
 1296 1138 1296 1138 1296 908 c 2,23,-1
 1296 448 l 2,24,25
 1296 219 1296 219 1187 109.5 c 128,-1,26
 1078 0 1078 0 848 0 c 2,27,-1
 608 0 l 2,12,13
608 168 m 2,28,-1
 848 168 l 2,29,30
 955 168 955 168 1016 193.5 c 128,-1,31
 1077 219 1077 219 1102.5 280 c 128,-1,32
 1128 341 1128 341 1128 448 c 2,33,-1
 1128 908 l 2,34,35
 1128 1014 1128 1014 1102.5 1075 c 128,-1,36
 1077 1136 1077 1136 1016 1162 c 128,-1,37
 955 1188 955 1188 848 1188 c 2,38,-1
 608 1188 l 2,39,40
 502 1189 502 1189 441 1164 c 128,-1,41
 380 1139 380 1139 354 1078 c 128,-1,42
 328 1017 328 1017 328 910 c 2,43,-1
 328 448 l 2,44,45
 328 341 328 341 353.5 280 c 128,-1,46
 379 219 379 219 440 193.5 c 128,-1,47
 501 168 501 168 608 168 c 2,28,-1
EndSplineSet
EndChar

StartChar: R
Encoding: 82 82 147
Width: 1250
GlyphClass: 2
Flags: W
AnchorPoint: "+BBEENQQ3BEsEPARPBD0EPQQ+BDUA--2" 626 0 basechar 0
AnchorPoint: "+BBEENQQ3BEsEPARPBD0EPQQ+BDUA--0" 626 1356 basechar 0
LayerCount: 2
Fore
SplineSet
1080 -4 m 0,0,1
 1047 -25 1047 -25 1017 -17 c 128,-1,2
 987 -9 987 -9 966 24 c 2,3,-1
 656 540 l 1,4,-1
 376 540 l 1,5,-1
 376 84 l 2,6,7
 376 0 376 0 292 0 c 256,8,9
 208 0 208 0 208 84 c 2,10,-1
 208 1272 l 2,11,12
 208 1356 208 1356 292 1356 c 2,13,-1
 760 1356 l 2,14,15
 943 1356 943 1356 1040.5 1258.5 c 128,-1,16
 1138 1161 1138 1161 1138 978 c 2,17,-1
 1138 918 l 2,18,19
 1138 759 1138 759 1064 664.5 c 128,-1,20
 990 570 990 570 850 547 c 1,21,-1
 1112 110 l 2,22,23
 1150 40 1150 40 1080 -4 c 0,0,1
376 708 m 1,24,-1
 760 708 l 2,25,26
 874 708 874 708 922 756 c 128,-1,27
 970 804 970 804 970 918 c 2,28,-1
 970 978 l 2,29,30
 970 1091 970 1091 922 1139.5 c 128,-1,31
 874 1188 874 1188 760 1188 c 2,32,-1
 376 1188 l 1,33,-1
 376 708 l 1,24,-1
EndSplineSet
EndChar

StartChar: S
Encoding: 83 83 153
Width: 1385
GlyphClass: 2
Flags: W
AnchorPoint: "+BBEENQQ3BEsEPARPBD0EPQQ+BDUA--2" 707 0 basechar 0
AnchorPoint: "+BBEENQQ3BEsEPARPBD0EPQQ+BDUA--0" 707 1356 basechar 0
LayerCount: 2
Fore
SplineSet
547 0 m 2,0,1
 376 0 376 0 280.5 69 c 128,-1,2
 185 138 185 138 161 282 c 0,3,4
 157 326 157 326 179 348 c 128,-1,5
 201 370 201 370 243 370 c 256,6,7
 285 370 285 370 304.5 350 c 128,-1,8
 324 330 324 330 331 288 c 0,9,10
 346 219 346 219 395.5 193.5 c 128,-1,11
 445 168 445 168 547 168 c 2,12,-1
 835 168 l 2,13,14
 964 168 964 168 1010.5 214.5 c 128,-1,15
 1057 261 1057 261 1057 388 c 0,16,17
 1057 517 1057 517 1009 564.5 c 128,-1,18
 961 612 961 612 835 612 c 2,19,-1
 587 612 l 2,20,21
 398 612 398 612 306.5 704.5 c 128,-1,22
 215 797 215 797 215 986 c 0,23,24
 215 1174 215 1174 305.5 1265 c 128,-1,25
 396 1356 396 1356 585 1356 c 2,26,-1
 823 1356 l 2,27,28
 982 1356 982 1356 1072.5 1291 c 128,-1,29
 1163 1226 1163 1226 1187 1092 c 0,30,31
 1193 1049 1193 1049 1171 1026.5 c 128,-1,32
 1149 1004 1149 1004 1105 1004 c 0,33,34
 1065 1004 1065 1004 1045 1025 c 128,-1,35
 1025 1046 1025 1046 1019 1086 c 1,36,37
 1003 1145 1003 1145 958 1166.5 c 128,-1,38
 913 1188 913 1188 823 1188 c 2,39,-1
 585 1188 l 2,40,41
 465 1188 465 1188 424 1145.5 c 128,-1,42
 383 1103 383 1103 383 986 c 0,43,44
 383 868 383 868 425 824 c 128,-1,45
 467 780 467 780 587 780 c 2,46,-1
 835 780 l 2,47,48
 1032 780 1032 780 1128.5 684 c 128,-1,49
 1225 588 1225 588 1225 388 c 0,50,51
 1225 189 1225 189 1129 94.5 c 128,-1,52
 1033 0 1033 0 835 0 c 2,53,-1
 547 0 l 2,0,1
EndSplineSet
EndChar

StartChar: uni1E9E
Encoding: 7838 7838 160
Width: 1218
Flags: W
LayerCount: 2
Fore
SplineSet
292 -40 m 256,0,1
 259 -40 259 -40 233.5 -14.5 c 128,-1,2
 208 11 208 11 208 44 c 2,3,-1
 208 960 l 2,4,5
 208 1148 208 1148 299.5 1239 c 128,-1,6
 391 1330 391 1330 578 1330 c 2,7,-1
 594 1330 l 2,8,9
 774 1330 774 1330 864.5 1246.5 c 128,-1,10
 955 1163 955 1163 962 990 c 0,11,12
 962 957 962 957 952.5 933.5 c 128,-1,13
 943 910 943 910 922 884 c 2,14,-1
 820 772 l 1,15,16
 945 672 945 672 1001.5 564.5 c 128,-1,17
 1058 457 1058 457 1058 322 c 0,18,19
 1058 139 1058 139 968.5 49.5 c 128,-1,20
 879 -40 879 -40 696 -40 c 2,21,-1
 556 -40 l 2,22,23
 523 -40 523 -40 497.5 -14.5 c 128,-1,24
 472 11 472 11 472 44 c 0,25,26
 472 79 472 79 497.5 103.5 c 128,-1,27
 523 128 523 128 556 128 c 2,28,-1
 696 128 l 2,29,30
 810 128 810 128 850 169 c 128,-1,31
 890 210 890 210 890 322 c 0,32,33
 890 432 890 432 834.5 515.5 c 128,-1,34
 779 599 779 599 644 690 c 1,35,-1
 644 822 l 1,36,-1
 794 994 l 1,37,38
 790 1092 790 1092 746 1127 c 128,-1,39
 702 1162 702 1162 594 1162 c 2,40,-1
 578 1162 l 2,41,42
 460 1162 460 1162 418 1120.5 c 128,-1,43
 376 1079 376 1079 376 960 c 2,44,-1
 376 44 l 2,45,46
 376 11 376 11 350.5 -14.5 c 128,-1,47
 325 -40 325 -40 292 -40 c 256,0,1
EndSplineSet
EndChar

StartChar: uni018F
Encoding: 399 399 161
Width: 1456
Flags: W
LayerCount: 2
Fore
SplineSet
608 0 m 2,0,1
 379 0 379 0 269.5 108.5 c 128,-1,2
 160 217 160 217 160 448 c 2,3,-1
 160 658 l 1,4,-1
 1128 658 l 1,5,-1
 1128 900 l 2,6,7
 1128 1006 1128 1006 1102.5 1067 c 128,-1,8
 1077 1128 1077 1128 1016 1154 c 128,-1,9
 955 1180 955 1180 848 1180 c 2,10,-1
 608 1180 l 2,11,12
 501 1180 501 1180 440 1154 c 128,-1,13
 379 1128 379 1128 353.5 1067 c 128,-1,14
 328 1006 328 1006 328 900 c 0,15,16
 328 864 328 864 303.5 840 c 128,-1,17
 279 816 279 816 244 816 c 0,18,19
 210 816 210 816 185 840 c 128,-1,20
 160 864 160 864 160 900 c 0,21,22
 160 1130 160 1130 269.5 1239 c 128,-1,23
 379 1348 379 1348 608 1348 c 2,24,-1
 848 1348 l 2,25,26
 1078 1348 1078 1348 1187 1239 c 128,-1,27
 1296 1130 1296 1130 1296 900 c 2,28,-1
 1296 448 l 2,29,30
 1296 217 1296 217 1187 108.5 c 128,-1,31
 1078 0 1078 0 848 0 c 2,32,-1
 608 0 l 2,0,1
608 168 m 2,33,-1
 848 168 l 2,34,35
 955 168 955 168 1016 193.5 c 128,-1,36
 1077 219 1077 219 1102.5 280 c 128,-1,37
 1128 341 1128 341 1128 448 c 2,38,-1
 1128 490 l 1,39,-1
 328 490 l 1,40,-1
 328 448 l 2,41,42
 328 341 328 341 353.5 280 c 128,-1,43
 379 219 379 219 440 193.5 c 128,-1,44
 501 168 501 168 608 168 c 2,33,-1
EndSplineSet
EndChar

StartChar: T
Encoding: 84 84 162
Width: 1228
GlyphClass: 2
Flags: W
AnchorPoint: "+BBEENQQ3BEsEPARPBD0EPQQ+BDUA--4" 614 678 basechar 0
AnchorPoint: "+BBEENQQ3BEsEPARPBD0EPQQ+BDUA--2" 548 0 basechar 0
AnchorPoint: "+BBEENQQ3BEsEPARPBD0EPQQ+BDUA--0" 614 1356 basechar 0
LayerCount: 2
Fore
SplineSet
614 0 m 0,0,1
 572 0 572 0 551 21 c 128,-1,2
 530 42 530 42 530 84 c 2,3,-1
 530 1186 l 1,4,-1
 142 1186 l 2,5,6
 100 1186 100 1186 79 1207 c 128,-1,7
 58 1228 58 1228 58 1270 c 256,8,9
 58 1312 58 1312 79 1333 c 128,-1,10
 100 1354 100 1354 142 1354 c 2,11,-1
 1086 1354 l 2,12,13
 1128 1354 1128 1354 1149 1333 c 128,-1,14
 1170 1312 1170 1312 1170 1270 c 256,15,16
 1170 1228 1170 1228 1149 1207 c 128,-1,17
 1128 1186 1128 1186 1086 1186 c 2,18,-1
 698 1186 l 1,19,-1
 698 84 l 2,20,21
 698 44 698 44 676.5 22 c 128,-1,22
 655 0 655 0 614 0 c 0,0,1
EndSplineSet
EndChar

StartChar: U
Encoding: 85 85 168
Width: 1532
GlyphClass: 2
Flags: W
AnchorPoint: "+BBEENQQ3BEsEPARPBD0EPQQ+BDUA--3" 1176 118 basechar 0
AnchorPoint: "+BBEENQQ3BEsEPARPBD0EPQQ+BDUA--2" 766 0 basechar 0
AnchorPoint: "+BBEENQQ3BEsEPARPBD0EPQQ+BDUA--1" 1250 1356 basechar 0
AnchorPoint: "+BBEENQQ3BEsEPARPBD0EPQQ+BDUA--0" 766 1356 basechar 0
LayerCount: 2
Fore
SplineSet
646 0 m 2,0,1
 417 0 417 0 307.5 109.5 c 128,-1,2
 198 219 198 219 198 448 c 2,3,-1
 198 1272 l 2,4,5
 198 1314 198 1314 219 1335 c 128,-1,6
 240 1356 240 1356 282 1356 c 256,7,8
 324 1356 324 1356 345 1335 c 128,-1,9
 366 1314 366 1314 366 1272 c 2,10,-1
 366 448 l 2,11,12
 366 341 366 341 391.5 280 c 128,-1,13
 417 219 417 219 478 193.5 c 128,-1,14
 539 168 539 168 646 168 c 2,15,-1
 886 168 l 2,16,17
 993 168 993 168 1054 193.5 c 128,-1,18
 1115 219 1115 219 1140.5 280 c 128,-1,19
 1166 341 1166 341 1166 448 c 2,20,-1
 1166 1272 l 2,21,22
 1166 1314 1166 1314 1187 1335 c 128,-1,23
 1208 1356 1208 1356 1250 1356 c 256,24,25
 1292 1356 1292 1356 1313 1335 c 128,-1,26
 1334 1314 1334 1314 1334 1272 c 2,27,-1
 1334 448 l 2,28,29
 1334 219 1334 219 1225 109.5 c 128,-1,30
 1116 0 1116 0 886 0 c 2,31,-1
 646 0 l 2,0,1
EndSplineSet
EndChar

StartChar: V
Encoding: 86 86 189
Width: 1286
GlyphClass: 2
Flags: W
AnchorPoint: "+BBEENQQ3BEsEPARPBD0EPQQ+BDUA--2" 638 0 basechar 0
AnchorPoint: "+BBEENQQ3BEsEPARPBD0EPQQ+BDUA--0" 644 1356 basechar 0
LayerCount: 2
Fore
SplineSet
634 0 m 2,0,1
 582 0 582 0 552 66 c 2,2,-1
 58 1236 l 2,3,4
 43 1271 43 1271 50 1298.5 c 128,-1,5
 57 1326 57 1326 96 1344 c 0,6,7
 178 1385 178 1385 212 1302 c 2,8,-1
 679 196 l 1,9,-1
 621 196 l 1,10,-1
 1076 1302 l 2,11,12
 1109 1384 1109 1384 1192 1344 c 0,13,14
 1227 1326 1227 1326 1235.5 1298.5 c 128,-1,15
 1244 1271 1244 1271 1230 1236 c 2,16,-1
 732 66 l 2,17,18
 701 0 701 0 642 0 c 2,19,-1
 634 0 l 2,0,1
EndSplineSet
EndChar

StartChar: W
Encoding: 87 87 190
Width: 1791
GlyphClass: 2
Flags: W
AnchorPoint: "+BBEENQQ3BEsEPARPBD0EPQQ+BDUA--2" 897 0 basechar 0
AnchorPoint: "+BBEENQQ3BEsEPARPBD0EPQQ+BDUA--0" 897 1356 basechar 0
LayerCount: 2
Fore
SplineSet
499 0 m 0,0,1
 444 0 444 0 421 72 c 2,2,-1
 51 1244 l 2,3,4
 39 1282 39 1282 62.5 1320 c 128,-1,5
 86 1358 86 1358 131 1358 c 0,6,7
 155 1358 155 1358 177 1342.5 c 128,-1,8
 199 1327 199 1327 209 1294 c 2,9,-1
 535 256 l 1,10,-1
 491 256 l 1,11,-1
 801 1284 l 2,12,13
 812 1320 812 1320 838.5 1338 c 128,-1,14
 865 1356 865 1356 893 1356 c 0,15,16
 923 1356 923 1356 951 1338 c 128,-1,17
 979 1320 979 1320 989 1284 c 2,18,-1
 1299 256 l 1,19,-1
 1255 256 l 1,20,-1
 1581 1294 l 2,21,22
 1592 1327 1592 1327 1612.5 1341.5 c 128,-1,23
 1633 1356 1633 1356 1657 1356 c 0,24,25
 1701 1356 1701 1356 1727 1322 c 128,-1,26
 1753 1288 1753 1288 1739 1244 c 2,27,-1
 1369 72 l 2,28,29
 1345 0 1345 0 1281 0 c 2,30,-1
 1277 0 l 2,31,32
 1210 0 1210 0 1189 72 c 2,33,-1
 867 1114 l 1,34,-1
 911 1114 l 1,35,-1
 587 72 l 2,36,37
 577 36 577 36 557.5 18 c 128,-1,38
 538 0 538 0 499 0 c 0,0,1
EndSplineSet
EndChar

StartChar: X
Encoding: 88 88 195
Width: 1252
GlyphClass: 2
Flags: W
AnchorPoint: "+BBEENQQ3BEsEPARPBD0EPQQ+BDUA--2" 628 0 basechar 0
AnchorPoint: "+BBEENQQ3BEsEPARPBD0EPQQ+BDUA--0" 630 1356 basechar 0
LayerCount: 2
Fore
SplineSet
172 18 m 0,0,1
 105 64 105 64 152 136 c 2,2,-1
 518 676 l 1,3,-1
 132 1220 l 2,4,5
 87 1286 87 1286 154 1338 c 1,6,7
 223 1385 223 1385 270 1316 c 2,8,-1
 628 814 l 1,9,-1
 988 1316 l 2,10,11
 1040 1383 1040 1383 1104 1334 c 0,12,13
 1172 1284 1172 1284 1124 1218 c 2,14,-1
 730 670 l 1,15,-1
 1108 138 l 2,16,17
 1155 69 1155 69 1086 18 c 0,18,19
 1017 -29 1017 -29 970 40 c 2,20,-1
 622 530 l 1,21,-1
 290 38 l 2,22,23
 244 -27 244 -27 172 18 c 0,0,1
EndSplineSet
EndChar

StartChar: Y
Encoding: 89 89 196
Width: 1230
GlyphClass: 2
Flags: W
AnchorPoint: "+BBEENQQ3BEsEPARPBD0EPQQ+BDUA--2" 613 0 basechar 0
AnchorPoint: "+BBEENQQ3BEsEPARPBD0EPQQ+BDUA--0" 613 1356 basechar 0
LayerCount: 2
Fore
SplineSet
605 0 m 256,0,1
 521 0 521 0 521 84 c 2,2,-1
 521 492 l 1,3,-1
 63 1222 l 2,4,5
 21 1294 21 1294 89 1340 c 0,6,7
 161 1384 161 1384 205 1314 c 2,8,-1
 605 672 l 1,9,-1
 1025 1314 l 2,10,11
 1046 1347 1046 1347 1076 1353.5 c 128,-1,12
 1106 1360 1106 1360 1139 1336 c 0,13,14
 1212 1291 1212 1291 1165 1222 c 2,15,-1
 689 492 l 1,16,-1
 689 84 l 2,17,18
 689 0 689 0 605 0 c 256,0,1
EndSplineSet
EndChar

StartChar: Z
Encoding: 90 90 205
Width: 1378
GlyphClass: 2
Flags: W
AnchorPoint: "+BBEENQQ3BEsEPARPBD0EPQQ+BDUA--2" 702 0 basechar 0
AnchorPoint: "+BBEENQQ3BEsEPARPBD0EPQQ+BDUA--0" 722 1356 basechar 0
LayerCount: 2
Fore
SplineSet
208 0 m 2,0,1
 126 0 126 0 126 84 c 0,2,3
 126 98 126 98 134 115 c 128,-1,4
 142 132 142 132 158 156 c 2,5,-1
 962 1208 l 1,6,-1
 962 1188 l 1,7,-1
 428 1188 l 2,8,9
 364 1188 364 1188 328 1169 c 128,-1,10
 292 1150 292 1150 278 1106 c 0,11,12
 269 1069 269 1069 250 1048.5 c 128,-1,13
 231 1028 231 1028 190 1028 c 0,14,15
 148 1028 148 1028 124.5 1051 c 128,-1,16
 101 1074 101 1074 108 1116 c 0,17,18
 132 1232 132 1232 212.5 1294 c 128,-1,19
 293 1356 293 1356 428 1356 c 2,20,-1
 1096 1356 l 2,21,22
 1180 1356 1180 1356 1180 1272 c 0,23,24
 1180 1256 1180 1256 1173 1238 c 128,-1,25
 1166 1220 1166 1220 1148 1196 c 2,26,-1
 354 160 l 1,27,-1
 354 168 l 1,28,-1
 946 168 l 2,29,30
 1014 168 1014 168 1050 186.5 c 128,-1,31
 1086 205 1086 205 1098 250 c 0,32,33
 1109 288 1109 288 1128.5 308 c 128,-1,34
 1148 328 1148 328 1188 328 c 0,35,36
 1230 328 1230 328 1253 305 c 128,-1,37
 1276 282 1276 282 1270 240 c 0,38,39
 1221 0 1221 0 946 0 c 2,40,-1
 208 0 l 2,0,1
EndSplineSet
EndChar

StartChar: Iacute_J.loclNLD
Encoding: 65537 -1 209
Width: 1326
Flags: W
LayerCount: 2
Fore
SplineSet
616 0 m 2,0,1
 427 0 427 0 329 77 c 128,-1,2
 231 154 231 154 210 322 c 0,3,4
 207 364 207 364 230 386 c 128,-1,5
 253 408 253 408 292 408 c 0,6,7
 372 408 372 408 378 324 c 1,8,9
 393 233 393 233 446 200.5 c 128,-1,10
 499 168 499 168 616 168 c 2,11,-1
 782 168 l 2,12,13
 876 168 876 168 928 188.5 c 128,-1,14
 980 209 980 209 1001 261 c 128,-1,15
 1022 313 1022 313 1022 408 c 2,16,-1
 1022 1272 l 2,17,18
 1022 1356 1022 1356 1106 1356 c 256,19,20
 1190 1356 1190 1356 1190 1272 c 2,21,-1
 1190 408 l 2,22,23
 1190 195 1190 195 1092 97.5 c 128,-1,24
 994 0 994 0 782 0 c 2,25,-1
 616 0 l 2,0,1
292 496 m 0,26,27
 249 496 249 496 228.5 516.5 c 128,-1,28
 208 537 208 537 208 580 c 2,29,-1
 208 1270 l 2,30,31
 208 1314 208 1314 228.5 1334 c 128,-1,32
 249 1354 249 1354 292 1354 c 0,33,34
 334 1354 334 1354 355 1334 c 128,-1,35
 376 1314 376 1314 376 1270 c 2,36,-1
 376 580 l 2,37,38
 376 537 376 537 355 516.5 c 128,-1,39
 334 496 334 496 292 496 c 0,26,27
254 1444 m 0,40,41
 198 1488 198 1488 246 1546 c 2,42,-1
 392 1720 l 2,43,44
 437 1774 437 1774 494 1730 c 0,45,46
 551 1685 551 1685 504 1628 c 2,47,-1
 356 1452 l 2,48,49
 313 1397 313 1397 254 1444 c 0,40,41
1094 1444 m 0,50,51
 1038 1488 1038 1488 1086 1546 c 2,52,-1
 1232 1720 l 2,53,54
 1274 1774 1274 1774 1334 1730 c 1,55,56
 1389 1684 1389 1684 1342 1628 c 2,57,-1
 1196 1452 l 2,58,59
 1150 1397 1150 1397 1094 1444 c 0,50,51
EndSplineSet
Ligature2: "'locl' Localized Forms in Latin lookup 16 subtable" Iacute J
EndChar

StartChar: a
Encoding: 97 97 210
Width: 1300
GlyphClass: 2
Flags: W
AnchorPoint: "+BBEENQQ3BEsEPARPBD0EPQQ+BDUA--3" 972 14 basechar 0
AnchorPoint: "+BBEENQQ3BEsEPARPBD0EPQQ+BDUA--2" 642 0 basechar 0
AnchorPoint: "+BBEENQQ3BEsEPARPBD0EPQQ+BDUA--0" 642 1014 basechar 0
LayerCount: 2
Fore
SplineSet
520 0 m 2,0,1
 352 0 352 0 270 82 c 128,-1,2
 188 164 188 164 188 332 c 256,3,4
 188 500 188 500 269.5 582 c 128,-1,5
 351 664 351 664 520 664 c 2,6,-1
 943 664 l 1,7,8
 937 769 937 769 888 807.5 c 128,-1,9
 839 846 839 846 720 846 c 2,10,-1
 604 846 l 2,11,12
 504 846 504 846 455 832.5 c 128,-1,13
 406 819 406 819 386 784 c 1,14,15
 368 742 368 742 349 726 c 128,-1,16
 330 710 330 710 292 710 c 0,17,18
 250 710 250 710 226 733.5 c 128,-1,19
 202 757 202 757 212 796 c 0,20,21
 242 909 242 909 337.5 961.5 c 128,-1,22
 433 1014 433 1014 604 1014 c 2,23,-1
 720 1014 l 2,24,25
 920 1014 920 1014 1016 918 c 128,-1,26
 1112 822 1112 822 1112 622 c 2,27,-1
 1112 84 l 2,28,29
 1112 0 1112 0 1028 0 c 256,30,31
 944 0 944 0 944 84 c 2,32,-1
 944 129 l 1,33,34
 837 0 837 0 632 0 c 2,35,-1
 520 0 l 2,0,1
520 168 m 2,36,-1
 632 168 l 2,37,38
 706 168 706 168 771 181.5 c 128,-1,39
 836 195 836 195 882.5 231 c 128,-1,40
 929 267 929 267 944 334 c 1,41,-1
 944 496 l 1,42,-1
 520 496 l 2,43,44
 421 496 421 496 388.5 463 c 128,-1,45
 356 430 356 430 356 332 c 0,46,47
 356 233 356 233 388.5 200.5 c 128,-1,48
 421 168 421 168 520 168 c 2,36,-1
EndSplineSet
Substitution2: "'smcp' Lowercase to Small Capitals in Latin lookup 34 subtable" a.sc
Substitution2: "'ss01' Style Set 1 in Latin lookup 28 subtable" a.ss01
Substitution2: "'salt' Stylistic Alternatives in Latin lookup 27 subtable" a.ss01
Substitution2: "Single Substitution lookup 23 subtable" ordfeminine
AlternateSubs2: "'aalt' +BBIEQQQ1 +BDAEOwRMBEIENQRABD0EMARCBDgEMgQ9BEsENQAA +BDIEMARABDgEMAQ9BEIESwAA in Latin lookup 1 subtable" a.ss01 a.sc ordfeminine
EndChar

StartChar: ae
Encoding: 230 230 235
Width: 1952
GlyphClass: 2
Flags: W
AnchorPoint: "+BBEENQQ3BEsEPARPBD0EPQQ+BDUA--2" 992 0 basechar 0
AnchorPoint: "+BBEENQQ3BEsEPARPBD0EPQQ+BDUA--0" 992 1014 basechar 0
LayerCount: 2
Fore
SplineSet
1286 -44 m 2,0,1
 1070 -44 1070 -44 972 128 c 1,2,3
 847 -40 847 -40 592 -40 c 2,4,-1
 520 -40 l 2,5,6
 352 -40 352 -40 270 42 c 128,-1,7
 188 124 188 124 188 292 c 0,8,9
 188 445 188 445 270 524.5 c 128,-1,10
 352 604 352 604 520 604 c 2,11,-1
 904 604 l 1,12,13
 894 720 894 720 845 759 c 128,-1,14
 796 798 796 798 680 798 c 2,15,-1
 604 798 l 2,16,17
 474 798 474 798 426.5 781 c 128,-1,18
 379 764 379 764 372 732 c 0,19,20
 365 698 365 698 344 673 c 128,-1,21
 323 648 323 648 288 648 c 0,22,23
 254 648 254 648 229 673 c 128,-1,24
 204 698 204 698 204 732 c 0,25,26
 204 837 204 837 310.5 901.5 c 128,-1,27
 417 966 417 966 604 966 c 2,28,-1
 680 966 l 2,29,30
 890 966 890 966 988 812 c 1,31,32
 1083 967 1083 967 1288 964 c 2,33,-1
 1408 964 l 2,34,35
 1605 964 1605 964 1698.5 857 c 128,-1,36
 1792 750 1792 750 1792 520 c 0,37,38
 1792 436 1792 436 1706 436 c 2,39,-1
 1072 436 l 1,40,-1
 1072 352 l 2,41,42
 1072 219 1072 219 1118.5 171.5 c 128,-1,43
 1165 124 1165 124 1286 124 c 2,44,-1
 1408 124 l 2,45,46
 1537 124 1537 124 1580.5 151 c 128,-1,47
 1624 178 1624 178 1624 260 c 0,48,49
 1624 295 1624 295 1649 319.5 c 128,-1,50
 1674 344 1674 344 1708 344 c 0,51,52
 1743 344 1743 344 1767.5 319.5 c 128,-1,53
 1792 295 1792 295 1792 260 c 0,54,55
 1792 98 1792 98 1697 27 c 128,-1,56
 1602 -44 1602 -44 1408 -44 c 2,57,-1
 1286 -44 l 2,0,1
520 128 m 2,58,-1
 592 128 l 2,59,60
 756 128 756 128 830 181.5 c 128,-1,61
 904 235 904 235 904 344 c 2,62,-1
 904 436 l 1,63,-1
 520 436 l 2,64,65
 421 436 421 436 388.5 406 c 128,-1,66
 356 376 356 376 356 292 c 0,67,68
 356 193 356 193 388.5 160.5 c 128,-1,69
 421 128 421 128 520 128 c 2,58,-1
1074 604 m 1,70,-1
 1618 604 l 1,71,72
 1606 717 1606 717 1558 756.5 c 128,-1,73
 1510 796 1510 796 1408 796 c 2,74,-1
 1288 796 l 2,75,76
 1177 798 1177 798 1130 759 c 128,-1,77
 1083 720 1083 720 1074 604 c 1,70,-1
EndSplineSet
EndChar

StartChar: b
Encoding: 98 98 237
Width: 1316
GlyphClass: 2
Flags: W
AnchorPoint: "+BBEENQQ3BEsEPARPBD0EPQQ+BDUA--2" 726 0 basechar 0
AnchorPoint: "+BBEENQQ3BEsEPARPBD0EPQQ+BDUA--0" 726 1014 basechar 0
LayerCount: 2
Fore
SplineSet
292 0 m 256,0,1
 208 0 208 0 208 84 c 2,2,-1
 208 1324 l 2,3,4
 208 1408 208 1408 292 1408 c 256,5,6
 376 1408 376 1408 376 1324 c 2,7,-1
 376 907 l 1,8,9
 428 960 428 960 506 987 c 128,-1,10
 584 1014 584 1014 688 1014 c 2,11,-1
 764 1014 l 2,12,13
 964 1014 964 1014 1060 918 c 128,-1,14
 1156 822 1156 822 1156 622 c 2,15,-1
 1156 392 l 2,16,17
 1156 193 1156 193 1060 96.5 c 128,-1,18
 964 0 964 0 764 0 c 2,19,-1
 688 0 l 2,20,21
 584 0 584 0 506 27 c 128,-1,22
 428 54 428 54 376 106 c 1,23,-1
 376 84 l 2,24,25
 376 0 376 0 292 0 c 256,0,1
688 168 m 2,26,-1
 764 168 l 2,27,28
 895 168 895 168 941.5 215.5 c 128,-1,29
 988 263 988 263 988 392 c 2,30,-1
 988 622 l 2,31,32
 988 753 988 753 940.5 799.5 c 128,-1,33
 893 846 893 846 764 846 c 2,34,-1
 688 846 l 2,35,36
 556 846 556 846 466 812.5 c 128,-1,37
 376 779 376 779 376 708 c 2,38,-1
 376 306 l 2,39,40
 376 236 376 236 466 202 c 128,-1,41
 556 168 556 168 688 168 c 2,26,-1
EndSplineSet
EndChar

StartChar: c
Encoding: 99 99 239
Width: 1202
GlyphClass: 2
Flags: W
AnchorPoint: "+BBEENQQ3BEsEPARPBD0EPQQ+BDUA--2" 636 0 basechar 0
AnchorPoint: "+BBEENQQ3BEsEPARPBD0EPQQ+BDUA--0" 632 1014 basechar 0
LayerCount: 2
Fore
SplineSet
552 0 m 2,0,1
 353 0 353 0 256.5 96.5 c 128,-1,2
 160 193 160 193 160 392 c 2,3,-1
 160 624 l 2,4,5
 160 824 160 824 255.5 920 c 128,-1,6
 351 1016 351 1016 552 1014 c 2,7,-1
 716 1014 l 2,8,9
 865 1014 865 1014 950.5 964 c 128,-1,10
 1036 914 1036 914 1060 810 c 0,11,12
 1069 768 1069 768 1045.5 745 c 128,-1,13
 1022 722 1022 722 978 722 c 0,14,15
 939 722 939 722 921 742 c 128,-1,16
 903 762 903 762 888 798 c 0,17,18
 873 825 873 825 833 835.5 c 128,-1,19
 793 846 793 846 716 846 c 2,20,-1
 552 846 l 2,21,22
 423 848 423 848 375.5 801.5 c 128,-1,23
 328 755 328 755 328 624 c 2,24,-1
 328 392 l 2,25,26
 328 262 328 262 375.5 215 c 128,-1,27
 423 168 423 168 552 168 c 2,28,-1
 716 168 l 2,29,30
 793 168 793 168 833 178.5 c 128,-1,31
 873 189 873 189 888 216 c 1,32,33
 903 254 903 254 921.5 273 c 128,-1,34
 940 292 940 292 980 292 c 0,35,36
 1022 292 1022 292 1045.5 269 c 128,-1,37
 1069 246 1069 246 1060 204 c 0,38,39
 1036 101 1036 101 950.5 50.5 c 128,-1,40
 865 0 865 0 716 0 c 2,41,-1
 552 0 l 2,0,1
EndSplineSet
EndChar

StartChar: d
Encoding: 100 100 245
Width: 1296
GlyphClass: 2
Flags: W
AnchorPoint: "+BBEENQQ3BEsEPARPBD0EPQQ+BDUA--4" 936 1190 basechar 0
AnchorPoint: "+BBEENQQ3BEsEPARPBD0EPQQ+BDUA--2" 652 0 basechar 0
AnchorPoint: "+BBEENQQ3BEsEPARPBD0EPQQ+BDUA--1" 1204 1014 basechar 0
AnchorPoint: "+BBEENQQ3BEsEPARPBD0EPQQ+BDUA--0" 706 1014 basechar 0
LayerCount: 2
Fore
SplineSet
552 0 m 2,0,1
 353 0 353 0 256.5 96.5 c 128,-1,2
 160 193 160 193 160 392 c 2,3,-1
 160 622 l 2,4,5
 160 822 160 822 256.5 918 c 128,-1,6
 353 1014 353 1014 552 1014 c 2,7,-1
 940 1014 l 1,8,-1
 940 1324 l 2,9,10
 940 1408 940 1408 1024 1408 c 256,11,12
 1108 1408 1108 1408 1108 1324 c 2,13,-1
 1108 84 l 2,14,15
 1108 0 1108 0 1024 0 c 256,16,17
 940 0 940 0 940 84 c 2,18,-1
 940 98 l 1,19,20
 893 50 893 50 817 25 c 128,-1,21
 741 0 741 0 628 0 c 2,22,-1
 552 0 l 2,0,1
552 168 m 2,23,-1
 628 168 l 2,24,25
 760 168 760 168 850 202 c 128,-1,26
 940 236 940 236 940 306 c 2,27,-1
 940 846 l 1,28,-1
 552 846 l 2,29,30
 422 846 422 846 375 798.5 c 128,-1,31
 328 751 328 751 328 622 c 2,32,-1
 328 392 l 2,33,34
 328 262 328 262 375.5 215 c 128,-1,35
 423 168 423 168 552 168 c 2,23,-1
EndSplineSet
EndChar

StartChar: eth
Encoding: 240 240 246
Width: 1268
Flags: W
LayerCount: 2
Fore
SplineSet
552 0 m 2,0,1
 353 0 353 0 256.5 95.5 c 128,-1,2
 160 191 160 191 160 390 c 2,3,-1
 160 622 l 2,4,5
 160 823 160 823 256.5 918 c 128,-1,6
 353 1013 353 1013 552 1014 c 2,7,-1
 716 1014 l 2,8,9
 778 1014 778 1014 829.5 992 c 128,-1,10
 881 970 881 970 924 926 c 1,11,12
 913 1024 913 1024 893 1077 c 128,-1,13
 873 1130 873 1130 843.5 1153 c 128,-1,14
 814 1176 814 1176 776 1184 c 2,15,-1
 310 1302 l 2,16,17
 227 1324 227 1324 248 1406 c 256,18,19
 269 1488 269 1488 350 1466 c 2,20,-1
 820 1348 l 2,21,22
 967 1314 967 1314 1034 1156.5 c 128,-1,23
 1101 999 1101 999 1108 678 c 1,24,-1
 1108 392 l 2,25,26
 1108 191 1108 191 1012 95.5 c 128,-1,27
 916 0 916 0 716 0 c 2,28,-1
 552 0 l 2,0,1
552 168 m 2,29,-1
 716 168 l 2,30,31
 847 168 847 168 893.5 215 c 128,-1,32
 940 262 940 262 940 392 c 2,33,-1
 940 602 l 2,34,35
 940 695 940 695 923 748 c 128,-1,36
 906 801 906 801 858 823.5 c 128,-1,37
 810 846 810 846 716 846 c 2,38,-1
 552 846 l 2,39,40
 465 845 465 845 416.5 826 c 128,-1,41
 368 807 368 807 348 758.5 c 128,-1,42
 328 710 328 710 328 622 c 2,43,-1
 328 390 l 2,44,45
 328 261 328 261 375 214.5 c 128,-1,46
 422 168 422 168 552 168 c 2,29,-1
520 1116 m 2,47,48
 468 1064 468 1064 418 1118 c 0,49,50
 366 1173 366 1173 420 1220 c 2,51,-1
 714 1498 l 2,52,53
 766 1550 766 1550 816 1496 c 0,54,55
 866 1443 866 1443 814 1394 c 2,56,-1
 520 1116 l 2,47,48
EndSplineSet
EndChar

StartChar: e
Encoding: 101 101 252
Width: 1268
GlyphClass: 2
Flags: W
AnchorPoint: "+BBEENQQ3BEsEPARPBD0EPQQ+BDUA--3" 998 136 basechar 0
AnchorPoint: "+BBEENQQ3BEsEPARPBD0EPQQ+BDUA--2" 636 0 basechar 0
AnchorPoint: "+BBEENQQ3BEsEPARPBD0EPQQ+BDUA--0" 636 1014 basechar 0
LayerCount: 2
Fore
SplineSet
328 438 m 1,0,-1
 328 390 l 2,1,2
 328 261 328 261 375 214.5 c 128,-1,3
 422 168 422 168 552 168 c 2,4,-1
 716 168 l 2,5,6
 818 168 818 168 867 187 c 128,-1,7
 916 206 916 206 932 254 c 0,8,9
 943 292 943 292 962.5 312 c 128,-1,10
 982 332 982 332 1022 332 c 0,11,12
 1064 332 1064 332 1086 310 c 128,-1,13
 1108 288 1108 288 1100 246 c 0,14,15
 1078 122 1078 122 982 61 c 128,-1,16
 886 0 886 0 716 0 c 2,17,-1
 552 0 l 2,18,19
 353 0 353 0 256.5 96 c 128,-1,20
 160 192 160 192 160 390 c 2,21,-1
 160 622 l 2,22,23
 160 825 160 825 256.5 920.5 c 128,-1,24
 353 1016 353 1016 552 1014 c 2,25,-1
 716 1014 l 2,26,27
 916 1014 916 1014 1012 918.5 c 128,-1,28
 1108 823 1108 823 1108 622 c 2,29,-1
 1108 522 l 2,30,31
 1108 438 1108 438 1024 438 c 2,32,-1
 328 438 l 1,0,-1
552 846 m 2,33,34
 422 848 422 848 375 801 c 128,-1,35
 328 754 328 754 328 622 c 2,36,-1
 328 606 l 1,37,-1
 940 606 l 1,38,-1
 940 622 l 2,39,40
 940 753 940 753 893.5 799.5 c 128,-1,41
 847 846 847 846 716 846 c 2,42,-1
 552 846 l 2,33,34
EndSplineSet
Substitution2: "'smcp' Lowercase to Small Capitals in Latin lookup 34 subtable" e.sc
Substitution2: "'aalt' +BBIEQQQ1 +BDAEOwRMBEIENQRABD0EMARCBDgEMgQ9BEsENQAA +BDIEMARABDgEMAQ9BEIESwAA in Latin lookup 0 subtable" e.sc
EndChar

StartChar: f
Encoding: 102 102 273
Width: 772
GlyphClass: 2
Flags: W
AnchorPoint: "+BBEENQQ3BEsEPARPBD0EPQQ+BDUA--2" 386 0 basechar 0
AnchorPoint: "+BBEENQQ3BEsEPARPBD0EPQQ+BDUA--0" 490 1308 basechar 0
LayerCount: 2
Fore
SplineSet
330 0 m 256,0,1
 246 0 246 0 246 84 c 2,2,-1
 246 846 l 1,3,-1
 172 846 l 2,4,5
 88 846 88 846 88 930 c 256,6,7
 88 1014 88 1014 172 1014 c 2,8,-1
 246 1014 l 1,9,-1
 246 1022 l 2,10,11
 246 1219 246 1219 341 1313.5 c 128,-1,12
 436 1408 436 1408 632 1408 c 0,13,14
 704 1408 704 1408 704 1324 c 256,15,16
 704 1240 704 1240 632 1240 c 0,17,18
 506 1240 506 1240 460 1195 c 128,-1,19
 414 1150 414 1150 414 1022 c 2,20,-1
 414 1014 l 1,21,-1
 620 1014 l 2,22,23
 704 1014 704 1014 704 930 c 256,24,25
 704 846 704 846 620 846 c 2,26,-1
 414 846 l 1,27,-1
 414 84 l 2,28,29
 414 0 414 0 330 0 c 256,0,1
EndSplineSet
EndChar

StartChar: g
Encoding: 103 103 275
Width: 1296
GlyphClass: 2
Flags: W
AnchorPoint: "+BBEENQQ3BEsEPARPBD0EPQQ+BDUA--2" 640 -400 basechar 0
AnchorPoint: "+BBEENQQ3BEsEPARPBD0EPQQ+BDUA--0" 624 1014 basechar 0
LayerCount: 2
Fore
SplineSet
448 -400 m 2,0,1
 327 -400 327 -400 257.5 -351 c 128,-1,2
 188 -302 188 -302 168 -202 c 0,3,4
 161 -160 161 -160 183 -136 c 128,-1,5
 205 -112 205 -112 250 -112 c 0,6,7
 288 -112 288 -112 305.5 -132.5 c 128,-1,8
 323 -153 323 -153 336 -194 c 1,9,10
 348 -216 348 -216 373.5 -224 c 128,-1,11
 399 -232 399 -232 448 -232 c 2,12,-1
 820 -232 l 2,13,14
 895 -232 895 -232 917.5 -208.5 c 128,-1,15
 940 -185 940 -185 940 -112 c 2,16,-1
 940 121 l 1,17,18
 886 62 886 62 806.5 31 c 128,-1,19
 727 0 727 0 628 0 c 2,20,-1
 552 0 l 2,21,22
 353 0 353 0 256.5 96 c 128,-1,23
 160 192 160 192 160 390 c 2,24,-1
 160 622 l 2,25,26
 160 823 160 823 255.5 918.5 c 128,-1,27
 351 1014 351 1014 552 1014 c 2,28,-1
 716 1014 l 2,29,30
 787 1014 787 1014 843.5 993 c 128,-1,31
 900 972 900 972 940 929 c 1,32,-1
 940 930 l 2,33,34
 940 1014 940 1014 1024 1014 c 256,35,36
 1108 1014 1108 1014 1108 930 c 2,37,-1
 1108 -112 l 2,38,39
 1108 -259 1108 -259 1037.5 -329.5 c 128,-1,40
 967 -400 967 -400 820 -400 c 2,41,-1
 448 -400 l 2,0,1
552 168 m 2,42,-1
 628 168 l 2,43,44
 760 168 760 168 850 201 c 128,-1,45
 940 234 940 234 940 306 c 2,46,-1
 940 706 l 2,47,48
 940 787 940 787 881.5 816.5 c 128,-1,49
 823 846 823 846 716 846 c 2,50,-1
 552 846 l 2,51,52
 423 846 423 846 375.5 800 c 128,-1,53
 328 754 328 754 328 622 c 2,54,-1
 328 390 l 2,55,56
 328 263 328 263 375 215.5 c 128,-1,57
 422 168 422 168 552 168 c 2,42,-1
EndSplineSet
EndChar

StartChar: h
Encoding: 104 104 281
Width: 1324
GlyphClass: 2
Flags: W
AnchorPoint: "+BBEENQQ3BEsEPARPBD0EPQQ+BDUA--4" 400 1166 basechar 0
AnchorPoint: "+BBEENQQ3BEsEPARPBD0EPQQ+BDUA--2" 674 0 basechar 0
AnchorPoint: "+BBEENQQ3BEsEPARPBD0EPQQ+BDUA--0" 292 1420 basechar 0
LayerCount: 2
Fore
SplineSet
292 0 m 256,0,1
 208 0 208 0 208 84 c 2,2,-1
 208 1324 l 2,3,4
 208 1408 208 1408 292 1408 c 256,5,6
 376 1408 376 1408 376 1324 c 2,7,-1
 376 897 l 1,8,9
 482 1014 482 1014 688 1014 c 2,10,-1
 744 1014 l 2,11,12
 944 1014 944 1014 1040 918 c 128,-1,13
 1136 822 1136 822 1136 622 c 2,14,-1
 1136 84 l 2,15,16
 1136 0 1136 0 1052 0 c 256,17,18
 968 0 968 0 968 84 c 2,19,-1
 968 622 l 2,20,21
 968 753 968 753 920.5 799.5 c 128,-1,22
 873 846 873 846 744 846 c 2,23,-1
 688 846 l 2,24,25
 568 846 568 846 479 818.5 c 128,-1,26
 390 791 390 791 376 732 c 1,27,-1
 376 84 l 2,28,29
 376 0 376 0 292 0 c 256,0,1
EndSplineSet
EndChar

StartChar: dotlessi
Encoding: 305 305 285
Width: 584
GlyphClass: 2
Flags: W
AnchorPoint: "+BBEENQQ3BEsEPARPBD0EPQQ+BDUA--3" 236 14 basechar 0
AnchorPoint: "+BBEENQQ3BEsEPARPBD0EPQQ+BDUA--2" 290 0 basechar 0
AnchorPoint: "+BBEENQQ3BEsEPARPBD0EPQQ+BDUA--0" 290 1014 basechar 0
LayerCount: 2
Fore
SplineSet
292 0 m 256,0,1
 208 0 208 0 208 84 c 2,2,-1
 208 930 l 2,3,4
 208 1014 208 1014 292 1014 c 256,5,6
 376 1014 376 1014 376 930 c 2,7,-1
 376 84 l 2,8,9
 376 0 376 0 292 0 c 256,0,1
EndSplineSet
EndChar

StartChar: uni0237
Encoding: 567 567 300
Width: 584
GlyphClass: 2
Flags: W
AnchorPoint: "+BBEENQQ3BEsEPARPBD0EPQQ+BDUA--2" 40 -400 basechar 0
AnchorPoint: "+BBEENQQ3BEsEPARPBD0EPQQ+BDUA--0" 292 1014 basechar 0
LayerCount: 2
Fore
SplineSet
72 -400 m 0,0,1
 29 -400 29 -400 9.5 -378 c 128,-1,2
 -10 -356 -10 -356 -10 -316 c 0,3,4
 -10 -275 -10 -275 11 -253.5 c 128,-1,5
 32 -232 32 -232 72 -232 c 0,6,7
 153 -232 153 -232 180.5 -204.5 c 128,-1,8
 208 -177 208 -177 208 -96 c 2,9,-1
 208 930 l 2,10,11
 208 1014 208 1014 292 1014 c 256,12,13
 376 1014 376 1014 376 930 c 2,14,-1
 376 -96 l 2,15,16
 376 -250 376 -250 301.5 -325 c 128,-1,17
 227 -400 227 -400 72 -400 c 0,0,1
EndSplineSet
EndChar

StartChar: k
Encoding: 107 107 302
Width: 1016
GlyphClass: 2
Flags: W
AnchorPoint: "+BBEENQQ3BEsEPARPBD0EPQQ+BDUA--2" 510 0 basechar 0
AnchorPoint: "+BBEENQQ3BEsEPARPBD0EPQQ+BDUA--0" 292 1408 basechar 0
LayerCount: 2
Fore
SplineSet
292 0 m 256,0,1
 208 0 208 0 208 84 c 2,2,-1
 208 1324 l 2,3,4
 208 1408 208 1408 292 1408 c 256,5,6
 376 1408 376 1408 376 1324 c 2,7,-1
 376 573 l 1,8,-1
 852 982 l 2,9,10
 916 1037 916 1037 970 974 c 0,11,12
 1025 910 1025 910 962 856 c 2,13,-1
 597 541 l 1,14,-1
 946 144 l 2,15,16
 1002 79 1002 79 940 26 c 0,17,18
 876 -29 876 -29 820 34 c 2,19,-1
 469 430 l 1,20,-1
 376 350 l 1,21,-1
 376 84 l 2,22,23
 376 0 376 0 292 0 c 256,0,1
EndSplineSet
EndChar

StartChar: kgreenlandic
Encoding: 312 312 304
Width: 1016
GlyphClass: 2
Flags: W
AnchorPoint: "+BBEENQQ3BEsEPARPBD0EPQQ+BDUA--2" 530 0 basechar 0
AnchorPoint: "+BBEENQQ3BEsEPARPBD0EPQQ+BDUA--0" 528 1014 basechar 0
LayerCount: 2
Fore
SplineSet
292 0 m 256,0,1
 208 0 208 0 208 84 c 2,2,-1
 208 930 l 2,3,4
 208 1014 208 1014 292 1014 c 256,5,6
 376 1014 376 1014 376 930 c 2,7,-1
 376 573 l 1,8,-1
 852 982 l 2,9,10
 913 1037 913 1037 972 972 c 0,11,12
 998 944 998 944 995 913 c 128,-1,13
 992 882 992 882 962 856 c 2,14,-1
 597 541 l 1,15,-1
 946 144 l 2,16,17
 1001 83 1001 83 938 26 c 0,18,19
 910 -1 910 -1 878.5 1.5 c 128,-1,20
 847 4 847 4 820 32 c 2,21,-1
 469 430 l 1,22,-1
 376 350 l 1,23,-1
 376 84 l 2,24,25
 376 0 376 0 292 0 c 256,0,1
EndSplineSet
EndChar

StartChar: l
Encoding: 108 108 305
Width: 686
GlyphClass: 2
Flags: W
AnchorPoint: "+BBEENQQ3BEsEPARPBD0EPQQ+BDUA--4" 330 726 basechar 0
AnchorPoint: "+BBEENQQ3BEsEPARPBD0EPQQ+BDUA--2" 434 0 basechar 0
AnchorPoint: "+BBEENQQ3BEsEPARPBD0EPQQ+BDUA--1" 464 1014 basechar 0
AnchorPoint: "+BBEENQQ3BEsEPARPBD0EPQQ+BDUA--0" 292 1408 basechar 0
LayerCount: 2
Fore
SplineSet
510 0 m 0,0,1
 357 0 357 0 282.5 75.5 c 128,-1,2
 208 151 208 151 208 304 c 2,3,-1
 208 1324 l 2,4,5
 208 1408 208 1408 292 1408 c 256,6,7
 376 1408 376 1408 376 1324 c 2,8,-1
 376 304 l 2,9,10
 376 223 376 223 402.5 195.5 c 128,-1,11
 429 168 429 168 510 168 c 0,12,13
 596 168 596 168 596 84 c 0,14,15
 599 0 599 0 510 0 c 0,0,1
EndSplineSet
EndChar

StartChar: lslash
Encoding: 322 322 311
Width: 712
GlyphClass: 2
Flags: W
AnchorPoint: "+BBEENQQ3BEsEPARPBD0EPQQ+BDUA--4" 330 726 basechar 0
AnchorPoint: "+BBEENQQ3BEsEPARPBD0EPQQ+BDUA--2" 434 0 basechar 0
AnchorPoint: "+BBEENQQ3BEsEPARPBD0EPQQ+BDUA--1" 464 1014 basechar 0
AnchorPoint: "+BBEENQQ3BEsEPARPBD0EPQQ+BDUA--0" 292 1408 basechar 0
LayerCount: 2
Fore
SplineSet
64 470 m 256,0,1
 42 470 42 470 25 487.5 c 128,-1,2
 8 505 8 505 8 526 c 0,3,4
 8 555 8 555 32 572 c 2,5,-1
 542 952 l 2,6,7
 554 964 554 964 576 964 c 0,8,9
 599 964 599 964 615.5 947.5 c 128,-1,10
 632 931 632 931 632 908 c 0,11,12
 632 877 632 877 608 862 c 2,13,-1
 98 482 l 2,14,15
 86 470 86 470 64 470 c 256,0,1
510 0 m 0,16,17
 357 0 357 0 282.5 75.5 c 128,-1,18
 208 151 208 151 208 304 c 2,19,-1
 208 1324 l 2,20,21
 208 1408 208 1408 292 1408 c 256,22,23
 376 1408 376 1408 376 1324 c 2,24,-1
 376 304 l 2,25,26
 376 223 376 223 402.5 195.5 c 128,-1,27
 429 168 429 168 510 168 c 0,28,29
 596 168 596 168 596 84 c 0,30,31
 599 0 599 0 510 0 c 0,16,17
EndSplineSet
EndChar

StartChar: m
Encoding: 109 109 312
Width: 1860
GlyphClass: 2
Flags: W
AnchorPoint: "+BBEENQQ3BEsEPARPBD0EPQQ+BDUA--2" 944 0 basechar 0
AnchorPoint: "+BBEENQQ3BEsEPARPBD0EPQQ+BDUA--0" 938 1014 basechar 0
LayerCount: 2
Fore
SplineSet
1318 1014 m 2,0,1
 1507 1014 1507 1014 1589.5 925 c 128,-1,2
 1672 836 1672 836 1672 630 c 2,3,-1
 1672 84 l 2,4,5
 1672 0 1672 0 1588 0 c 256,6,7
 1504 0 1504 0 1504 84 c 2,8,-1
 1504 630 l 2,9,10
 1504 744 1504 744 1460.5 795 c 128,-1,11
 1417 846 1417 846 1318 846 c 2,12,-1
 1236 846 l 2,13,14
 1122 846 1122 846 1073 795 c 128,-1,15
 1024 744 1024 744 1024 630 c 2,16,-1
 1024 84 l 2,17,18
 1024 0 1024 0 940 0 c 256,19,20
 856 0 856 0 856 84 c 2,21,-1
 856 630 l 2,22,23
 856 744 856 744 812.5 795 c 128,-1,24
 769 846 769 846 670 846 c 2,25,-1
 588 846 l 2,26,27
 474 846 474 846 425 795 c 128,-1,28
 376 744 376 744 376 630 c 2,29,-1
 376 84 l 2,30,31
 376 0 376 0 292 0 c 256,32,33
 208 0 208 0 208 84 c 2,34,-1
 208 930 l 2,35,36
 208 1014 208 1014 292 1014 c 256,37,38
 376 1014 376 1014 376 930 c 2,39,-1
 376 884 l 1,40,41
 429 953 429 953 492.5 983.5 c 128,-1,42
 556 1014 556 1014 644 1014 c 2,43,-1
 670 1014 l 2,44,45
 794 1014 794 1014 865 979.5 c 128,-1,46
 936 945 936 945 973 868 c 1,47,48
 1026 947 1026 947 1085.5 980.5 c 128,-1,49
 1145 1014 1145 1014 1236 1014 c 2,50,-1
 1318 1014 l 2,0,1
EndSplineSet
EndChar

StartChar: n
Encoding: 110 110 314
Width: 1324
GlyphClass: 2
Flags: W
AnchorPoint: "+BBEENQQ3BEsEPARPBD0EPQQ+BDUA--2" 706 0 basechar 0
AnchorPoint: "+BBEENQQ3BEsEPARPBD0EPQQ+BDUA--0" 714 1014 basechar 0
LayerCount: 2
Fore
SplineSet
292 0 m 256,0,1
 208 0 208 0 208 84 c 2,2,-1
 208 930 l 2,3,4
 208 1014 208 1014 292 1014 c 256,5,6
 376 1014 376 1014 376 930 c 2,7,-1
 376 897 l 1,8,9
 482 1014 482 1014 688 1014 c 2,10,-1
 744 1014 l 2,11,12
 944 1014 944 1014 1040 918 c 128,-1,13
 1136 822 1136 822 1136 622 c 2,14,-1
 1136 84 l 2,15,16
 1136 0 1136 0 1052 0 c 256,17,18
 968 0 968 0 968 84 c 2,19,-1
 968 622 l 2,20,21
 968 753 968 753 920.5 799.5 c 128,-1,22
 873 846 873 846 744 846 c 2,23,-1
 688 846 l 2,24,25
 568 846 568 846 479 818.5 c 128,-1,26
 390 791 390 791 376 732 c 1,27,-1
 376 84 l 2,28,29
 376 0 376 0 292 0 c 256,0,1
EndSplineSet
EndChar

StartChar: eng
Encoding: 331 331 318
Width: 1324
GlyphClass: 2
Flags: W
AnchorPoint: "+BBEENQQ3BEsEPARPBD0EPQQ+BDUA--2" 706 0 basechar 0
AnchorPoint: "+BBEENQQ3BEsEPARPBD0EPQQ+BDUA--0" 714 1014 basechar 0
LayerCount: 2
Fore
SplineSet
656 -398 m 2,0,1
 540 -398 540 -398 464.5 -352 c 128,-1,2
 389 -306 389 -306 376 -216 c 0,3,4
 364 -128 364 -128 438 -128 c 0,5,6
 473 -128 473 -128 496 -145 c 128,-1,7
 519 -162 519 -162 529 -190 c 0,8,9
 537 -212 537 -212 563 -221 c 128,-1,10
 589 -230 589 -230 656 -230 c 2,11,-1
 848 -230 l 2,12,13
 923 -230 923 -230 945.5 -206.5 c 128,-1,14
 968 -183 968 -183 968 -110 c 2,15,-1
 968 622 l 2,16,17
 968 753 968 753 920.5 799.5 c 128,-1,18
 873 846 873 846 744 846 c 2,19,-1
 688 846 l 2,20,21
 568 846 568 846 479 818.5 c 128,-1,22
 390 791 390 791 376 732 c 1,23,-1
 376 84 l 2,24,25
 376 0 376 0 292 0 c 256,26,27
 208 0 208 0 208 84 c 2,28,-1
 208 930 l 2,29,30
 208 1014 208 1014 292 1014 c 256,31,32
 376 1014 376 1014 376 930 c 2,33,-1
 376 897 l 1,34,35
 482 1014 482 1014 688 1014 c 2,36,-1
 744 1014 l 2,37,38
 944 1014 944 1014 1040 918 c 128,-1,39
 1136 822 1136 822 1136 622 c 2,40,-1
 1136 -110 l 2,41,42
 1136 -255 1136 -255 1065.5 -326.5 c 128,-1,43
 995 -398 995 -398 848 -398 c 2,44,-1
 656 -398 l 2,0,1
EndSplineSet
EndChar

StartChar: o
Encoding: 111 111 321
Width: 1268
GlyphClass: 2
Flags: W
AnchorPoint: "+BBEENQQ3BEsEPARPBD0EPQQ+BDUA--4" 634 506 basechar 0
AnchorPoint: "+BBEENQQ3BEsEPARPBD0EPQQ+BDUA--3" 944 66 basechar 0
AnchorPoint: "+BBEENQQ3BEsEPARPBD0EPQQ+BDUA--2" 634 0 basechar 0
AnchorPoint: "+BBEENQQ3BEsEPARPBD0EPQQ+BDUA--1" 962 902 basechar 0
AnchorPoint: "+BBEENQQ3BEsEPARPBD0EPQQ+BDUA--0" 634 1014 basechar 0
LayerCount: 2
Fore
SplineSet
552 0 m 2,0,1
 353 0 353 0 256.5 96 c 128,-1,2
 160 192 160 192 160 390 c 2,3,-1
 160 622 l 2,4,5
 160 823 160 823 256.5 918.5 c 128,-1,6
 353 1014 353 1014 552 1014 c 2,7,-1
 716 1014 l 2,8,9
 916 1014 916 1014 1012 918 c 128,-1,10
 1108 822 1108 822 1108 622 c 2,11,-1
 1108 392 l 2,12,13
 1108 193 1108 193 1012 96.5 c 128,-1,14
 916 0 916 0 716 0 c 2,15,-1
 552 0 l 2,0,1
328 390 m 2,16,17
 328 261 328 261 375 214.5 c 128,-1,18
 422 168 422 168 552 168 c 2,19,-1
 716 168 l 2,20,21
 847 168 847 168 893.5 215 c 128,-1,22
 940 262 940 262 940 392 c 2,23,-1
 940 622 l 2,24,25
 940 753 940 753 893.5 799.5 c 128,-1,26
 847 846 847 846 716 846 c 2,27,-1
 552 846 l 2,28,29
 465 846 465 846 416.5 826.5 c 128,-1,30
 368 807 368 807 348 758.5 c 128,-1,31
 328 710 328 710 328 622 c 2,32,-1
 328 390 l 2,16,17
EndSplineSet
Substitution2: "'smcp' Lowercase to Small Capitals in Latin lookup 34 subtable" o.sc
Substitution2: "Single Substitution lookup 23 subtable" ordmasculine
AlternateSubs2: "'aalt' +BBIEQQQ1 +BDAEOwRMBEIENQRABD0EMARCBDgEMgQ9BEsENQAA +BDIEMARABDgEMAQ9BEIESwAA in Latin lookup 1 subtable" o.sc ordmasculine
EndChar

StartChar: oslash
Encoding: 248 248 347
Width: 1268
GlyphClass: 2
Flags: W
AnchorPoint: "+BBEENQQ3BEsEPARPBD0EPQQ+BDUA--4" 634 506 basechar 0
AnchorPoint: "+BBEENQQ3BEsEPARPBD0EPQQ+BDUA--3" 944 66 basechar 0
AnchorPoint: "+BBEENQQ3BEsEPARPBD0EPQQ+BDUA--2" 634 0 basechar 0
AnchorPoint: "+BBEENQQ3BEsEPARPBD0EPQQ+BDUA--1" 962 902 basechar 0
AnchorPoint: "+BBEENQQ3BEsEPARPBD0EPQQ+BDUA--0" 634 1014 basechar 0
LayerCount: 2
Fore
SplineSet
234 -122 m 0,0,1
 206 -101 206 -101 200 -77.5 c 128,-1,2
 194 -54 194 -54 212 -24 c 2,3,-1
 298 114 l 1,4,-1
 328 142 l 1,5,-1
 814 914 l 1,6,-1
 824 942 l 1,7,-1
 898 1062 l 2,8,9
 939 1126 939 1126 1002 1084 c 1,10,11
 1056 1042 1056 1042 1020 986 c 2,12,-1
 952 876 l 1,13,-1
 922 842 l 1,14,-1
 456 100 l 1,15,-1
 436 60 l 1,16,-1
 338 -98 l 2,17,18
 298 -165 298 -165 234 -122 c 0,0,1
552 0 m 2,19,20
 353 0 353 0 256.5 96 c 128,-1,21
 160 192 160 192 160 390 c 2,22,-1
 160 622 l 2,23,24
 160 823 160 823 256.5 918.5 c 128,-1,25
 353 1014 353 1014 552 1014 c 2,26,-1
 716 1014 l 2,27,28
 916 1014 916 1014 1012 918 c 128,-1,29
 1108 822 1108 822 1108 622 c 2,30,-1
 1108 392 l 2,31,32
 1108 193 1108 193 1012 96.5 c 128,-1,33
 916 0 916 0 716 0 c 2,34,-1
 552 0 l 2,19,20
328 390 m 2,35,36
 328 261 328 261 375 214.5 c 128,-1,37
 422 168 422 168 552 168 c 2,38,-1
 716 168 l 2,39,40
 847 168 847 168 893.5 215 c 128,-1,41
 940 262 940 262 940 392 c 2,42,-1
 940 622 l 2,43,44
 940 753 940 753 893.5 799.5 c 128,-1,45
 847 846 847 846 716 846 c 2,46,-1
 552 846 l 2,47,48
 465 846 465 846 416.5 826.5 c 128,-1,49
 368 807 368 807 348 758.5 c 128,-1,50
 328 710 328 710 328 622 c 2,51,-1
 328 390 l 2,35,36
EndSplineSet
EndChar

StartChar: oe
Encoding: 339 339 351
Width: 1928
GlyphClass: 2
Flags: W
AnchorPoint: "+BBEENQQ3BEsEPARPBD0EPQQ+BDUA--2" 996 0 basechar 0
AnchorPoint: "+BBEENQQ3BEsEPARPBD0EPQQ+BDUA--0" 996 1014 basechar 0
LayerCount: 2
Fore
SplineSet
552 -40 m 2,0,1
 353 -40 353 -40 256.5 56 c 128,-1,2
 160 152 160 152 160 350 c 2,3,-1
 160 574 l 2,4,5
 160 775 160 775 256.5 871 c 128,-1,6
 353 967 353 967 552 967 c 2,7,-1
 656 967 l 2,8,9
 761 967 761 967 837.5 934.5 c 128,-1,10
 914 902 914 902 962 806 c 1,11,12
 1010 901 1010 901 1085.5 934 c 128,-1,13
 1161 967 1161 967 1264 967 c 2,14,-1
 1384 967 l 2,15,16
 1582 967 1582 967 1675 855.5 c 128,-1,17
 1768 744 1768 744 1768 569 c 0,18,19
 1768 505 1768 505 1756.5 478 c 128,-1,20
 1745 451 1745 451 1726 445.5 c 128,-1,21
 1707 440 1707 440 1682 440 c 2,22,-1
 1048 440 l 1,23,-1
 1048 356 l 2,24,25
 1048 223 1048 223 1094.5 175.5 c 128,-1,26
 1141 128 1141 128 1262 128 c 2,27,-1
 1384 128 l 2,28,29
 1452 128 1452 128 1489.5 130.5 c 128,-1,30
 1527 133 1527 133 1546 146 c 128,-1,31
 1565 159 1565 159 1575.5 189 c 128,-1,32
 1586 219 1586 219 1600 274 c 0,33,34
 1608 306 1608 306 1622 332 c 128,-1,35
 1636 358 1636 358 1684 358 c 0,36,37
 1719 358 1719 358 1743.5 335.5 c 128,-1,38
 1768 313 1768 313 1768 242 c 0,39,40
 1768 157 1768 157 1734 104 c 128,-1,41
 1700 51 1700 51 1648 21 c 128,-1,42
 1596 -9 1596 -9 1541 -22 c 128,-1,43
 1486 -35 1486 -35 1443 -37.5 c 128,-1,44
 1400 -40 1400 -40 1384 -40 c 2,45,-1
 1262 -40 l 2,46,47
 1160 -40 1160 -40 1086 -6 c 128,-1,48
 1012 28 1012 28 964 122 c 1,49,50
 915 28 915 28 838 -6 c 128,-1,51
 761 -40 761 -40 656 -40 c 2,52,-1
 552 -40 l 2,0,1
552 128 m 2,53,-1
 656 128 l 2,54,55
 787 128 787 128 833.5 175 c 128,-1,56
 880 222 880 222 880 352 c 2,57,-1
 880 574 l 2,58,59
 880 705 880 705 833.5 752 c 128,-1,60
 787 799 787 799 656 799 c 2,61,-1
 552 799 l 2,62,63
 422 799 422 799 375 752.5 c 128,-1,64
 328 706 328 706 328 574 c 2,65,-1
 328 350 l 2,66,67
 328 221 328 221 375 174.5 c 128,-1,68
 422 128 422 128 552 128 c 2,53,-1
1048 608 m 1,69,-1
 1598 608 l 1,70,71
 1586 718 1586 718 1537 758.5 c 128,-1,72
 1488 799 1488 799 1384 799 c 2,73,-1
 1264 799 l 2,74,75
 1149 799 1149 799 1101 760.5 c 128,-1,76
 1053 722 1053 722 1048 608 c 1,69,-1
EndSplineSet
EndChar

StartChar: p
Encoding: 112 112 352
Width: 1316
GlyphClass: 2
Flags: W
AnchorPoint: "+BBEENQQ3BEsEPARPBD0EPQQ+BDUA--4" 704 468 basechar 0
AnchorPoint: "+BBEENQQ3BEsEPARPBD0EPQQ+BDUA--2" 692 0 basechar 0
AnchorPoint: "+BBEENQQ3BEsEPARPBD0EPQQ+BDUA--0" 730 1014 basechar 0
LayerCount: 2
Fore
SplineSet
292 -400 m 256,0,1
 208 -400 208 -400 208 -316 c 2,2,-1
 208 930 l 2,3,4
 208 1014 208 1014 292 1014 c 256,5,6
 376 1014 376 1014 376 930 c 2,7,-1
 376 905 l 1,8,9
 430 959 430 959 509.5 986.5 c 128,-1,10
 589 1014 589 1014 688 1014 c 2,11,-1
 764 1014 l 2,12,13
 964 1014 964 1014 1060 918 c 128,-1,14
 1156 822 1156 822 1156 622 c 2,15,-1
 1156 392 l 2,16,17
 1156 193 1156 193 1060 96.5 c 128,-1,18
 964 0 964 0 764 0 c 2,19,-1
 376 0 l 1,20,-1
 376 -316 l 2,21,22
 376 -400 376 -400 292 -400 c 256,0,1
376 168 m 1,23,-1
 764 168 l 2,24,25
 895 168 895 168 941.5 215 c 128,-1,26
 988 262 988 262 988 392 c 2,27,-1
 988 622 l 2,28,29
 988 753 988 753 941.5 799.5 c 128,-1,30
 895 846 895 846 764 846 c 2,31,-1
 688 846 l 2,32,33
 563 846 563 846 472 816 c 128,-1,34
 381 786 381 786 376 721 c 1,35,-1
 376 168 l 1,23,-1
EndSplineSet
EndChar

StartChar: thorn
Encoding: 254 254 354
Width: 1316
Flags: W
LayerCount: 2
Fore
SplineSet
292 -400 m 0,0,1
 246 -400 246 -400 227 -381 c 128,-1,2
 208 -362 208 -362 208 -316 c 2,3,-1
 208 1288 l 2,4,5
 208 1335 208 1335 227 1353.5 c 128,-1,6
 246 1372 246 1372 292 1372 c 0,7,8
 339 1372 339 1372 357.5 1353.5 c 128,-1,9
 376 1335 376 1335 376 1288 c 2,10,-1
 376 872 l 1,11,12
 497 1008 497 1008 688 1008 c 2,13,-1
 764 1008 l 2,14,15
 964 1008 964 1008 1060 912 c 128,-1,16
 1156 816 1156 816 1156 616 c 2,17,-1
 1156 394 l 2,18,19
 1156 195 1156 195 1060 98.5 c 128,-1,20
 964 2 964 2 764 2 c 2,21,-1
 376 2 l 1,22,-1
 376 -316 l 2,23,24
 376 -362 376 -362 357.5 -381 c 128,-1,25
 339 -400 339 -400 292 -400 c 0,0,1
376 170 m 1,26,-1
 764 170 l 2,27,28
 895 170 895 170 941.5 217 c 128,-1,29
 988 264 988 264 988 394 c 2,30,-1
 988 616 l 2,31,32
 988 747 988 747 941.5 793.5 c 128,-1,33
 895 840 895 840 764 840 c 2,34,-1
 688 840 l 2,35,36
 525 840 525 840 450.5 787 c 128,-1,37
 376 734 376 734 376 624 c 2,38,-1
 376 170 l 1,26,-1
EndSplineSet
EndChar

StartChar: q
Encoding: 113 113 355
Width: 1296
GlyphClass: 2
Flags: W
AnchorPoint: "+BBEENQQ3BEsEPARPBD0EPQQ+BDUA--2" 670 0 basechar 0
AnchorPoint: "+BBEENQQ3BEsEPARPBD0EPQQ+BDUA--0" 670 1014 basechar 0
LayerCount: 2
Fore
SplineSet
1024 -400 m 256,0,1
 940 -400 940 -400 940 -316 c 2,2,-1
 940 0 l 1,3,-1
 552 0 l 2,4,5
 353 0 353 0 256.5 96.5 c 128,-1,6
 160 193 160 193 160 392 c 2,7,-1
 160 622 l 2,8,9
 160 822 160 822 256.5 918 c 128,-1,10
 353 1014 353 1014 552 1014 c 2,11,-1
 628 1014 l 2,12,13
 740 1014 740 1014 817.5 984.5 c 128,-1,14
 895 955 895 955 940 902 c 1,15,-1
 940 930 l 2,16,17
 940 1014 940 1014 1024 1014 c 256,18,19
 1108 1014 1108 1014 1108 930 c 2,20,-1
 1108 -316 l 2,21,22
 1108 -400 1108 -400 1024 -400 c 256,0,1
552 168 m 2,23,-1
 940 168 l 1,24,-1
 940 706 l 2,25,26
 940 778 940 778 850 812 c 128,-1,27
 760 846 760 846 628 846 c 2,28,-1
 552 846 l 2,29,30
 422 846 422 846 375 799.5 c 128,-1,31
 328 753 328 753 328 622 c 2,32,-1
 328 392 l 2,33,34
 328 262 328 262 375 215 c 128,-1,35
 422 168 422 168 552 168 c 2,23,-1
EndSplineSet
EndChar

StartChar: r
Encoding: 114 114 356
Width: 854
GlyphClass: 2
Flags: W
AnchorPoint: "+BBEENQQ3BEsEPARPBD0EPQQ+BDUA--2" 292 0 basechar 0
AnchorPoint: "+BBEENQQ3BEsEPARPBD0EPQQ+BDUA--0" 500 1014 basechar 0
LayerCount: 2
Fore
SplineSet
292 0 m 256,0,1
 208 0 208 0 208 84 c 2,2,-1
 208 930 l 2,3,4
 208 1014 208 1014 292 1014 c 256,5,6
 376 1014 376 1014 376 930 c 2,7,-1
 376 852 l 1,8,9
 435 932 435 932 526.5 973 c 128,-1,10
 618 1014 618 1014 736 1014 c 0,11,12
 820 1014 820 1014 820 930 c 256,13,14
 820 846 820 846 736 846 c 0,15,16
 563 846 563 846 472 782 c 128,-1,17
 381 718 381 718 376 613 c 1,18,-1
 376 84 l 2,19,20
 376 0 376 0 292 0 c 256,0,1
EndSplineSet
EndChar

StartChar: s
Encoding: 115 115 362
Width: 1222
GlyphClass: 2
Flags: W
AnchorPoint: "+BBEENQQ3BEsEPARPBD0EPQQ+BDUA--2" 632 0 basechar 0
AnchorPoint: "+BBEENQQ3BEsEPARPBD0EPQQ+BDUA--0" 632 1014 basechar 0
LayerCount: 2
Fore
SplineSet
446 0 m 2,0,1
 319 0 319 0 245 52.5 c 128,-1,2
 171 105 171 105 150 210 c 0,3,4
 143 252 143 252 166.5 276 c 128,-1,5
 190 300 190 300 232 300 c 0,6,7
 273 300 273 300 291.5 279.5 c 128,-1,8
 310 259 310 259 322 218 c 0,9,10
 334 188 334 188 362.5 178 c 128,-1,11
 391 168 391 168 446 168 c 2,12,-1
 774 168 l 2,13,14
 852 168 852 168 879 193.5 c 128,-1,15
 906 219 906 219 906 300 c 0,16,17
 906 380 906 380 879 406 c 128,-1,18
 852 432 852 432 774 432 c 2,19,-1
 452 432 l 2,20,21
 308 432 308 432 235 505 c 128,-1,22
 162 578 162 578 162 722 c 0,23,24
 162 869 162 869 233.5 941.5 c 128,-1,25
 305 1014 305 1014 452 1014 c 2,26,-1
 764 1014 l 2,27,28
 999 1014 999 1014 1042 816 c 0,29,30
 1050 774 1050 774 1026 751 c 128,-1,31
 1002 728 1002 728 960 728 c 0,32,33
 921 728 921 728 902 748.5 c 128,-1,34
 883 769 883 769 872 806 c 1,35,36
 860 830 860 830 835.5 838 c 128,-1,37
 811 846 811 846 764 846 c 2,38,-1
 452 846 l 2,39,40
 376 846 376 846 353 823 c 128,-1,41
 330 800 330 800 330 722 c 0,42,43
 330 650 330 650 354.5 625 c 128,-1,44
 379 600 379 600 452 600 c 2,45,-1
 774 600 l 2,46,47
 924 600 924 600 999 525 c 128,-1,48
 1074 450 1074 450 1074 300 c 0,49,50
 1074 149 1074 149 999 74.5 c 128,-1,51
 924 0 924 0 774 0 c 2,52,-1
 446 0 l 2,0,1
EndSplineSet
EndChar

StartChar: germandbls
Encoding: 223 223 369
Width: 1174
Flags: W
LayerCount: 2
Fore
SplineSet
292 0 m 256,0,1
 208 0 208 0 208 84 c 2,2,-1
 208 1038 l 2,3,4
 208 1226 208 1226 299.5 1317 c 128,-1,5
 391 1408 391 1408 578 1408 c 0,6,7
 764 1408 764 1408 855 1317 c 128,-1,8
 946 1226 946 1226 946 1040 c 0,9,10
 946 967 946 967 915.5 901 c 128,-1,11
 885 835 885 835 796 790 c 1,12,13
 946 756 946 756 1006 671 c 128,-1,14
 1066 586 1066 586 1066 452 c 2,15,-1
 1066 388 l 2,16,17
 1066 189 1066 189 971 94.5 c 128,-1,18
 876 0 876 0 678 0 c 2,19,-1
 556 0 l 2,20,21
 472 0 472 0 472 84 c 256,22,23
 472 168 472 168 556 168 c 2,24,-1
 678 168 l 2,25,26
 807 168 807 168 852.5 213.5 c 128,-1,27
 898 259 898 259 898 388 c 2,28,-1
 898 452 l 2,29,30
 898 581 898 581 852.5 626.5 c 128,-1,31
 807 672 807 672 678 672 c 2,32,-1
 662 672 l 2,33,34
 578 672 578 672 578 758 c 0,35,36
 578 835 578 835 660 844 c 1,37,38
 729 856 729 856 753.5 901.5 c 128,-1,39
 778 947 778 947 778 1040 c 0,40,41
 778 1157 778 1157 736.5 1198.5 c 128,-1,42
 695 1240 695 1240 578 1240 c 0,43,44
 460 1240 460 1240 418 1198.5 c 128,-1,45
 376 1157 376 1157 376 1038 c 2,46,-1
 376 84 l 2,47,48
 376 0 376 0 292 0 c 256,0,1
EndSplineSet
Substitution2: "Single Substitution lookup 32 subtable" germandbls.calt
Substitution2: "Single Substitution lookup 31 subtable" germandbls.calt
Substitution2: "'aalt' +BBIEQQQ1 +BDAEOwRMBEIENQRABD0EMARCBDgEMgQ9BEsENQAA +BDIEMARABDgEMAQ9BEIESwAA in Latin lookup 0 subtable" germandbls.calt
EndChar

StartChar: t
Encoding: 116 116 370
Width: 838
GlyphClass: 2
Flags: W
AnchorPoint: "+BBEENQQ3BEsEPARPBD0EPQQ+BDUA--4" 392 622 basechar 0
AnchorPoint: "+BBEENQQ3BEsEPARPBD0EPQQ+BDUA--2" 374 0 basechar 0
AnchorPoint: "+BBEENQQ3BEsEPARPBD0EPQQ+BDUA--1" 484 1014 basechar 0
AnchorPoint: "+BBEENQQ3BEsEPARPBD0EPQQ+BDUA--0" 334 1244 basechar 0
LayerCount: 2
Fore
SplineSet
636 0 m 0,0,1
 438 0 438 0 344 94 c 128,-1,2
 250 188 250 188 250 384 c 2,3,-1
 250 846 l 1,4,-1
 152 846 l 2,5,6
 68 846 68 846 68 930 c 256,7,8
 68 1014 68 1014 152 1014 c 2,9,-1
 250 1014 l 1,10,-1
 250 1160 l 2,11,12
 250 1244 250 1244 334 1244 c 256,13,14
 418 1244 418 1244 418 1160 c 2,15,-1
 418 1014 l 1,16,-1
 648 1014 l 2,17,18
 732 1014 732 1014 732 930 c 256,19,20
 732 846 732 846 648 846 c 2,21,-1
 418 846 l 1,22,-1
 418 384 l 2,23,24
 418 257 418 257 464 212.5 c 128,-1,25
 510 168 510 168 636 168 c 0,26,27
 675 168 675 168 697.5 148 c 128,-1,28
 720 128 720 128 720 84 c 0,29,30
 720 0 720 0 636 0 c 0,0,1
EndSplineSet
EndChar

StartChar: tbar
Encoding: 359 359 371
Width: 818
GlyphClass: 2
Flags: W
AnchorPoint: "+BBEENQQ3BEsEPARPBD0EPQQ+BDUA--4" 392 622 basechar 0
AnchorPoint: "+BBEENQQ3BEsEPARPBD0EPQQ+BDUA--2" 374 0 basechar 0
AnchorPoint: "+BBEENQQ3BEsEPARPBD0EPQQ+BDUA--1" 484 1014 basechar 0
AnchorPoint: "+BBEENQQ3BEsEPARPBD0EPQQ+BDUA--0" 334 1244 basechar 0
LayerCount: 2
Fore
SplineSet
138 552 m 2,0,1
 68 552 68 552 68 622 c 256,2,3
 68 692 68 692 138 692 c 2,4,-1
 662 692 l 2,5,6
 732 692 732 692 732 622 c 256,7,8
 732 552 732 552 662 552 c 2,9,-1
 138 552 l 2,0,1
636 0 m 0,10,11
 438 0 438 0 344 94 c 128,-1,12
 250 188 250 188 250 384 c 2,13,-1
 250 846 l 1,14,-1
 152 846 l 2,15,16
 68 846 68 846 68 930 c 256,17,18
 68 1014 68 1014 152 1014 c 2,19,-1
 250 1014 l 1,20,-1
 250 1160 l 2,21,22
 250 1244 250 1244 334 1244 c 256,23,24
 418 1244 418 1244 418 1160 c 2,25,-1
 418 1014 l 1,26,-1
 648 1014 l 2,27,28
 732 1014 732 1014 732 930 c 256,29,30
 732 846 732 846 648 846 c 2,31,-1
 418 846 l 1,32,-1
 418 384 l 2,33,34
 418 257 418 257 464 212.5 c 128,-1,35
 510 168 510 168 636 168 c 0,36,37
 675 168 675 168 697.5 148 c 128,-1,38
 720 128 720 128 720 84 c 0,39,40
 720 0 720 0 636 0 c 0,10,11
EndSplineSet
EndChar

StartChar: v
Encoding: 118 118 397
Width: 1052
GlyphClass: 2
Flags: W
AnchorPoint: "+BBEENQQ3BEsEPARPBD0EPQQ+BDUA--2" 530 0 basechar 0
AnchorPoint: "+BBEENQQ3BEsEPARPBD0EPQQ+BDUA--0" 526 1014 basechar 0
LayerCount: 2
Fore
SplineSet
604 62 m 2,0,1
 591 31 591 31 567.5 15.5 c 128,-1,2
 544 0 544 0 508 0 c 0,3,4
 445 0 445 0 418 66 c 2,5,-1
 78 894 l 2,6,7
 43 974 43 974 122 1004 c 1,8,9
 197 1039 197 1039 232 960 c 2,10,-1
 550 184 l 1,11,-1
 472 184 l 1,12,-1
 820 964 l 2,13,14
 837 997 837 997 866.5 1009 c 128,-1,15
 896 1021 896 1021 932 1004 c 0,16,17
 1006 969 1006 969 972 892 c 2,18,-1
 604 62 l 2,0,1
EndSplineSet
EndChar

StartChar: w
Encoding: 119 119 398
Width: 1502
GlyphClass: 2
Flags: W
AnchorPoint: "+BBEENQQ3BEsEPARPBD0EPQQ+BDUA--2" 740 0 basechar 0
AnchorPoint: "+BBEENQQ3BEsEPARPBD0EPQQ+BDUA--0" 740 1014 basechar 0
LayerCount: 2
Fore
SplineSet
440 0 m 0,0,1
 374 0 374 0 352 68 c 2,2,-1
 74 904 l 2,3,4
 48 980 48 980 128 1008 c 0,5,6
 207 1035 207 1035 234 954 c 2,7,-1
 460 281 l 1,8,-1
 447 281 l 1,9,-1
 660 954 l 2,10,11
 682 1020 682 1020 756 1020 c 0,12,13
 826 1020 826 1020 846 950 c 2,14,-1
 1045 288 l 1,15,-1
 1037 288 l 1,16,-1
 1268 956 l 2,17,18
 1297 1037 1297 1037 1376 1008 c 0,19,20
 1455 980 1455 980 1426 900 c 2,21,-1
 1122 68 l 2,22,23
 1097 0 1097 0 1028 0 c 0,24,25
 957 0 957 0 936 70 c 2,26,-1
 730 758 l 1,27,-1
 752 758 l 1,28,-1
 528 68 l 2,29,30
 518 35 518 35 495 17.5 c 128,-1,31
 472 0 472 0 440 0 c 0,0,1
EndSplineSet
EndChar

StartChar: x
Encoding: 120 120 403
Width: 1066
GlyphClass: 2
Flags: W
AnchorPoint: "+BBEENQQ3BEsEPARPBD0EPQQ+BDUA--2" 538 0 basechar 0
AnchorPoint: "+BBEENQQ3BEsEPARPBD0EPQQ+BDUA--0" 548 1014 basechar 0
LayerCount: 2
Fore
SplineSet
146 20 m 0,0,1
 80 71 80 71 128 138 c 2,2,-1
 424 555 l 1,3,-1
 178 876 l 2,4,5
 125 942 125 942 194 992 c 1,6,7
 259 1045 259 1045 310 978 c 2,8,-1
 542 676 l 1,9,-1
 770 978 l 2,10,11
 820 1047 820 1047 888 994 c 0,12,13
 954 944 954 944 904 876 c 2,14,-1
 647 538 l 1,15,-1
 952 140 l 2,16,17
 1001 73 1001 73 938 22 c 0,18,19
 870 -31 870 -31 820 38 c 2,20,-1
 531 415 l 1,21,-1
 264 40 l 2,22,23
 214 -29 214 -29 146 20 c 0,0,1
EndSplineSet
EndChar

StartChar: y
Encoding: 121 121 404
Width: 1360
GlyphClass: 2
Flags: W
AnchorPoint: "+BBEENQQ3BEsEPARPBD0EPQQ+BDUA--2" 1310 0 basechar 0
AnchorPoint: "+BBEENQQ3BEsEPARPBD0EPQQ+BDUA--0" 670 1014 basechar 0
LayerCount: 2
Fore
SplineSet
476 -400 m 2,0,1
 331 -400 331 -400 259.5 -327.5 c 128,-1,2
 188 -255 188 -255 188 -110 c 0,3,4
 188 -26 188 -26 272 -26 c 256,5,6
 356 -26 356 -26 356 -110 c 0,7,8
 356 -185 356 -185 378.5 -208.5 c 128,-1,9
 401 -232 401 -232 476 -232 c 2,10,-1
 864 -232 l 2,11,12
 938 -232 938 -232 961 -208.5 c 128,-1,13
 984 -185 984 -185 984 -110 c 2,14,-1
 984 144 l 1,15,16
 924 54 924 54 844.5 27 c 128,-1,17
 765 0 765 0 672 0 c 2,18,-1
 574 0 l 2,19,20
 376 0 376 0 282 94 c 128,-1,21
 188 188 188 188 188 384 c 2,22,-1
 188 930 l 2,23,24
 188 1014 188 1014 272 1014 c 256,25,26
 356 1014 356 1014 356 930 c 2,27,-1
 356 384 l 2,28,29
 356 258 356 258 401.5 213 c 128,-1,30
 447 168 447 168 574 168 c 2,31,-1
 672 168 l 2,32,33
 836 168 836 168 910 221.5 c 128,-1,34
 984 275 984 275 984 384 c 2,35,-1
 984 930 l 2,36,37
 984 1014 984 1014 1068 1014 c 256,38,39
 1152 1014 1152 1014 1152 930 c 2,40,-1
 1152 -110 l 2,41,42
 1152 -255 1152 -255 1080 -327.5 c 128,-1,43
 1008 -400 1008 -400 864 -400 c 2,44,-1
 476 -400 l 2,0,1
EndSplineSet
EndChar

StartChar: z
Encoding: 122 122 413
Width: 1090
GlyphClass: 2
Flags: W
AnchorPoint: "+BBEENQQ3BEsEPARPBD0EPQQ+BDUA--2" 544 0 basechar 0
AnchorPoint: "+BBEENQQ3BEsEPARPBD0EPQQ+BDUA--0" 568 1014 basechar 0
LayerCount: 2
Fore
SplineSet
218 0 m 2,0,1
 134 0 134 0 134 84 c 0,2,3
 134 122 134 122 170 166 c 2,4,-1
 746 886 l 1,5,-1
 750 846 l 1,6,-1
 372 846 l 2,7,8
 323 846 323 846 297.5 838 c 128,-1,9
 272 830 272 830 260 806 c 1,10,11
 250 767 250 767 231.5 746.5 c 128,-1,12
 213 726 213 726 174 726 c 0,13,14
 131 726 131 726 108 749 c 128,-1,15
 85 772 85 772 92 814 c 0,16,17
 112 915 112 915 181.5 964.5 c 128,-1,18
 251 1014 251 1014 372 1014 c 2,19,-1
 862 1014 l 2,20,21
 946 1014 946 1014 946 930 c 0,22,23
 946 890 946 890 910 846 c 2,24,-1
 344 136 l 1,25,-1
 322 170 l 1,26,-1
 736 168 l 2,27,28
 783 168 783 168 808.5 177 c 128,-1,29
 834 186 834 186 846 210 c 0,30,31
 860 248 860 248 877.5 268 c 128,-1,32
 895 288 895 288 934 288 c 0,33,34
 978 288 978 288 1001.5 265 c 128,-1,35
 1025 242 1025 242 1016 200 c 0,36,37
 973 0 973 0 736 0 c 2,38,-1
 218 0 l 2,0,1
EndSplineSet
EndChar

StartChar: a.ss01
Encoding: 65541 -1 419
Width: 1296
Flags: W
LayerCount: 2
Fore
SplineSet
546 0 m 2,0,1
 350 0 350 0 255 93 c 128,-1,2
 160 186 160 186 160 384 c 2,3,-1
 160 622 l 2,4,5
 160 828 160 828 252.5 921 c 128,-1,6
 345 1014 345 1014 544 1014 c 2,7,-1
 724 1014 l 2,8,9
 867 1014 867 1014 941 946 c 1,10,-1
 941 947 l 1,11,12
 949 1016 949 1016 1024 1016 c 0,13,14
 1108 1016 1108 1016 1108 932 c 2,15,-1
 1108 266 l 2,16,17
 1108 212 1108 212 1115.5 196 c 128,-1,18
 1123 180 1123 180 1145 171 c 0,19,20
 1170 161 1170 161 1188 145 c 128,-1,21
 1206 129 1206 129 1206 88 c 0,22,23
 1206 45 1206 45 1182.5 21.5 c 128,-1,24
 1159 -2 1159 -2 1118 8 c 0,25,26
 1001 35 1001 35 960 140 c 1,27,28
 860 0 860 0 628 0 c 2,29,-1
 546 0 l 2,0,1
546 168 m 2,30,-1
 628 168 l 2,31,32
 760 168 760 168 850 201.5 c 128,-1,33
 940 235 940 235 940 308 c 2,34,-1
 940 720 l 2,35,36
 940 796 940 796 882.5 821 c 128,-1,37
 825 846 825 846 724 846 c 2,38,-1
 544 846 l 2,39,40
 457 846 457 846 410.5 828 c 128,-1,41
 364 810 364 810 346 761.5 c 128,-1,42
 328 713 328 713 328 622 c 2,43,-1
 328 384 l 2,44,45
 328 257 328 257 374 212.5 c 128,-1,46
 420 168 420 168 546 168 c 2,30,-1
EndSplineSet
EndChar

StartChar: f_f
Encoding: 65542 -1 420
Width: 1412
GlyphClass: 3
Flags: W
LayerCount: 2
Fore
SplineSet
330 0 m 256,0,1
 246 0 246 0 246 84 c 2,2,-1
 246 1022 l 2,3,4
 246 1219 246 1219 341 1313.5 c 128,-1,5
 436 1408 436 1408 632 1408 c 0,6,7
 704 1408 704 1408 704 1324 c 256,8,9
 704 1240 704 1240 632 1240 c 0,10,11
 508 1240 508 1240 461 1195 c 128,-1,12
 414 1150 414 1150 414 1022 c 2,13,-1
 414 84 l 2,14,15
 414 0 414 0 330 0 c 256,0,1
172 846 m 2,16,17
 88 846 88 846 88 930 c 256,18,19
 88 1014 88 1014 172 1014 c 2,20,-1
 946 1014 l 2,21,22
 1030 1014 1030 1014 1030 930 c 0,23,24
 1030 891 1030 891 1007.5 868.5 c 128,-1,25
 985 846 985 846 946 846 c 2,26,-1
 172 846 l 2,16,17
970 0 m 256,27,28
 886 0 886 0 886 84 c 2,29,-1
 886 846 l 1,30,-1
 812 846 l 2,31,32
 728 846 728 846 728 930 c 256,33,34
 728 1014 728 1014 812 1014 c 2,35,-1
 886 1014 l 1,36,-1
 886 1022 l 2,37,38
 886 1219 886 1219 981 1313.5 c 128,-1,39
 1076 1408 1076 1408 1272 1408 c 0,40,41
 1344 1408 1344 1408 1344 1324 c 256,42,43
 1344 1240 1344 1240 1272 1240 c 0,44,45
 1146 1240 1146 1240 1100 1195 c 128,-1,46
 1054 1150 1054 1150 1054 1022 c 2,47,-1
 1054 1014 l 1,48,-1
 1260 1014 l 2,49,50
 1344 1014 1344 1014 1344 930 c 256,51,52
 1344 846 1344 846 1260 846 c 2,53,-1
 1054 846 l 1,54,-1
 1054 84 l 2,55,56
 1054 0 1054 0 970 0 c 256,27,28
EndSplineSet
Ligature2: "'liga' Standard Ligatures in Latin lookup 26 subtable" f f
EndChar

StartChar: f_f_i
Encoding: 65543 -1 421
Width: 1899
GlyphClass: 3
Flags: W
LayerCount: 2
Fore
SplineSet
330 0 m 256,0,1
 246 0 246 0 246 84 c 2,2,-1
 246 1022 l 2,3,4
 246 1219 246 1219 341 1313.5 c 128,-1,5
 436 1408 436 1408 632 1408 c 0,6,7
 704 1408 704 1408 704 1324 c 256,8,9
 704 1240 704 1240 632 1240 c 0,10,11
 508 1240 508 1240 461 1195 c 128,-1,12
 414 1150 414 1150 414 1022 c 2,13,-1
 414 84 l 2,14,15
 414 0 414 0 330 0 c 256,0,1
172 846 m 2,16,17
 88 846 88 846 88 930 c 256,18,19
 88 1014 88 1014 172 1014 c 2,20,-1
 942 1014 l 2,21,22
 1026 1014 1026 1014 1026 930 c 256,23,24
 1026 846 1026 846 942 846 c 2,25,-1
 172 846 l 2,16,17
1608 0 m 256,26,27
 1524 0 1524 0 1524 84 c 2,28,-1
 1524 930 l 2,29,30
 1524 1014 1524 1014 1608 1014 c 256,31,32
 1692 1014 1692 1014 1692 930 c 2,33,-1
 1692 84 l 2,34,35
 1692 0 1692 0 1608 0 c 256,26,27
1576 1157 m 2,36,37
 1477 1157 1477 1157 1477 1255 c 2,38,-1
 1477 1317 l 2,39,40
 1477 1413 1477 1413 1576 1413 c 2,41,-1
 1635 1413 l 2,42,43
 1728 1413 1728 1413 1728 1317 c 2,44,-1
 1728 1255 l 2,45,46
 1728 1157 1728 1157 1635 1157 c 2,47,-1
 1576 1157 l 2,36,37
968 0 m 256,48,49
 884 0 884 0 884 84 c 2,50,-1
 884 846 l 1,51,-1
 810 846 l 2,52,53
 726 846 726 846 726 930 c 256,54,55
 726 1014 726 1014 810 1014 c 2,56,-1
 884 1014 l 1,57,-1
 884 1022 l 2,58,59
 884 1219 884 1219 979 1313.5 c 128,-1,60
 1074 1408 1074 1408 1270 1408 c 2,61,-1
 1594 1408 l 1,62,-1
 1542 1162 l 1,63,-1
 1270 1240 l 1,64,65
 1146 1240 1146 1240 1099 1194 c 128,-1,66
 1052 1148 1052 1148 1052 1022 c 2,67,-1
 1052 1014 l 1,68,-1
 1610 1014 l 2,69,70
 1694 1014 1694 1014 1694 930 c 256,71,72
 1694 846 1694 846 1610 846 c 2,73,-1
 1052 846 l 1,74,-1
 1052 84 l 2,75,76
 1052 0 1052 0 968 0 c 256,48,49
EndSplineSet
Ligature2: "'dlig' Discretionary Ligatures in Latin lookup 29 subtable" f f i
Ligature2: "'liga' Standard Ligatures in Latin lookup 26 subtable" f f i
EndChar

StartChar: f_f_l
Encoding: 65544 -1 422
Width: 1992
Flags: W
LayerCount: 2
Fore
SplineSet
330 0 m 256,0,1
 246 0 246 0 246 84 c 2,2,-1
 246 1022 l 2,3,4
 246 1219 246 1219 341 1313.5 c 128,-1,5
 436 1408 436 1408 632 1408 c 0,6,7
 704 1408 704 1408 704 1324 c 256,8,9
 704 1240 704 1240 632 1240 c 0,10,11
 508 1240 508 1240 461 1195 c 128,-1,12
 414 1150 414 1150 414 1022 c 2,13,-1
 414 84 l 2,14,15
 414 0 414 0 330 0 c 256,0,1
172 846 m 2,16,17
 88 846 88 846 88 930 c 256,18,19
 88 1014 88 1014 172 1014 c 2,20,-1
 858 1014 l 2,21,22
 942 1014 942 1014 942 930 c 256,23,24
 942 846 942 846 858 846 c 2,25,-1
 172 846 l 2,16,17
1820 0 m 0,26,27
 1657 -3 1657 -3 1577.5 76 c 128,-1,28
 1498 155 1498 155 1498 320 c 2,29,-1
 1498 1240 l 1,30,-1
 1244 1240 l 2,31,32
 1117 1240 1117 1240 1071.5 1195 c 128,-1,33
 1026 1150 1026 1150 1026 1022 c 2,34,-1
 1026 84 l 2,35,36
 1026 0 1026 0 942 0 c 256,37,38
 858 0 858 0 858 84 c 2,39,-1
 858 1022 l 2,40,41
 858 1219 858 1219 953 1313.5 c 128,-1,42
 1048 1408 1048 1408 1244 1408 c 2,43,-1
 1582 1408 l 2,44,45
 1666 1408 1666 1408 1666 1324 c 2,46,-1
 1666 320 l 2,47,48
 1666 224 1666 224 1696.5 195.5 c 128,-1,49
 1727 167 1727 167 1818 168 c 0,50,51
 1863 168 1863 168 1882.5 149.5 c 128,-1,52
 1902 131 1902 131 1902 84 c 0,53,54
 1902 0 1902 0 1820 0 c 0,26,27
784 846 m 2,55,56
 700 846 700 846 700 930 c 256,57,58
 700 1014 700 1014 784 1014 c 2,59,-1
 1230 1014 l 2,60,61
 1314 1014 1314 1014 1314 930 c 256,62,63
 1314 846 1314 846 1230 846 c 2,64,-1
 784 846 l 2,55,56
EndSplineSet
Ligature2: "'dlig' Discretionary Ligatures in Latin lookup 29 subtable" f f l
Ligature2: "'liga' Standard Ligatures in Latin lookup 26 subtable" f f l
EndChar

StartChar: fi
Encoding: 64257 64257 423
Width: 1261
GlyphClass: 3
Flags: W
LayerCount: 2
Fore
SplineSet
330 0 m 256,0,1
 246 0 246 0 246 84 c 2,2,-1
 246 846 l 1,3,-1
 172 846 l 2,4,5
 88 846 88 846 88 930 c 256,6,7
 88 1014 88 1014 172 1014 c 2,8,-1
 246 1014 l 1,9,-1
 246 1022 l 2,10,11
 246 1219 246 1219 341 1313.5 c 128,-1,12
 436 1408 436 1408 632 1408 c 2,13,-1
 956 1408 l 1,14,-1
 904 1162 l 1,15,-1
 632 1240 l 1,16,17
 508 1240 508 1240 461 1194 c 128,-1,18
 414 1148 414 1148 414 1022 c 2,19,-1
 414 1014 l 1,20,-1
 972 1014 l 2,21,22
 1056 1014 1056 1014 1056 930 c 256,23,24
 1056 846 1056 846 972 846 c 2,25,-1
 414 846 l 1,26,-1
 414 84 l 2,27,28
 414 0 414 0 330 0 c 256,0,1
970 0 m 256,29,30
 886 0 886 0 886 84 c 2,31,-1
 886 930 l 2,32,33
 886 1014 886 1014 970 1014 c 256,34,35
 1054 1014 1054 1014 1054 930 c 2,36,-1
 1054 84 l 2,37,38
 1054 0 1054 0 970 0 c 256,29,30
938 1157 m 2,39,40
 839 1157 839 1157 839 1255 c 2,41,-1
 839 1317 l 2,42,43
 839 1413 839 1413 938 1413 c 2,44,-1
 997 1413 l 2,45,46
 1090 1413 1090 1413 1090 1317 c 2,47,-1
 1090 1255 l 2,48,49
 1090 1157 1090 1157 997 1157 c 2,50,-1
 938 1157 l 2,39,40
EndSplineSet
Ligature2: "'liga' Standard Ligatures in Latin lookup 26 subtable" f i
EndChar

StartChar: fl
Encoding: 64258 64258 424
Width: 1380
Flags: W
LayerCount: 2
Fore
SplineSet
1208 0 m 0,0,1
 1045 -3 1045 -3 965.5 76 c 128,-1,2
 886 155 886 155 886 320 c 2,3,-1
 886 1240 l 1,4,-1
 632 1240 l 2,5,6
 505 1240 505 1240 459.5 1195 c 128,-1,7
 414 1150 414 1150 414 1022 c 2,8,-1
 414 84 l 2,9,10
 414 0 414 0 330 0 c 256,11,12
 246 0 246 0 246 84 c 2,13,-1
 246 1022 l 2,14,15
 246 1219 246 1219 341 1313.5 c 128,-1,16
 436 1408 436 1408 632 1408 c 2,17,-1
 970 1408 l 2,18,19
 1054 1408 1054 1408 1054 1324 c 2,20,-1
 1054 320 l 2,21,22
 1054 224 1054 224 1084.5 195.5 c 128,-1,23
 1115 167 1115 167 1206 168 c 0,24,25
 1251 168 1251 168 1270.5 149.5 c 128,-1,26
 1290 131 1290 131 1290 84 c 0,27,28
 1290 0 1290 0 1208 0 c 0,0,1
172 846 m 2,29,30
 88 846 88 846 88 930 c 256,31,32
 88 1014 88 1014 172 1014 c 2,33,-1
 618 1014 l 2,34,35
 702 1014 702 1014 702 930 c 256,36,37
 702 846 702 846 618 846 c 2,38,-1
 172 846 l 2,29,30
EndSplineSet
Ligature2: "'liga' Standard Ligatures in Latin lookup 26 subtable" f l
EndChar

StartChar: I_J.loclNLD
Encoding: 65545 -1 425
Width: 1388
Flags: W
LayerCount: 2
Fore
SplineSet
292 496 m 0,0,1
 249 496 249 496 228.5 516.5 c 128,-1,2
 208 537 208 537 208 580 c 2,3,-1
 208 1270 l 2,4,5
 208 1314 208 1314 228.5 1334 c 128,-1,6
 249 1354 249 1354 292 1354 c 0,7,8
 334 1354 334 1354 355 1334 c 128,-1,9
 376 1314 376 1314 376 1270 c 2,10,-1
 376 580 l 2,11,12
 376 537 376 537 355 516.5 c 128,-1,13
 334 496 334 496 292 496 c 0,0,1
616 0 m 2,14,15
 427 0 427 0 329 77 c 128,-1,16
 231 154 231 154 210 322 c 0,17,18
 207 364 207 364 230 386 c 128,-1,19
 253 408 253 408 292 408 c 0,20,21
 372 408 372 408 378 324 c 1,22,23
 393 233 393 233 446 200.5 c 128,-1,24
 499 168 499 168 616 168 c 2,25,-1
 782 168 l 2,26,27
 876 168 876 168 928 188.5 c 128,-1,28
 980 209 980 209 1001 261 c 128,-1,29
 1022 313 1022 313 1022 408 c 2,30,-1
 1022 1272 l 2,31,32
 1022 1356 1022 1356 1106 1356 c 256,33,34
 1190 1356 1190 1356 1190 1272 c 2,35,-1
 1190 408 l 2,36,37
 1190 195 1190 195 1092 97.5 c 128,-1,38
 994 0 994 0 782 0 c 2,39,-1
 616 0 l 2,14,15
EndSplineSet
Ligature2: "'locl' Localized Forms in Latin lookup 16 subtable" I J
EndChar

StartChar: a.sc
Encoding: 65546 -1 426
Width: 1120
GlyphClass: 2
Flags: W
AnchorPoint: "+BBEENQQ3BEsEPARPBD0EPQQ+BDUA--3" 906 0 basechar 0
AnchorPoint: "+BBEENQQ3BEsEPARPBD0EPQQ+BDUA--2" 560 0 basechar 0
AnchorPoint: "+BBEENQQ3BEsEPARPBD0EPQQ+BDUA--0" 564 1120 basechar 0
LayerCount: 2
Fore
SplineSet
146 8 m 0,0,1
 66 39 66 39 98 116 c 2,2,-1
 470 1054 l 2,3,4
 497 1120 497 1120 564 1120 c 0,5,6
 625 1120 625 1120 652 1054 c 2,7,-1
 1030 118 l 2,8,9
 1062 39 1062 39 984 8 c 0,10,11
 905 -23 905 -23 874 54 c 2,12,-1
 801 236 l 1,13,-1
 322 236 l 1,14,-1
 254 54 l 2,15,16
 241 17 241 17 211.5 6 c 128,-1,17
 182 -5 182 -5 146 8 c 0,0,1
384 404 m 1,18,-1
 733 404 l 1,19,-1
 552 854 l 1,20,-1
 384 404 l 1,18,-1
EndSplineSet
EndChar

StartChar: e.sc
Encoding: 65547 -1 427
Width: 1010
GlyphClass: 2
Flags: W
AnchorPoint: "+BBEENQQ3BEsEPARPBD0EPQQ+BDUA--3" 824 98 basechar 0
AnchorPoint: "+BBEENQQ3BEsEPARPBD0EPQQ+BDUA--2" 596 0 basechar 0
AnchorPoint: "+BBEENQQ3BEsEPARPBD0EPQQ+BDUA--0" 562 1120 basechar 0
LayerCount: 2
Fore
SplineSet
262 0 m 2,0,1
 178 0 178 0 178 84 c 2,2,-1
 178 1036 l 2,3,4
 178 1120 178 1120 262 1120 c 2,5,-1
 820 1120 l 2,6,7
 904 1120 904 1120 904 1036 c 256,8,9
 904 952 904 952 820 952 c 2,10,-1
 346 952 l 1,11,-1
 346 648 l 1,12,-1
 630 648 l 2,13,14
 714 648 714 648 714 564 c 256,15,16
 714 480 714 480 630 480 c 2,17,-1
 346 480 l 1,18,-1
 346 168 l 1,19,-1
 820 168 l 2,20,21
 904 168 904 168 904 84 c 256,22,23
 904 0 904 0 820 0 c 2,24,-1
 262 0 l 2,0,1
EndSplineSet
EndChar

StartChar: i.sc
Encoding: 65548 -1 428
Width: 524
GlyphClass: 2
Flags: W
AnchorPoint: "+BBEENQQ3BEsEPARPBD0EPQQ+BDUA--3" 194 16 basechar 0
AnchorPoint: "+BBEENQQ3BEsEPARPBD0EPQQ+BDUA--2" 262 0 basechar 0
AnchorPoint: "+BBEENQQ3BEsEPARPBD0EPQQ+BDUA--0" 262 1120 basechar 0
LayerCount: 2
Fore
SplineSet
262 0 m 256,0,1
 217 0 217 0 197.5 19.5 c 128,-1,2
 178 39 178 39 178 84 c 2,3,-1
 178 1034 l 2,4,5
 178 1079 178 1079 197.5 1098.5 c 128,-1,6
 217 1118 217 1118 262 1118 c 256,7,8
 307 1118 307 1118 326.5 1098.5 c 128,-1,9
 346 1079 346 1079 346 1034 c 2,10,-1
 346 84 l 2,11,12
 346 39 346 39 326.5 19.5 c 128,-1,13
 307 0 307 0 262 0 c 256,0,1
EndSplineSet
EndChar

StartChar: o.sc
Encoding: 65549 -1 429
Width: 1198
GlyphClass: 2
Flags: W
AnchorPoint: "+BBEENQQ3BEsEPARPBD0EPQQ+BDUA--4" 572 560 basechar 0
AnchorPoint: "+BBEENQQ3BEsEPARPBD0EPQQ+BDUA--3" 726 32 basechar 0
AnchorPoint: "+BBEENQQ3BEsEPARPBD0EPQQ+BDUA--2" 572 0 basechar 0
AnchorPoint: "+BBEENQQ3BEsEPARPBD0EPQQ+BDUA--1" 954 984 basechar 0
AnchorPoint: "+BBEENQQ3BEsEPARPBD0EPQQ+BDUA--0" 600 1120 basechar 0
LayerCount: 2
Fore
SplineSet
504 0 m 2,0,1
 314 0 314 0 221 93 c 128,-1,2
 128 186 128 186 128 376 c 2,3,-1
 128 748 l 2,4,5
 128 940 128 940 221.5 1030 c 128,-1,6
 315 1120 315 1120 504 1120 c 2,7,-1
 696 1120 l 2,8,9
 885 1120 885 1120 977.5 1028.5 c 128,-1,10
 1070 937 1070 937 1070 746 c 2,11,-1
 1070 376 l 2,12,13
 1070 186 1070 186 977.5 93 c 128,-1,14
 885 0 885 0 696 0 c 2,15,-1
 504 0 l 2,0,1
504 168 m 2,16,-1
 696 168 l 2,17,18
 818 168 818 168 860 210.5 c 128,-1,19
 902 253 902 253 902 376 c 2,20,-1
 902 746 l 2,21,22
 902 866 902 866 860 909 c 128,-1,23
 818 952 818 952 696 952 c 2,24,-1
 504 952 l 2,25,26
 384 952 384 952 340 911 c 128,-1,27
 296 870 296 870 296 748 c 2,28,-1
 296 376 l 2,29,30
 296 253 296 253 338.5 210.5 c 128,-1,31
 381 168 381 168 504 168 c 2,16,-1
EndSplineSet
EndChar

StartChar: ordfeminine
Encoding: 170 170 430
Width: 948
Flags: W
LayerCount: 2
Fore
SplineSet
368 596 m 2,0,1
 248 596 248 596 188 657 c 128,-1,2
 128 718 128 718 128 836 c 0,3,4
 128 958 128 958 189 1018 c 128,-1,5
 250 1078 250 1078 368 1078 c 2,6,-1
 673 1078 l 1,7,8
 670 1144 670 1144 641.5 1167 c 128,-1,9
 613 1190 613 1190 538 1190 c 2,10,-1
 426 1190 l 2,11,12
 374 1190 374 1190 342.5 1187 c 128,-1,13
 311 1184 311 1184 300 1170 c 0,14,15
 269 1130 269 1130 257 1121 c 128,-1,16
 245 1112 245 1112 218 1112 c 0,17,18
 181 1112 181 1112 160 1132.5 c 128,-1,19
 139 1153 139 1153 150 1190 c 0,20,21
 195 1336 195 1336 426 1336 c 2,22,-1
 538 1336 l 2,23,24
 681 1336 681 1336 750.5 1266.5 c 128,-1,25
 820 1197 820 1197 820 1054 c 2,26,-1
 820 668 l 2,27,28
 820 596 820 596 746 596 c 0,29,30
 674 596 674 596 674 668 c 2,31,-1
 674 691 l 1,32,33
 614 596 614 596 478 596 c 2,34,-1
 368 596 l 2,0,1
368 742 m 2,35,-1
 478 742 l 2,36,37
 562 742 562 742 618 756.5 c 128,-1,38
 674 771 674 771 674 808 c 2,39,-1
 674 932 l 1,40,-1
 368 932 l 2,41,42
 310 932 310 932 292 914 c 128,-1,43
 274 896 274 896 274 836 c 0,44,45
 274 778 274 778 292 760 c 128,-1,46
 310 742 310 742 368 742 c 2,35,-1
EndSplineSet
EndChar

StartChar: ordmasculine
Encoding: 186 186 431
Width: 860
Flags: W
LayerCount: 2
Fore
SplineSet
364 596 m 2,0,1
 219 596 219 596 145.5 669.5 c 128,-1,2
 72 743 72 743 72 888 c 2,3,-1
 72 1008 l 2,4,5
 72 1155 72 1155 145.5 1227 c 128,-1,6
 219 1299 219 1299 364 1300 c 2,7,-1
 496 1300 l 2,8,9
 642 1300 642 1300 715 1227 c 128,-1,10
 788 1154 788 1154 788 1008 c 2,11,-1
 788 890 l 2,12,13
 788 743 788 743 715 669.5 c 128,-1,14
 642 596 642 596 496 596 c 2,15,-1
 364 596 l 2,0,1
364 764 m 2,16,-1
 496 764 l 2,17,18
 573 764 573 764 596.5 788 c 128,-1,19
 620 812 620 812 620 890 c 2,20,-1
 620 1008 l 2,21,22
 620 1083 620 1083 596.5 1107.5 c 128,-1,23
 573 1132 573 1132 496 1132 c 2,24,-1
 364 1132 l 2,25,26
 288 1131 288 1131 264 1108 c 128,-1,27
 240 1085 240 1085 240 1008 c 2,28,-1
 240 888 l 2,29,30
 240 812 240 812 264 788 c 128,-1,31
 288 764 288 764 364 764 c 2,16,-1
EndSplineSet
EndChar

StartChar: uni0410
Encoding: 1040 1040 432
Width: 1220
Flags: W
LayerCount: 2
Fore
SplineSet
120 -44 m 0,0,1
 86 -44 86 -44 61 -22.5 c 128,-1,2
 36 -1 36 -1 36 28 c 0,3,4
 36 58 36 58 43 78 c 2,5,-1
 520 1284 l 1,6,-1
 700 1284 l 1,7,-1
 1177 78 l 2,8,9
 1184 58 1184 58 1184 28 c 0,10,11
 1184 -1 1184 -1 1159 -22.5 c 128,-1,12
 1134 -44 1134 -44 1100 -44 c 0,13,14
 1038 -44 1038 -44 1015 20 c 2,15,-1
 880 366 l 1,16,-1
 340 366 l 1,17,-1
 205 19 l 2,18,19
 178 -44 178 -44 120 -44 c 0,0,1
408 534 m 1,20,-1
 812 534 l 1,21,-1
 608 1032 l 1,22,-1
 408 534 l 1,20,-1
EndSplineSet
EndChar

StartChar: uni0411
Encoding: 1041 1041 433
Width: 1192
Flags: W
LayerCount: 2
Fore
SplineSet
158 1284 m 1,0,-1
 938 1284 l 2,1,2
 1040 1284 1040 1284 1040 1200 c 256,3,4
 1040 1116 1040 1116 938 1116 c 2,5,-1
 326 1116 l 1,6,-1
 326 964 l 1,7,-1
 620 964 l 2,8,9
 760 964 760 964 869.5 899.5 c 128,-1,10
 979 835 979 835 1042.5 723 c 128,-1,11
 1106 611 1106 611 1106 468 c 0,12,13
 1106 326 1106 326 1043 214.5 c 128,-1,14
 980 103 980 103 870 38.5 c 128,-1,15
 760 -26 760 -26 620 -26 c 2,16,-1
 238 -26 l 2,17,18
 158 -26 158 -26 158 72 c 2,19,-1
 158 1284 l 1,0,-1
620 796 m 2,20,-1
 326 796 l 1,21,-1
 326 142 l 1,22,-1
 620 142 l 2,23,24
 716 142 716 142 787.5 182.5 c 128,-1,25
 859 223 859 223 898.5 296.5 c 128,-1,26
 938 370 938 370 938 468 c 0,27,28
 938 567 938 567 898.5 640.5 c 128,-1,29
 859 714 859 714 787.5 755 c 128,-1,30
 716 796 716 796 620 796 c 2,20,-1
EndSplineSet
EndChar

StartChar: uni0412
Encoding: 1042 1042 434
Width: 1288
Flags: W
LayerCount: 2
Fore
SplineSet
236 -12 m 2,0,1
 156 -12 156 -12 156 88 c 2,2,-1
 156 1184 l 2,3,4
 156 1284 156 1284 236 1284 c 2,5,-1
 612 1284 l 2,6,7
 875 1284 875 1284 989.5 1207.5 c 128,-1,8
 1104 1131 1104 1131 1104 954 c 0,9,10
 1104 878 1104 878 1085.5 825 c 128,-1,11
 1067 772 1067 772 1032 735 c 1,12,13
 1110 692 1110 692 1149 609 c 128,-1,14
 1188 526 1188 526 1188 406 c 2,15,-1
 1188 368 l 2,16,17
 1188 226 1188 226 1139 143 c 128,-1,18
 1090 60 1090 60 977 24 c 128,-1,19
 864 -12 864 -12 672 -12 c 2,20,-1
 236 -12 l 2,0,1
324 156 m 1,21,-1
 672 156 l 2,22,23
 782 156 782 156 858 165 c 128,-1,24
 934 174 934 174 970 202 c 0,25,26
 1000 226 1000 226 1010 266.5 c 128,-1,27
 1020 307 1020 307 1020 368 c 2,28,-1
 1020 400 l 2,29,30
 1020 465 1020 465 1009 506.5 c 128,-1,31
 998 548 998 548 966 570 c 0,32,33
 933 596 933 596 871.5 604 c 128,-1,34
 810 612 810 612 708 612 c 2,35,-1
 324 612 l 1,36,-1
 324 156 l 1,21,-1
324 780 m 1,37,-1
 612 780 l 2,38,39
 742 780 742 780 812 793.5 c 128,-1,40
 882 807 882 807 909 842.5 c 128,-1,41
 936 878 936 878 936 944 c 0,42,43
 936 1009 936 1009 909.5 1044 c 128,-1,44
 883 1079 883 1079 813 1092.5 c 128,-1,45
 743 1106 743 1106 612 1106 c 2,46,-1
 324 1106 l 1,47,-1
 324 780 l 1,37,-1
EndSplineSet
EndChar

StartChar: uni0413
Encoding: 1043 1043 435
Width: 1190
Flags: W
LayerCount: 2
Fore
SplineSet
236 -26 m 256,0,1
 152 -26 152 -26 152 70 c 2,2,-1
 152 1006 l 2,3,4
 152 1158 152 1158 204.5 1221 c 128,-1,5
 257 1284 257 1284 384 1284 c 2,6,-1
 1054 1284 l 2,7,8
 1156 1284 1156 1284 1156 1200 c 256,9,10
 1156 1116 1156 1116 1054 1116 c 2,11,-1
 398 1116 l 2,12,13
 351 1116 351 1116 335.5 1100 c 128,-1,14
 320 1084 320 1084 320 1034 c 2,15,-1
 320 70 l 2,16,17
 320 -26 320 -26 236 -26 c 256,0,1
EndSplineSet
EndChar

StartChar: uni0403
Encoding: 1027 1027 436
Width: 1190
Flags: W
LayerCount: 2
Fore
SplineSet
236 -26 m 256,0,1
 152 -26 152 -26 152 70 c 2,2,-1
 152 1006 l 2,3,4
 152 1158 152 1158 204.5 1221 c 128,-1,5
 257 1284 257 1284 384 1284 c 2,6,-1
 1054 1284 l 2,7,8
 1156 1284 1156 1284 1156 1200 c 256,9,10
 1156 1116 1156 1116 1054 1116 c 2,11,-1
 398 1116 l 2,12,13
 351 1116 351 1116 335.5 1100 c 128,-1,14
 320 1084 320 1084 320 1034 c 2,15,-1
 320 70 l 2,16,17
 320 -26 320 -26 236 -26 c 256,0,1
642 1324 m 0,18,19
 607 1324 607 1324 581.5 1349 c 128,-1,20
 556 1374 556 1374 556 1408 c 0,21,22
 556 1436 556 1436 588 1474 c 1,23,-1
 728 1614 l 2,24,25
 762 1650 762 1650 798 1650 c 0,26,27
 831 1650 831 1650 857.5 1625 c 128,-1,28
 884 1600 884 1600 884 1568 c 0,29,30
 884 1534 884 1534 850 1497 c 2,31,-1
 713 1362 l 2,32,33
 678 1324 678 1324 642 1324 c 0,18,19
EndSplineSet
EndChar

StartChar: uni0490
Encoding: 1168 1168 437
Width: 1204
Flags: W
LayerCount: 2
Fore
SplineSet
236 -26 m 256,0,1
 152 -26 152 -26 152 70 c 2,2,-1
 152 1006 l 2,3,4
 152 1158 152 1158 204.5 1221 c 128,-1,5
 257 1284 257 1284 384 1284 c 2,6,-1
 988 1284 l 1,7,-1
 988 1406 l 2,8,9
 988 1508 988 1508 1072 1508 c 256,10,11
 1156 1508 1156 1508 1156 1406 c 2,12,-1
 1156 1116 l 1,13,-1
 398 1116 l 2,14,15
 351 1116 351 1116 335.5 1100 c 128,-1,16
 320 1084 320 1084 320 1034 c 2,17,-1
 320 70 l 2,18,19
 320 -26 320 -26 236 -26 c 256,0,1
EndSplineSet
EndChar

StartChar: uni0414
Encoding: 1044 1044 438
Width: 1230
Flags: W
LayerCount: 2
Fore
SplineSet
98 -196 m 256,0,1
 14 -196 14 -196 14 -94 c 2,2,-1
 14 0 l 2,3,4
 14 71 14 71 48 107.5 c 128,-1,5
 82 144 82 144 148 146 c 1,6,7
 172 197 172 197 198.5 292 c 128,-1,8
 225 387 225 387 250.5 509.5 c 128,-1,9
 276 632 276 632 296.5 767 c 128,-1,10
 317 902 317 902 329 1035.5 c 128,-1,11
 341 1169 341 1169 340 1284 c 1,12,-1
 1038 1284 l 1,13,-1
 1038 144 l 1,14,15
 1097 140 1097 140 1127.5 104 c 128,-1,16
 1158 68 1158 68 1158 0 c 2,17,-1
 1158 -94 l 2,18,19
 1158 -196 1158 -196 1074 -196 c 256,20,21
 990 -196 990 -196 990 -94 c 2,22,-1
 990 -12 l 1,23,-1
 182 -12 l 1,24,-1
 182 -94 l 2,25,26
 182 -196 182 -196 98 -196 c 256,0,1
333 156 m 1,27,-1
 870 156 l 1,28,-1
 870 1116 l 1,29,-1
 522 1116 l 1,30,31
 519 1027 519 1027 506.5 921.5 c 128,-1,32
 494 816 494 816 475 706 c 128,-1,33
 456 596 456 596 432.5 492.5 c 128,-1,34
 409 389 409 389 383.5 302 c 128,-1,35
 358 215 358 215 333 156 c 1,27,-1
EndSplineSet
EndChar

StartChar: uni0415
Encoding: 1045 1045 439
Width: 1272
Flags: W
LayerCount: 2
Fore
SplineSet
236 -12 m 2,0,1
 156 -12 156 -12 156 88 c 2,2,-1
 156 1184 l 2,3,4
 156 1284 156 1284 236 1284 c 2,5,-1
 1088 1284 l 2,6,7
 1188 1284 1188 1284 1188 1196 c 0,8,9
 1188 1116 1188 1116 1088 1116 c 2,10,-1
 324 1116 l 1,11,-1
 324 800 l 1,12,-1
 842 800 l 2,13,14
 954 800 954 800 954 712 c 0,15,16
 954 632 954 632 842 632 c 2,17,-1
 324 632 l 1,18,-1
 324 156 l 1,19,-1
 1088 156 l 2,20,21
 1188 156 1188 156 1188 68 c 0,22,23
 1188 -12 1188 -12 1088 -12 c 2,24,-1
 236 -12 l 2,0,1
EndSplineSet
EndChar

StartChar: uni0400
Encoding: 1024 1024 440
Width: 1272
Flags: W
LayerCount: 2
Fore
SplineSet
236 -12 m 2,0,1
 156 -12 156 -12 156 88 c 2,2,-1
 156 1184 l 2,3,4
 156 1284 156 1284 236 1284 c 2,5,-1
 1088 1284 l 2,6,7
 1188 1284 1188 1284 1188 1196 c 0,8,9
 1188 1116 1188 1116 1088 1116 c 2,10,-1
 324 1116 l 1,11,-1
 324 800 l 1,12,-1
 842 800 l 2,13,14
 954 800 954 800 954 712 c 0,15,16
 954 632 954 632 842 632 c 2,17,-1
 324 632 l 1,18,-1
 324 156 l 1,19,-1
 1088 156 l 2,20,21
 1188 156 1188 156 1188 68 c 0,22,23
 1188 -12 1188 -12 1088 -12 c 2,24,-1
 236 -12 l 2,0,1
658 1324 m 0,25,26
 622 1324 622 1324 588 1361 c 2,27,-1
 449 1498 l 2,28,29
 416 1534 416 1534 416 1568 c 0,30,31
 416 1601 416 1601 442 1625.5 c 128,-1,32
 468 1650 468 1650 502 1650 c 0,33,34
 538 1650 538 1650 572 1614 c 2,35,-1
 713 1474 l 2,36,37
 744 1440 744 1440 744 1408 c 0,38,39
 744 1374 744 1374 718.5 1349 c 128,-1,40
 693 1324 693 1324 658 1324 c 0,25,26
EndSplineSet
EndChar

StartChar: uni0401
Encoding: 1025 1025 441
Width: 1272
Flags: W
LayerCount: 2
Fore
SplineSet
236 -12 m 2,0,1
 156 -12 156 -12 156 88 c 2,2,-1
 156 1184 l 2,3,4
 156 1284 156 1284 236 1284 c 2,5,-1
 1088 1284 l 2,6,7
 1188 1284 1188 1284 1188 1196 c 0,8,9
 1188 1116 1188 1116 1088 1116 c 2,10,-1
 324 1116 l 1,11,-1
 324 800 l 1,12,-1
 842 800 l 2,13,14
 954 800 954 800 954 712 c 0,15,16
 954 632 954 632 842 632 c 2,17,-1
 324 632 l 1,18,-1
 324 156 l 1,19,-1
 1088 156 l 2,20,21
 1188 156 1188 156 1188 68 c 0,22,23
 1188 -12 1188 -12 1088 -12 c 2,24,-1
 236 -12 l 2,0,1
490 1400 m 0,25,26
 438 1400 438 1400 398 1434.5 c 128,-1,27
 358 1469 358 1469 358 1514 c 0,28,29
 358 1558 358 1558 399 1593 c 128,-1,30
 440 1628 440 1628 492 1628 c 256,31,32
 544 1628 544 1628 585 1593 c 128,-1,33
 626 1558 626 1558 626 1514 c 256,34,35
 626 1470 626 1470 584.5 1435 c 128,-1,36
 543 1400 543 1400 490 1400 c 0,25,26
830 1400 m 0,37,38
 778 1400 778 1400 738 1434.5 c 128,-1,39
 698 1469 698 1469 698 1514 c 0,40,41
 698 1558 698 1558 739 1593 c 128,-1,42
 780 1628 780 1628 832 1628 c 256,43,44
 884 1628 884 1628 925 1593 c 128,-1,45
 966 1558 966 1558 966 1514 c 256,46,47
 966 1470 966 1470 924.5 1435 c 128,-1,48
 883 1400 883 1400 830 1400 c 0,37,38
EndSplineSet
EndChar

StartChar: uni0416
Encoding: 1046 1046 442
Width: 1632
Flags: W
LayerCount: 2
Fore
SplineSet
182 -26 m 0,0,1
 121 -26 121 -26 94.5 -3 c 128,-1,2
 68 20 68 20 68 62 c 0,3,4
 68 105 68 105 89 120 c 128,-1,5
 110 135 110 135 135 136.5 c 128,-1,6
 160 138 160 138 172 142 c 0,7,8
 193 148 193 148 208 182 c 128,-1,9
 223 216 223 216 234.5 260 c 128,-1,10
 246 304 246 304 256 340 c 0,11,12
 280 423 280 423 339.5 506 c 128,-1,13
 399 589 399 589 492 634 c 1,14,15
 470 661 470 661 445.5 700.5 c 128,-1,16
 421 740 421 740 380 806 c 0,17,18
 314 914 314 914 278 970 c 128,-1,19
 242 1026 242 1026 219 1047 c 128,-1,20
 196 1068 196 1068 170 1072 c 0,21,22
 133 1077 133 1077 100.5 1091.5 c 128,-1,23
 68 1106 68 1106 68 1158 c 0,24,25
 68 1199 68 1199 92.5 1219.5 c 128,-1,26
 117 1240 117 1240 166 1240 c 0,27,28
 238 1240 238 1240 317.5 1192 c 128,-1,29
 397 1144 397 1144 460 1036 c 0,30,31
 528 921 528 921 569.5 849.5 c 128,-1,32
 611 778 611 778 636.5 740.5 c 128,-1,33
 662 703 662 703 679.5 689.5 c 128,-1,34
 697 676 697 676 716 676 c 2,35,-1
 728 676 l 1,36,-1
 728 1140 l 2,37,38
 728 1184 728 1184 751.5 1211 c 128,-1,39
 775 1238 775 1238 818 1238 c 0,40,41
 904 1238 904 1238 904 1140 c 2,42,-1
 904 676 l 1,43,-1
 916 676 l 2,44,45
 937 676 937 676 964 707 c 128,-1,46
 991 738 991 738 1019.5 783 c 128,-1,47
 1048 828 1048 828 1074 870 c 0,48,49
 1109 929 1109 929 1151.5 993 c 128,-1,50
 1194 1057 1194 1057 1242.5 1113.5 c 128,-1,51
 1291 1170 1291 1170 1346 1205 c 128,-1,52
 1401 1240 1401 1240 1462 1240 c 0,53,54
 1509 1240 1509 1240 1536.5 1217 c 128,-1,55
 1564 1194 1564 1194 1564 1150 c 0,56,57
 1564 1107 1564 1107 1536.5 1094 c 128,-1,58
 1509 1081 1509 1081 1462 1072 c 0,59,60
 1402 1060 1402 1060 1356 985 c 128,-1,61
 1310 910 1310 910 1250 806 c 0,62,63
 1208 733 1208 733 1185 699.5 c 128,-1,64
 1162 666 1162 666 1137 634 c 1,65,66
 1223 592 1223 592 1274 532 c 128,-1,67
 1325 472 1325 472 1355.5 397 c 128,-1,68
 1386 322 1386 322 1408 236 c 0,69,70
 1418 197 1418 197 1425 178 c 128,-1,71
 1432 159 1432 159 1439.5 152 c 128,-1,72
 1447 145 1447 145 1460 142 c 0,73,74
 1478 138 1478 138 1502.5 133.5 c 128,-1,75
 1527 129 1527 129 1545.5 113 c 128,-1,76
 1564 97 1564 97 1564 58 c 0,77,78
 1564 -26 1564 -26 1454 -26 c 0,79,80
 1363 -26 1363 -26 1300 28 c 128,-1,81
 1237 82 1237 82 1208 172 c 0,82,83
 1176 272 1176 272 1146 347.5 c 128,-1,84
 1116 423 1116 423 1065 465.5 c 128,-1,85
 1014 508 1014 508 918 508 c 2,86,-1
 904 508 l 1,87,-1
 904 66 l 2,88,89
 904 26 904 26 878.5 0 c 128,-1,90
 853 -26 853 -26 814 -26 c 256,91,92
 775 -26 775 -26 751.5 0 c 128,-1,93
 728 26 728 26 728 66 c 2,94,-1
 728 508 l 1,95,-1
 714 508 l 2,96,97
 653 508 653 508 607 487.5 c 128,-1,98
 561 467 561 467 528 427 c 128,-1,99
 495 387 495 387 472 328 c 0,100,101
 452 276 452 276 434 215 c 128,-1,102
 416 154 416 154 388 99 c 128,-1,103
 360 44 360 44 311.5 9 c 128,-1,104
 263 -26 263 -26 182 -26 c 0,0,1
EndSplineSet
EndChar

StartChar: uni0417
Encoding: 1047 1047 443
Width: 1246
Flags: W
LayerCount: 2
Fore
SplineSet
330 -12 m 2,0,1
 201 -12 201 -12 149.5 53 c 128,-1,2
 98 118 98 118 98 278 c 0,3,4
 98 380 98 380 182 380 c 256,5,6
 266 380 266 380 266 278 c 2,7,-1
 266 242 l 2,8,9
 266 189 266 189 280.5 172.5 c 128,-1,10
 295 156 295 156 344 156 c 2,11,-1
 710 156 l 2,12,13
 782 156 782 156 839 185 c 128,-1,14
 896 214 896 214 929 263.5 c 128,-1,15
 962 313 962 313 962 374 c 0,16,17
 962 432 962 432 931 476.5 c 128,-1,18
 900 521 900 521 845 546.5 c 128,-1,19
 790 572 790 572 718 572 c 2,20,-1
 546 572 l 2,21,22
 442 572 442 572 442 656 c 256,23,24
 442 740 442 740 546 740 c 2,25,-1
 718 740 l 2,26,27
 792 740 792 740 847 762 c 128,-1,28
 902 784 902 784 932 824 c 128,-1,29
 962 864 962 864 962 918 c 0,30,31
 962 976 962 976 930 1020.5 c 128,-1,32
 898 1065 898 1065 841.5 1090.5 c 128,-1,33
 785 1116 785 1116 710 1116 c 2,34,-1
 344 1116 l 2,35,36
 295 1116 295 1116 280.5 1099.5 c 128,-1,37
 266 1083 266 1083 266 1030 c 2,38,-1
 266 994 l 2,39,40
 266 892 266 892 182 892 c 256,41,42
 98 892 98 892 98 994 c 0,43,44
 98 1154 98 1154 149.5 1219 c 128,-1,45
 201 1284 201 1284 330 1284 c 2,46,-1
 724 1284 l 2,47,48
 846 1284 846 1284 937 1240 c 128,-1,49
 1028 1196 1028 1196 1079 1117 c 128,-1,50
 1130 1038 1130 1038 1130 932 c 0,51,52
 1130 844 1130 844 1098 774.5 c 128,-1,53
 1066 705 1066 705 1001 653 c 1,54,55
 1066 597 1066 597 1098 523 c 128,-1,56
 1130 449 1130 449 1130 360 c 0,57,58
 1130 252 1130 252 1077.5 168 c 128,-1,59
 1025 84 1025 84 933.5 36 c 128,-1,60
 842 -12 842 -12 724 -12 c 2,61,-1
 330 -12 l 2,0,1
EndSplineSet
EndChar

StartChar: uni0418
Encoding: 1048 1048 444
Width: 1344
Flags: W
LayerCount: 2
Fore
SplineSet
238 -26 m 0,0,1
 156 -26 156 -26 156 70 c 2,2,-1
 156 1200 l 2,3,4
 156 1298 156 1298 240 1298 c 256,5,6
 324 1298 324 1298 324 1194 c 2,7,-1
 324 273 l 1,8,-1
 1022 1247 l 2,9,10
 1060 1298 1060 1298 1108 1298 c 0,11,12
 1188 1298 1188 1298 1188 1200 c 2,13,-1
 1188 70 l 2,14,15
 1188 -26 1188 -26 1104 -26 c 256,16,17
 1020 -26 1020 -26 1020 64 c 2,18,-1
 1020 997 l 1,19,-1
 330 29 l 2,20,21
 306 -5 306 -5 288.5 -15.5 c 128,-1,22
 271 -26 271 -26 238 -26 c 0,0,1
EndSplineSet
EndChar

StartChar: uni0419
Encoding: 1049 1049 445
Width: 1344
Flags: W
LayerCount: 2
Fore
SplineSet
238 -26 m 0,0,1
 156 -26 156 -26 156 70 c 2,2,-1
 156 1200 l 2,3,4
 156 1298 156 1298 240 1298 c 256,5,6
 324 1298 324 1298 324 1194 c 2,7,-1
 324 273 l 1,8,-1
 1022 1247 l 2,9,10
 1060 1298 1060 1298 1108 1298 c 0,11,12
 1188 1298 1188 1298 1188 1200 c 2,13,-1
 1188 70 l 2,14,15
 1188 -26 1188 -26 1104 -26 c 256,16,17
 1020 -26 1020 -26 1020 64 c 2,18,-1
 1020 997 l 1,19,-1
 330 29 l 2,20,21
 306 -5 306 -5 288.5 -15.5 c 128,-1,22
 271 -26 271 -26 238 -26 c 0,0,1
548 1250 m 2,23,24
 430 1250 430 1250 382 1310.5 c 128,-1,25
 334 1371 334 1371 334 1516 c 2,26,-1
 334 1602 l 1,27,-1
 502 1602 l 1,28,-1
 502 1484 l 2,29,30
 502 1439 502 1439 512 1428.5 c 128,-1,31
 522 1418 522 1418 564 1418 c 2,32,-1
 768 1418 l 2,33,34
 809 1418 809 1418 818.5 1428.5 c 128,-1,35
 828 1439 828 1439 828 1484 c 2,36,-1
 828 1602 l 1,37,-1
 996 1602 l 1,38,-1
 996 1516 l 2,39,40
 996 1369 996 1369 948.5 1309.5 c 128,-1,41
 901 1250 901 1250 782 1250 c 2,42,-1
 548 1250 l 2,23,24
EndSplineSet
EndChar

StartChar: uni041A
Encoding: 1050 1050 446
Width: 1232
Flags: W
LayerCount: 2
Fore
SplineSet
238 -26 m 0,0,1
 201 -26 201 -26 178.5 -1 c 128,-1,2
 156 24 156 24 156 66 c 2,3,-1
 156 1140 l 2,4,5
 156 1181 156 1181 179 1209.5 c 128,-1,6
 202 1238 202 1238 244 1238 c 0,7,8
 324 1238 324 1238 324 1140 c 2,9,-1
 324 676 l 1,10,-1
 484 676 l 2,11,12
 511 676 511 676 545 703.5 c 128,-1,13
 579 731 579 731 625 793.5 c 128,-1,14
 671 856 671 856 734 962 c 0,15,16
 755 997 755 997 785 1044.5 c 128,-1,17
 815 1092 815 1092 854.5 1136.5 c 128,-1,18
 894 1181 894 1181 944.5 1210.5 c 128,-1,19
 995 1240 995 1240 1056 1240 c 0,20,21
 1160 1240 1160 1240 1160 1150 c 0,22,23
 1160 1102 1160 1102 1130.5 1090 c 128,-1,24
 1101 1078 1101 1078 1056 1072 c 0,25,26
 1013 1066 1013 1066 978.5 1023.5 c 128,-1,27
 944 981 944 981 890 894 c 0,28,29
 844 819 844 819 816.5 774 c 128,-1,30
 789 729 789 729 768 699 c 128,-1,31
 747 669 747 669 718.5 640.5 c 128,-1,32
 690 612 690 612 640 570 c 1,33,-1
 636 622 l 1,34,35
 698 572 698 572 745.5 517.5 c 128,-1,36
 793 463 793 463 830 409 c 128,-1,37
 867 355 867 355 898 306 c 0,38,39
 951 225 951 225 984.5 187.5 c 128,-1,40
 1018 150 1018 150 1058 142 c 0,41,42
 1073 139 1073 139 1097.5 134.5 c 128,-1,43
 1122 130 1122 130 1141 113 c 128,-1,44
 1160 96 1160 96 1160 56 c 0,45,46
 1160 -26 1160 -26 1062 -26 c 0,47,48
 989 -26 989 -26 911.5 22.5 c 128,-1,49
 834 71 834 71 762 168 c 0,50,51
 746 191 746 191 713.5 238.5 c 128,-1,52
 681 286 681 286 654 326 c 0,53,54
 593 418 593 418 549.5 463 c 128,-1,55
 506 508 506 508 464 508 c 2,56,-1
 324 508 l 1,57,-1
 324 66 l 2,58,59
 324 26 324 26 300.5 0 c 128,-1,60
 277 -26 277 -26 238 -26 c 0,0,1
EndSplineSet
EndChar

StartChar: uni040C
Encoding: 1036 1036 447
Width: 1232
Flags: W
LayerCount: 2
Fore
SplineSet
540 1146 m 0,0,1
 506 1146 506 1146 480 1170 c 128,-1,2
 454 1194 454 1194 454 1228 c 0,3,4
 454 1245 454 1245 461.5 1263.5 c 128,-1,5
 469 1282 469 1282 478 1292 c 2,6,-1
 670 1524 l 2,7,8
 707 1566 707 1566 744 1566 c 0,9,10
 779 1566 779 1566 803.5 1542 c 128,-1,11
 828 1518 828 1518 828 1482 c 0,12,13
 828 1448 828 1448 803 1418 c 2,14,-1
 611 1188 l 2,15,16
 575 1146 575 1146 540 1146 c 0,0,1
238 -26 m 0,17,18
 201 -26 201 -26 178.5 -1 c 128,-1,19
 156 24 156 24 156 66 c 2,20,-1
 156 1140 l 2,21,22
 156 1181 156 1181 179 1209.5 c 128,-1,23
 202 1238 202 1238 244 1238 c 0,24,25
 324 1238 324 1238 324 1140 c 2,26,-1
 324 676 l 1,27,-1
 484 676 l 2,28,29
 511 676 511 676 545 703.5 c 128,-1,30
 579 731 579 731 625 793.5 c 128,-1,31
 671 856 671 856 734 962 c 0,32,33
 755 997 755 997 785 1044.5 c 128,-1,34
 815 1092 815 1092 854.5 1136.5 c 128,-1,35
 894 1181 894 1181 944.5 1210.5 c 128,-1,36
 995 1240 995 1240 1056 1240 c 0,37,38
 1160 1240 1160 1240 1160 1150 c 0,39,40
 1160 1102 1160 1102 1130.5 1090 c 128,-1,41
 1101 1078 1101 1078 1056 1072 c 0,42,43
 1013 1066 1013 1066 978.5 1023.5 c 128,-1,44
 944 981 944 981 890 894 c 0,45,46
 844 819 844 819 816.5 774 c 128,-1,47
 789 729 789 729 768 699 c 128,-1,48
 747 669 747 669 718.5 640.5 c 128,-1,49
 690 612 690 612 640 570 c 1,50,-1
 636 622 l 1,51,52
 698 572 698 572 745.5 517.5 c 128,-1,53
 793 463 793 463 830 409 c 128,-1,54
 867 355 867 355 898 306 c 0,55,56
 951 225 951 225 984.5 187.5 c 128,-1,57
 1018 150 1018 150 1058 142 c 0,58,59
 1073 139 1073 139 1097.5 134.5 c 128,-1,60
 1122 130 1122 130 1141 113 c 128,-1,61
 1160 96 1160 96 1160 56 c 0,62,63
 1160 -26 1160 -26 1062 -26 c 0,64,65
 989 -26 989 -26 911.5 22.5 c 128,-1,66
 834 71 834 71 762 168 c 0,67,68
 746 191 746 191 713.5 238.5 c 128,-1,69
 681 286 681 286 654 326 c 0,70,71
 593 418 593 418 549.5 463 c 128,-1,72
 506 508 506 508 464 508 c 2,73,-1
 324 508 l 1,74,-1
 324 66 l 2,75,76
 324 26 324 26 300.5 0 c 128,-1,77
 277 -26 277 -26 238 -26 c 0,17,18
EndSplineSet
EndChar

StartChar: uni041B
Encoding: 1051 1051 448
Width: 1230
Flags: W
LayerCount: 2
Fore
SplineSet
988 -26 m 256,0,1
 904 -26 904 -26 904 72 c 2,2,-1
 904 1116 l 1,3,-1
 520 1116 l 2,4,5
 452 1116 452 1116 429 1099.5 c 128,-1,6
 406 1083 406 1083 406 1034 c 2,7,-1
 406 266 l 2,8,9
 406 168 406 168 378.5 106.5 c 128,-1,10
 351 45 351 45 291.5 16.5 c 128,-1,11
 232 -12 232 -12 136 -12 c 0,12,13
 32 -12 32 -12 32 72 c 256,14,15
 32 156 32 156 136 156 c 0,16,17
 184 156 184 156 199 171.5 c 128,-1,18
 214 187 214 187 214 236 c 2,19,-1
 214 1006 l 2,20,21
 214 1112 214 1112 241 1172.5 c 128,-1,22
 268 1233 268 1233 331.5 1258.5 c 128,-1,23
 395 1284 395 1284 506 1284 c 2,24,-1
 1072 1284 l 1,25,-1
 1072 72 l 2,26,27
 1072 -26 1072 -26 988 -26 c 256,0,1
EndSplineSet
EndChar

StartChar: uni041C
Encoding: 1052 1052 449
Width: 1386
Flags: W
LayerCount: 2
Fore
SplineSet
240 -26 m 256,0,1
 156 -26 156 -26 156 70 c 2,2,-1
 156 1200 l 2,3,4
 156 1298 156 1298 236 1298 c 0,5,6
 285 1298 285 1298 322 1247 c 2,7,-1
 692 729 l 1,8,-1
 1064 1247 l 2,9,10
 1100 1298 1100 1298 1148 1298 c 0,11,12
 1230 1298 1230 1298 1230 1200 c 2,13,-1
 1230 70 l 2,14,15
 1230 -26 1230 -26 1146 -26 c 256,16,17
 1062 -26 1062 -26 1062 76 c 2,18,-1
 1062 1008 l 1,19,-1
 765 586 l 2,20,21
 748 561 748 561 732 553.5 c 128,-1,22
 716 546 716 546 694 546 c 0,23,24
 671 546 671 546 654.5 553.5 c 128,-1,25
 638 561 638 561 621 586 c 2,26,-1
 324 1008 l 1,27,-1
 324 76 l 2,28,29
 324 -26 324 -26 240 -26 c 256,0,1
EndSplineSet
EndChar

StartChar: uni041D
Encoding: 1053 1053 450
Width: 1344
Flags: W
LayerCount: 2
Fore
SplineSet
240 -26 m 256,0,1
 156 -26 156 -26 156 70 c 2,2,-1
 156 1200 l 2,3,4
 156 1298 156 1298 236 1298 c 0,5,6
 324 1298 324 1298 324 1200 c 2,7,-1
 324 770 l 1,8,-1
 1020 770 l 1,9,-1
 1020 1200 l 2,10,11
 1020 1298 1020 1298 1104 1298 c 256,12,13
 1188 1298 1188 1298 1188 1200 c 2,14,-1
 1188 70 l 2,15,16
 1188 -26 1188 -26 1104 -26 c 256,17,18
 1020 -26 1020 -26 1020 70 c 2,19,-1
 1020 602 l 1,20,-1
 324 602 l 1,21,-1
 324 70 l 2,22,23
 324 -26 324 -26 240 -26 c 256,0,1
EndSplineSet
EndChar

StartChar: uni041E
Encoding: 1054 1054 451
Width: 1264
Flags: W
LayerCount: 2
Fore
SplineSet
632 -30 m 0,0,1
 474 -30 474 -30 358 30 c 128,-1,2
 242 90 242 90 179 200 c 128,-1,3
 116 310 116 310 116 460 c 2,4,-1
 116 812 l 2,5,6
 116 962 116 962 179 1072 c 128,-1,7
 242 1182 242 1182 358 1242 c 128,-1,8
 474 1302 474 1302 632 1302 c 0,9,10
 789 1302 789 1302 905 1241.5 c 128,-1,11
 1021 1181 1021 1181 1084.5 1071 c 128,-1,12
 1148 961 1148 961 1148 812 c 2,13,-1
 1148 460 l 2,14,15
 1148 311 1148 311 1084.5 201 c 128,-1,16
 1021 91 1021 91 905 30.5 c 128,-1,17
 789 -30 789 -30 632 -30 c 0,0,1
632 138 m 0,18,19
 802 138 802 138 891 222.5 c 128,-1,20
 980 307 980 307 980 466 c 2,21,-1
 980 806 l 2,22,23
 980 971 980 971 890 1052.5 c 128,-1,24
 800 1134 800 1134 632 1134 c 0,25,26
 463 1134 463 1134 373.5 1050 c 128,-1,27
 284 966 284 966 284 806 c 2,28,-1
 284 466 l 2,29,30
 284 307 284 307 373.5 222.5 c 128,-1,31
 463 138 463 138 632 138 c 0,18,19
EndSplineSet
EndChar

StartChar: uni041F
Encoding: 1055 1055 452
Width: 1328
Flags: W
LayerCount: 2
Fore
SplineSet
242 -26 m 256,0,1
 158 -26 158 -26 158 70 c 2,2,-1
 158 1284 l 1,3,-1
 1170 1284 l 1,4,-1
 1170 70 l 2,5,6
 1170 -26 1170 -26 1086 -26 c 256,7,8
 1002 -26 1002 -26 1002 70 c 2,9,-1
 1002 1116 l 1,10,-1
 326 1116 l 1,11,-1
 326 70 l 2,12,13
 326 -26 326 -26 242 -26 c 256,0,1
EndSplineSet
EndChar

StartChar: uni0420
Encoding: 1056 1056 453
Width: 1160
Flags: W
LayerCount: 2
Fore
SplineSet
240 -26 m 256,0,1
 156 -26 156 -26 156 66 c 2,2,-1
 156 1194 l 2,3,4
 156 1294 156 1294 236 1294 c 2,5,-1
 618 1294 l 2,6,7
 876 1294 876 1294 990 1219 c 128,-1,8
 1104 1144 1104 1144 1104 974 c 0,9,10
 1104 809 1104 809 1004.5 720.5 c 128,-1,11
 905 632 905 632 714 632 c 2,12,-1
 324 632 l 1,13,-1
 324 66 l 2,14,15
 324 -26 324 -26 240 -26 c 256,0,1
324 800 m 1,16,-1
 618 800 l 2,17,18
 728 800 728 800 798.5 809 c 128,-1,19
 869 818 869 818 902.5 853.5 c 128,-1,20
 936 889 936 889 936 968 c 0,21,22
 936 1032 936 1032 909.5 1066 c 128,-1,23
 883 1100 883 1100 814 1113 c 128,-1,24
 745 1126 745 1126 618 1126 c 2,25,-1
 324 1126 l 1,26,-1
 324 800 l 1,16,-1
EndSplineSet
EndChar

StartChar: uni0421
Encoding: 1057 1057 454
Width: 1262
Flags: W
LayerCount: 2
Fore
SplineSet
648 -12 m 2,0,1
 455 -12 455 -12 342 24 c 128,-1,2
 229 60 229 60 179.5 143 c 128,-1,3
 130 226 130 226 130 368 c 2,4,-1
 130 904 l 2,5,6
 130 1044 130 1044 177 1127 c 128,-1,7
 224 1210 224 1210 330 1247 c 128,-1,8
 436 1284 436 1284 612 1284 c 2,9,-1
 930 1284 l 2,10,11
 1009 1284 1009 1284 1060.5 1256.5 c 128,-1,12
 1112 1229 1112 1229 1137 1177 c 128,-1,13
 1162 1125 1162 1125 1162 1052 c 0,14,15
 1162 926 1162 926 1078 926 c 0,16,17
 1033 926 1033 926 1015 954.5 c 128,-1,18
 997 983 997 983 994 1032 c 0,19,20
 991 1079 991 1079 980.5 1097.5 c 128,-1,21
 970 1116 970 1116 916 1116 c 2,22,-1
 612 1116 l 2,23,24
 480 1116 480 1116 412.5 1100 c 128,-1,25
 345 1084 345 1084 321.5 1037.5 c 128,-1,26
 298 991 298 991 298 900 c 2,27,-1
 298 372 l 2,28,29
 298 280 298 280 323 233.5 c 128,-1,30
 348 187 348 187 423 171.5 c 128,-1,31
 498 156 498 156 648 156 c 2,32,-1
 916 156 l 2,33,34
 970 156 970 156 980.5 175 c 128,-1,35
 991 194 991 194 994 240 c 0,36,37
 999 297 999 297 1018.5 321.5 c 128,-1,38
 1038 346 1038 346 1078 346 c 0,39,40
 1122 345 1122 345 1142 314.5 c 128,-1,41
 1162 284 1162 284 1162 218 c 0,42,43
 1162 145 1162 145 1137 93.5 c 128,-1,44
 1112 42 1112 42 1060.5 15 c 128,-1,45
 1009 -12 1009 -12 930 -12 c 2,46,-1
 648 -12 l 2,0,1
EndSplineSet
EndChar

StartChar: uni0422
Encoding: 1058 1058 455
Width: 1040
Flags: W
LayerCount: 2
Fore
SplineSet
518 -26 m 0,0,1
 475 -26 475 -26 450.5 -1.5 c 128,-1,2
 426 23 426 23 426 66 c 2,3,-1
 426 1116 l 1,4,-1
 138 1116 l 2,5,6
 93 1116 93 1116 66.5 1138.5 c 128,-1,7
 40 1161 40 1161 40 1200 c 256,8,9
 40 1239 40 1239 66.5 1261.5 c 128,-1,10
 93 1284 93 1284 138 1284 c 2,11,-1
 900 1284 l 2,12,13
 998 1284 998 1284 998 1200 c 256,14,15
 998 1116 998 1116 900 1116 c 2,16,-1
 616 1116 l 1,17,-1
 616 66 l 2,18,19
 616 25 616 25 589 -0.5 c 128,-1,20
 562 -26 562 -26 518 -26 c 0,0,1
EndSplineSet
EndChar

StartChar: uni0423
Encoding: 1059 1059 456
Width: 1138
Flags: W
LayerCount: 2
Fore
SplineSet
348 -24 m 0,0,1
 269 -24 269 -24 217.5 2.5 c 128,-1,2
 166 29 166 29 141 84 c 128,-1,3
 116 139 116 139 116 222 c 0,4,5
 116 334 116 334 200 334 c 256,6,7
 284 334 284 334 284 236 c 0,8,9
 284 181 284 181 296.5 162.5 c 128,-1,10
 309 144 309 144 346 144 c 0,11,12
 381 144 381 144 403 182 c 2,13,-1
 477 316 l 1,14,-1
 85 1169 l 2,15,16
 65 1215 65 1215 84.5 1249.5 c 128,-1,17
 104 1284 104 1284 156 1284 c 0,18,19
 212 1284 212 1284 243 1221 c 2,20,-1
 586 482 l 1,21,-1
 941 1223 l 2,22,23
 968 1284 968 1284 1028 1284 c 0,24,25
 1073 1284 1073 1284 1093.5 1253.5 c 128,-1,26
 1114 1223 1114 1223 1101 1172 c 1,27,-1
 565 87 l 2,28,29
 540 37 540 37 480.5 6.5 c 128,-1,30
 421 -24 421 -24 348 -24 c 0,0,1
EndSplineSet
EndChar

StartChar: uni040E
Encoding: 1038 1038 457
Width: 1138
Flags: W
LayerCount: 2
Fore
SplineSet
468 1250 m 2,0,1
 350 1250 350 1250 302 1310.5 c 128,-1,2
 254 1371 254 1371 254 1516 c 2,3,-1
 254 1602 l 1,4,-1
 422 1602 l 1,5,-1
 422 1484 l 2,6,7
 422 1439 422 1439 432 1428.5 c 128,-1,8
 442 1418 442 1418 484 1418 c 2,9,-1
 688 1418 l 2,10,11
 729 1418 729 1418 738.5 1428.5 c 128,-1,12
 748 1439 748 1439 748 1484 c 2,13,-1
 748 1602 l 1,14,-1
 916 1602 l 1,15,-1
 916 1516 l 2,16,17
 916 1369 916 1369 868.5 1309.5 c 128,-1,18
 821 1250 821 1250 702 1250 c 2,19,-1
 468 1250 l 2,0,1
348 -24 m 0,20,21
 269 -24 269 -24 217.5 2.5 c 128,-1,22
 166 29 166 29 141 84 c 128,-1,23
 116 139 116 139 116 222 c 0,24,25
 116 334 116 334 200 334 c 256,26,27
 284 334 284 334 284 236 c 0,28,29
 284 181 284 181 296.5 162.5 c 128,-1,30
 309 144 309 144 346 144 c 0,31,32
 381 144 381 144 403 182 c 2,33,-1
 477 316 l 1,34,-1
 85 1169 l 2,35,36
 65 1215 65 1215 84.5 1249.5 c 128,-1,37
 104 1284 104 1284 156 1284 c 0,38,39
 212 1284 212 1284 243 1221 c 2,40,-1
 586 482 l 1,41,-1
 941 1223 l 2,42,43
 968 1284 968 1284 1028 1284 c 0,44,45
 1073 1284 1073 1284 1093.5 1253.5 c 128,-1,46
 1114 1223 1114 1223 1101 1172 c 1,47,-1
 565 87 l 2,48,49
 540 37 540 37 480.5 6.5 c 128,-1,50
 421 -24 421 -24 348 -24 c 0,20,21
EndSplineSet
EndChar

StartChar: uni0424
Encoding: 1060 1060 458
Width: 1176
Flags: W
LayerCount: 2
Fore
SplineSet
594 -26 m 0,0,1
 549 -26 549 -26 525.5 0 c 128,-1,2
 502 26 502 26 502 66 c 2,3,-1
 502 137 l 1,4,5
 301 163 301 163 186.5 292.5 c 128,-1,6
 72 422 72 422 72 624 c 2,7,-1
 72 648 l 2,8,9
 72 850 72 850 186.5 979.5 c 128,-1,10
 301 1109 301 1109 502 1135 c 1,11,-1
 502 1208 l 2,12,13
 502 1298 502 1298 592 1298 c 0,14,15
 684 1298 684 1298 684 1204 c 2,16,-1
 684 1135 l 1,17,18
 880 1107 880 1107 992 977.5 c 128,-1,19
 1104 848 1104 848 1104 648 c 2,20,-1
 1104 624 l 2,21,22
 1104 425 1104 425 992 295 c 128,-1,23
 880 165 880 165 684 137 c 1,24,-1
 684 66 l 2,25,26
 684 -26 684 -26 594 -26 c 0,0,1
502 286 m 1,27,-1
 502 986 l 1,28,29
 374 967 374 967 307 880.5 c 128,-1,30
 240 794 240 794 240 648 c 2,31,-1
 240 624 l 2,32,33
 240 476 240 476 305 392 c 128,-1,34
 370 308 370 308 502 286 c 1,27,-1
684 288 m 1,35,36
 806 308 806 308 871 395 c 128,-1,37
 936 482 936 482 936 624 c 2,38,-1
 936 648 l 2,39,40
 936 789 936 789 871 875.5 c 128,-1,41
 806 962 806 962 684 984 c 1,42,-1
 684 288 l 1,35,36
EndSplineSet
EndChar

StartChar: uni0425
Encoding: 1061 1061 459
Width: 1210
Flags: W
LayerCount: 2
Fore
SplineSet
154 -26 m 0,0,1
 96 -26 96 -26 73.5 20 c 128,-1,2
 51 66 51 66 89 113 c 2,3,-1
 540 694 l 1,4,-1
 540 574 l 1,5,-1
 88 1156 l 2,6,7
 64 1186 64 1186 65.5 1219.5 c 128,-1,8
 67 1253 67 1253 89.5 1276.5 c 128,-1,9
 112 1300 112 1300 152 1300 c 0,10,11
 174 1300 174 1300 192 1285.5 c 128,-1,12
 210 1271 210 1271 226 1249 c 2,13,-1
 650 690 l 1,14,-1
 558 690 l 1,15,-1
 984 1249 l 2,16,17
 1002 1273 1002 1273 1021.5 1285.5 c 128,-1,18
 1041 1298 1041 1298 1070 1298 c 0,19,20
 1103 1298 1103 1298 1123.5 1276 c 128,-1,21
 1144 1254 1144 1254 1145.5 1221.5 c 128,-1,22
 1147 1189 1147 1189 1121 1157 c 2,23,-1
 670 574 l 1,24,-1
 670 694 l 1,25,-1
 1121 114 l 2,26,27
 1146 86 1146 86 1144.5 53.5 c 128,-1,28
 1143 21 1143 21 1120 -2.5 c 128,-1,29
 1097 -26 1097 -26 1056 -26 c 0,30,31
 1023 -26 1023 -26 984 19 c 2,32,-1
 558 580 l 1,33,-1
 650 580 l 1,34,-1
 226 19 l 2,35,36
 192 -26 192 -26 154 -26 c 0,0,1
EndSplineSet
EndChar

StartChar: uni0427
Encoding: 1063 1063 460
Width: 1290
Flags: W
LayerCount: 2
Fore
SplineSet
1052 -26 m 0,0,1
 966 -26 966 -26 966 72 c 2,2,-1
 966 396 l 1,3,4
 844 308 844 308 652 308 c 2,5,-1
 582 308 l 2,6,7
 407 308 407 308 301.5 345 c 128,-1,8
 196 382 196 382 149 465.5 c 128,-1,9
 102 549 102 549 102 688 c 2,10,-1
 102 1196 l 2,11,12
 102 1298 102 1298 186 1298 c 256,13,14
 270 1298 270 1298 270 1198 c 2,15,-1
 270 692 l 2,16,17
 270 601 270 601 293 554.5 c 128,-1,18
 316 508 316 508 383.5 492 c 128,-1,19
 451 476 451 476 582 476 c 2,20,-1
 652 476 l 2,21,22
 810 476 810 476 888 555.5 c 128,-1,23
 966 635 966 635 966 796 c 2,24,-1
 966 1198 l 2,25,26
 966 1298 966 1298 1050 1298 c 256,27,28
 1134 1298 1134 1298 1134 1202 c 2,29,-1
 1134 72 l 2,30,31
 1134 -26 1134 -26 1052 -26 c 0,0,1
EndSplineSet
EndChar

StartChar: uni0426
Encoding: 1062 1062 461
Width: 1246
Flags: W
LayerCount: 2
Fore
SplineSet
1086 -196 m 256,0,1
 1002 -196 1002 -196 1002 -94 c 2,2,-1
 1002 -12 l 1,3,-1
 158 -12 l 1,4,-1
 158 1172 l 2,5,6
 158 1274 158 1274 242 1274 c 256,7,8
 326 1274 326 1274 326 1172 c 2,9,-1
 326 156 l 1,10,-1
 886 156 l 1,11,-1
 886 1172 l 2,12,13
 886 1274 886 1274 970 1274 c 256,14,15
 1054 1274 1054 1274 1054 1172 c 2,16,-1
 1054 155 l 1,17,18
 1112 151 1112 151 1141 111 c 128,-1,19
 1170 71 1170 71 1170 0 c 2,20,-1
 1170 -94 l 2,21,22
 1170 -196 1170 -196 1086 -196 c 256,0,1
EndSplineSet
EndChar

StartChar: uni0428
Encoding: 1064 1064 462
Width: 1472
Flags: W
LayerCount: 2
Fore
SplineSet
158 -12 m 1,0,-1
 158 1172 l 2,1,2
 158 1274 158 1274 242 1274 c 256,3,4
 326 1274 326 1274 326 1172 c 2,5,-1
 326 156 l 1,6,-1
 652 156 l 1,7,-1
 652 1172 l 2,8,9
 652 1274 652 1274 736 1274 c 256,10,11
 820 1274 820 1274 820 1172 c 2,12,-1
 820 156 l 1,13,-1
 1146 156 l 1,14,-1
 1146 1172 l 2,15,16
 1146 1274 1146 1274 1230 1274 c 256,17,18
 1314 1274 1314 1274 1314 1172 c 2,19,-1
 1314 -12 l 1,20,-1
 158 -12 l 1,0,-1
EndSplineSet
EndChar

StartChar: uni0429
Encoding: 1065 1065 463
Width: 1506
Flags: W
LayerCount: 2
Fore
SplineSet
1346 -196 m 256,0,1
 1262 -196 1262 -196 1262 -94 c 2,2,-1
 1262 -12 l 1,3,-1
 158 -12 l 1,4,-1
 158 1172 l 2,5,6
 158 1274 158 1274 242 1274 c 256,7,8
 326 1274 326 1274 326 1172 c 2,9,-1
 326 156 l 1,10,-1
 646 156 l 1,11,-1
 646 1172 l 2,12,13
 646 1274 646 1274 730 1274 c 256,14,15
 814 1274 814 1274 814 1172 c 2,16,-1
 814 156 l 1,17,-1
 1146 156 l 1,18,-1
 1146 1172 l 2,19,20
 1146 1274 1146 1274 1230 1274 c 256,21,22
 1314 1274 1314 1274 1314 1172 c 2,23,-1
 1314 155 l 1,24,25
 1372 151 1372 151 1401 111 c 128,-1,26
 1430 71 1430 71 1430 0 c 2,27,-1
 1430 -94 l 2,28,29
 1430 -196 1430 -196 1346 -196 c 256,0,1
EndSplineSet
EndChar

StartChar: uni040F
Encoding: 1039 1039 464
Width: 1328
Flags: W
LayerCount: 2
Fore
SplineSet
664 -196 m 256,0,1
 580 -196 580 -196 580 -94 c 2,2,-1
 580 -12 l 1,3,-1
 158 -12 l 1,4,-1
 158 1172 l 2,5,6
 158 1274 158 1274 242 1274 c 256,7,8
 326 1274 326 1274 326 1172 c 2,9,-1
 326 156 l 1,10,-1
 1002 156 l 1,11,-1
 1002 1172 l 2,12,13
 1002 1274 1002 1274 1086 1274 c 256,14,15
 1170 1274 1170 1274 1170 1172 c 2,16,-1
 1170 -12 l 1,17,-1
 748 -12 l 1,18,-1
 748 -94 l 2,19,20
 748 -196 748 -196 664 -196 c 256,0,1
EndSplineSet
EndChar

StartChar: uni042C
Encoding: 1068 1068 465
Width: 1168
Flags: W
LayerCount: 2
Fore
SplineSet
236 -26 m 2,0,1
 156 -26 156 -26 156 72 c 2,2,-1
 156 1192 l 2,3,4
 156 1284 156 1284 240 1284 c 256,5,6
 324 1284 324 1284 324 1194 c 2,7,-1
 324 964 l 1,8,-1
 618 964 l 2,9,10
 758 964 758 964 867.5 899.5 c 128,-1,11
 977 835 977 835 1040.5 723 c 128,-1,12
 1104 611 1104 611 1104 468 c 0,13,14
 1104 326 1104 326 1041 214.5 c 128,-1,15
 978 103 978 103 868 38.5 c 128,-1,16
 758 -26 758 -26 618 -26 c 2,17,-1
 236 -26 l 2,0,1
324 142 m 1,18,-1
 618 142 l 2,19,20
 714 142 714 142 785.5 182.5 c 128,-1,21
 857 223 857 223 896.5 296.5 c 128,-1,22
 936 370 936 370 936 468 c 0,23,24
 936 567 936 567 896.5 640.5 c 128,-1,25
 857 714 857 714 785.5 755 c 128,-1,26
 714 796 714 796 618 796 c 2,27,-1
 324 796 l 1,28,-1
 324 142 l 1,18,-1
EndSplineSet
EndChar

StartChar: uni042A
Encoding: 1066 1066 466
Width: 1312
Flags: W
LayerCount: 2
Fore
SplineSet
386 -26 m 2,0,1
 300 -26 300 -26 300 72 c 2,2,-1
 300 1116 l 1,3,-1
 140 1116 l 2,4,5
 36 1116 36 1116 36 1202 c 0,6,7
 36 1284 36 1284 140 1284 c 2,8,-1
 468 1284 l 1,9,-1
 468 964 l 1,10,-1
 768 964 l 2,11,12
 905 964 905 964 1013.5 899 c 128,-1,13
 1122 834 1122 834 1185 721.5 c 128,-1,14
 1248 609 1248 609 1248 468 c 0,15,16
 1248 328 1248 328 1186 216 c 128,-1,17
 1124 104 1124 104 1016.5 39 c 128,-1,18
 909 -26 909 -26 774 -26 c 2,19,-1
 386 -26 l 2,0,1
468 142 m 1,20,-1
 774 142 l 2,21,22
 866 142 866 142 935 182.5 c 128,-1,23
 1004 223 1004 223 1042 296 c 128,-1,24
 1080 369 1080 369 1080 466 c 0,25,26
 1080 565 1080 565 1041 639.5 c 128,-1,27
 1002 714 1002 714 931.5 755 c 128,-1,28
 861 796 861 796 768 796 c 2,29,-1
 468 796 l 1,30,-1
 468 142 l 1,20,-1
EndSplineSet
EndChar

StartChar: uni042B
Encoding: 1067 1067 467
Width: 1484
Flags: W
LayerCount: 2
Fore
SplineSet
236 -26 m 2,0,1
 156 -26 156 -26 156 72 c 2,2,-1
 156 1192 l 2,3,4
 156 1284 156 1284 240 1284 c 256,5,6
 324 1284 324 1284 324 1194 c 2,7,-1
 324 964 l 1,8,-1
 618 964 l 2,9,10
 758 964 758 964 868 899 c 128,-1,11
 978 834 978 834 1041 722 c 128,-1,12
 1104 610 1104 610 1104 468 c 256,13,14
 1104 326 1104 326 1041 214.5 c 128,-1,15
 978 103 978 103 868 38.5 c 128,-1,16
 758 -26 758 -26 618 -26 c 2,17,-1
 236 -26 l 2,0,1
324 142 m 1,18,-1
 618 142 l 2,19,20
 714 142 714 142 785.5 182 c 128,-1,21
 857 222 857 222 896.5 295 c 128,-1,22
 936 368 936 368 936 467 c 0,23,24
 936 565 936 565 896 639.5 c 128,-1,25
 856 714 856 714 784.5 755 c 128,-1,26
 713 796 713 796 618 796 c 2,27,-1
 324 796 l 1,28,-1
 324 142 l 1,18,-1
1244 -26 m 256,29,30
 1160 -26 1160 -26 1160 66 c 2,31,-1
 1160 1204 l 2,32,33
 1160 1298 1160 1298 1244 1298 c 256,34,35
 1328 1298 1328 1298 1328 1204 c 2,36,-1
 1328 66 l 2,37,38
 1328 -26 1328 -26 1244 -26 c 256,29,30
EndSplineSet
EndChar

StartChar: uni0409
Encoding: 1033 1033 468
Width: 1888
Flags: W
LayerCount: 2
Fore
SplineSet
994 -26 m 2,0,1
 954 -26 954 -26 929 1.5 c 128,-1,2
 904 29 904 29 904 72 c 2,3,-1
 904 1116 l 1,4,-1
 520 1116 l 2,5,6
 444 1116 444 1116 415 1097.5 c 128,-1,7
 386 1079 386 1079 386 1034 c 2,8,-1
 386 266 l 2,9,10
 386 168 386 168 361.5 106.5 c 128,-1,11
 337 45 337 45 285 16.5 c 128,-1,12
 233 -12 233 -12 148 -12 c 0,13,14
 32 -12 32 -12 32 72 c 0,15,16
 32 109 32 109 60.5 129.5 c 128,-1,17
 89 150 89 150 138 150 c 0,18,19
 186 150 186 150 202 166 c 128,-1,20
 218 182 218 182 218 230 c 2,21,-1
 218 1006 l 2,22,23
 218 1113 218 1113 244 1173.5 c 128,-1,24
 270 1234 270 1234 333 1259 c 128,-1,25
 396 1284 396 1284 506 1284 c 2,26,-1
 1072 1284 l 1,27,-1
 1072 844 l 1,28,-1
 1348 844 l 2,29,30
 1493 844 1493 844 1601 790 c 128,-1,31
 1709 736 1709 736 1768.5 638.5 c 128,-1,32
 1828 541 1828 541 1828 408 c 0,33,34
 1828 277 1828 277 1769 179 c 128,-1,35
 1710 81 1710 81 1603.5 27.5 c 128,-1,36
 1497 -26 1497 -26 1354 -26 c 2,37,-1
 994 -26 l 2,0,1
1072 142 m 1,38,-1
 1354 142 l 2,39,40
 1503 142 1503 142 1581.5 210.5 c 128,-1,41
 1660 279 1660 279 1660 408 c 0,42,43
 1660 538 1660 538 1579.5 607 c 128,-1,44
 1499 676 1499 676 1348 676 c 2,45,-1
 1072 676 l 1,46,-1
 1072 142 l 1,38,-1
EndSplineSet
EndChar

StartChar: uni040A
Encoding: 1034 1034 469
Width: 1944
Flags: W
LayerCount: 2
Fore
SplineSet
240 -26 m 256,0,1
 156 -26 156 -26 156 70 c 2,2,-1
 156 1200 l 2,3,4
 156 1298 156 1298 236 1298 c 0,5,6
 324 1298 324 1298 324 1200 c 2,7,-1
 324 844 l 1,8,-1
 990 844 l 1,9,-1
 990 1200 l 2,10,11
 990 1298 990 1298 1072 1298 c 0,12,13
 1160 1298 1160 1298 1160 1200 c 2,14,-1
 1160 844 l 1,15,-1
 1416 844 l 2,16,17
 1557 844 1557 844 1662.5 790 c 128,-1,18
 1768 736 1768 736 1826 638 c 128,-1,19
 1884 540 1884 540 1884 408 c 0,20,21
 1884 277 1884 277 1826 179 c 128,-1,22
 1768 81 1768 81 1663 27.5 c 128,-1,23
 1558 -26 1558 -26 1416 -26 c 2,24,-1
 1074 -26 l 2,25,26
 1036 -26 1036 -26 1013 2 c 128,-1,27
 990 30 990 30 990 74 c 2,28,-1
 990 676 l 1,29,-1
 324 676 l 1,30,-1
 324 72 l 2,31,32
 324 -26 324 -26 240 -26 c 256,0,1
1160 142 m 1,33,-1
 1416 142 l 2,34,35
 1561 142 1561 142 1638.5 211 c 128,-1,36
 1716 280 1716 280 1716 408 c 0,37,38
 1716 537 1716 537 1638.5 606.5 c 128,-1,39
 1561 676 1561 676 1416 676 c 2,40,-1
 1160 676 l 1,41,-1
 1160 142 l 1,33,-1
EndSplineSet
EndChar

StartChar: uni0405
Encoding: 1029 1029 470
Width: 1316
Flags: W
LayerCount: 2
Fore
SplineSet
624 -28 m 2,0,1
 492 -28 492 -28 393.5 -9.5 c 128,-1,2
 295 9 295 9 230 54 c 0,3,4
 110 138 110 138 110 330 c 0,5,6
 110 404 110 404 128.5 433 c 128,-1,7
 147 462 147 462 190 462 c 0,8,9
 231 462 231 462 249.5 444 c 128,-1,10
 268 426 268 426 273.5 402.5 c 128,-1,11
 279 379 279 379 280 364 c 0,12,13
 286 288 286 288 296 247 c 128,-1,14
 306 206 306 206 336 182 c 0,15,16
 369 157 369 157 436 148.5 c 128,-1,17
 503 140 503 140 624 140 c 2,18,-1
 860 140 l 2,19,20
 916 140 916 140 956 163.5 c 128,-1,21
 996 187 996 187 1017 229.5 c 128,-1,22
 1038 272 1038 272 1038 328 c 0,23,24
 1038 394 1038 394 1002 453 c 128,-1,25
 966 512 966 512 870 530 c 2,26,-1
 398 620 l 2,27,28
 250 649 250 649 180 729.5 c 128,-1,29
 110 810 110 810 110 946 c 0,30,31
 110 1123 110 1123 220.5 1211.5 c 128,-1,32
 331 1300 331 1300 536 1300 c 2,33,-1
 688 1300 l 2,34,35
 798 1300 798 1300 898 1287.5 c 128,-1,36
 998 1275 998 1275 1068 1230 c 0,37,38
 1134 1188 1134 1188 1170 1114.5 c 128,-1,39
 1206 1041 1206 1041 1206 942 c 0,40,41
 1206 875 1206 875 1187 844.5 c 128,-1,42
 1168 814 1168 814 1124 814 c 0,43,44
 1081 814 1081 814 1060 840.5 c 128,-1,45
 1039 867 1039 867 1036 912 c 0,46,47
 1032 962 1032 962 1027 998 c 128,-1,48
 1022 1034 1022 1034 1010 1058.5 c 128,-1,49
 998 1083 998 1083 972 1098 c 0,50,51
 938 1118 938 1118 871.5 1125 c 128,-1,52
 805 1132 805 1132 688 1132 c 2,53,-1
 476 1132 l 2,54,55
 383 1132 383 1132 330.5 1088.5 c 128,-1,56
 278 1045 278 1045 278 956 c 0,57,58
 278 889 278 889 316 837.5 c 128,-1,59
 354 786 354 786 454 768 c 2,60,-1
 922 684 l 2,61,62
 1059 660 1059 660 1132.5 564 c 128,-1,63
 1206 468 1206 468 1206 324 c 0,64,65
 1206 210 1206 210 1160 131.5 c 128,-1,66
 1114 53 1114 53 1026.5 12.5 c 128,-1,67
 939 -28 939 -28 816 -28 c 2,68,-1
 624 -28 l 2,0,1
EndSplineSet
EndChar

StartChar: uni0404
Encoding: 1028 1028 471
Width: 1256
Flags: W
LayerCount: 2
Fore
SplineSet
648 -12 m 2,0,1
 456 -12 456 -12 342.5 23.5 c 128,-1,2
 229 59 229 59 179.5 141 c 128,-1,3
 130 223 130 223 130 362 c 2,4,-1
 130 910 l 2,5,6
 130 1050 130 1050 179.5 1131.5 c 128,-1,7
 229 1213 229 1213 342.5 1248.5 c 128,-1,8
 456 1284 456 1284 648 1284 c 2,9,-1
 930 1284 l 2,10,11
 1009 1284 1009 1284 1060.5 1257 c 128,-1,12
 1112 1230 1112 1230 1137 1178.5 c 128,-1,13
 1162 1127 1162 1127 1162 1054 c 0,14,15
 1162 926 1162 926 1078 926 c 0,16,17
 1032 926 1032 926 1014.5 956 c 128,-1,18
 997 986 997 986 994 1032 c 0,19,20
 992 1063 992 1063 987.5 1081.5 c 128,-1,21
 983 1100 983 1100 967.5 1108 c 128,-1,22
 952 1116 952 1116 916 1116 c 2,23,-1
 648 1116 l 2,24,25
 527 1116 527 1116 455.5 1107.5 c 128,-1,26
 384 1099 384 1099 348 1070 c 0,27,28
 318 1048 318 1048 308 1009 c 128,-1,29
 298 970 298 970 298 910 c 2,30,-1
 298 750 l 1,31,-1
 824 750 l 2,32,33
 926 750 926 750 926 668 c 0,34,35
 926 582 926 582 824 582 c 2,36,-1
 298 582 l 1,37,-1
 298 368 l 2,38,39
 298 310 298 310 307.5 270 c 128,-1,40
 317 230 317 230 344 206 c 0,41,42
 379 176 379 176 453 166 c 128,-1,43
 527 156 527 156 648 156 c 2,44,-1
 916 156 l 2,45,46
 952 156 952 156 967.5 164 c 128,-1,47
 983 172 983 172 987.5 190.5 c 128,-1,48
 992 209 992 209 994 240 c 0,49,50
 995 258 995 258 1000 283 c 128,-1,51
 1005 308 1005 308 1022.5 327 c 128,-1,52
 1040 346 1040 346 1078 346 c 0,53,54
 1123 346 1123 346 1142.5 314.5 c 128,-1,55
 1162 283 1162 283 1162 220 c 0,56,57
 1162 147 1162 147 1137 95 c 128,-1,58
 1112 43 1112 43 1060.5 15.5 c 128,-1,59
 1009 -12 1009 -12 930 -12 c 2,60,-1
 648 -12 l 2,0,1
EndSplineSet
EndChar

StartChar: uni0406
Encoding: 1030 1030 473
Width: 480
Flags: W
LayerCount: 2
Fore
SplineSet
240 -26 m 256,0,1
 156 -26 156 -26 156 66 c 2,2,-1
 156 1204 l 2,3,4
 156 1298 156 1298 240 1298 c 256,5,6
 324 1298 324 1298 324 1204 c 2,7,-1
 324 66 l 2,8,9
 324 -26 324 -26 240 -26 c 256,0,1
EndSplineSet
EndChar

StartChar: uni0407
Encoding: 1031 1031 474
Width: 480
Flags: W
LayerCount: 2
Fore
SplineSet
240 -26 m 256,0,1
 156 -26 156 -26 156 66 c 2,2,-1
 156 1204 l 2,3,4
 156 1298 156 1298 240 1298 c 256,5,6
 324 1298 324 1298 324 1204 c 2,7,-1
 324 66 l 2,8,9
 324 -26 324 -26 240 -26 c 256,0,1
68 1400 m 0,10,11
 16 1400 16 1400 -24 1434.5 c 128,-1,12
 -64 1469 -64 1469 -64 1512 c 0,13,14
 -64 1557 -64 1557 -22.5 1592.5 c 128,-1,15
 19 1628 19 1628 70 1628 c 256,16,17
 121 1628 121 1628 162.5 1593 c 128,-1,18
 204 1558 204 1558 204 1514 c 0,19,20
 204 1469 204 1469 162.5 1434.5 c 128,-1,21
 121 1400 121 1400 68 1400 c 0,10,11
408 1400 m 0,22,23
 356 1400 356 1400 316 1434.5 c 128,-1,24
 276 1469 276 1469 276 1512 c 0,25,26
 276 1557 276 1557 317.5 1592.5 c 128,-1,27
 359 1628 359 1628 410 1628 c 256,28,29
 461 1628 461 1628 502.5 1593 c 128,-1,30
 544 1558 544 1558 544 1514 c 0,31,32
 544 1469 544 1469 502.5 1434.5 c 128,-1,33
 461 1400 461 1400 408 1400 c 0,22,23
EndSplineSet
EndChar

StartChar: uni0408
Encoding: 1032 1032 475
Width: 1182
Flags: W
LayerCount: 2
Fore
SplineSet
534 -28 m 0,0,1
 434 -28 434 -28 342.5 -14.5 c 128,-1,2
 251 -1 251 -1 186 42 c 0,3,4
 117 89 117 89 85.5 165.5 c 128,-1,5
 54 242 54 242 54 336 c 0,6,7
 54 405 54 405 72.5 433.5 c 128,-1,8
 91 462 91 462 134 462 c 0,9,10
 188 462 188 462 204.5 431 c 128,-1,11
 221 400 221 400 224 364 c 0,12,13
 230 303 230 303 234.5 260.5 c 128,-1,14
 239 218 239 218 264.5 191.5 c 128,-1,15
 290 165 290 165 355.5 152.5 c 128,-1,16
 421 140 421 140 548 140 c 0,17,18
 661 140 661 140 727 151.5 c 128,-1,19
 793 163 793 163 824 196 c 0,20,21
 847 220 847 220 855.5 258.5 c 128,-1,22
 864 297 864 297 864 352 c 2,23,-1
 864 1206 l 2,24,25
 864 1248 864 1248 887 1273 c 128,-1,26
 910 1298 910 1298 950 1298 c 0,27,28
 1032 1298 1032 1298 1032 1204 c 2,29,-1
 1032 346 l 2,30,31
 1032 249 1032 249 1009.5 180 c 128,-1,32
 987 111 987 111 936 66 c 0,33,34
 879 17 879 17 784 -5.5 c 128,-1,35
 689 -28 689 -28 534 -28 c 0,0,1
EndSplineSet
EndChar

StartChar: uni040B
Encoding: 1035 1035 476
Width: 1484
Flags: W
LayerCount: 2
Fore
SplineSet
502 -26 m 0,0,1
 418 -26 418 -26 418 70 c 2,2,-1
 418 1116 l 1,3,-1
 138 1116 l 2,4,5
 93 1116 93 1116 66.5 1138.5 c 128,-1,6
 40 1161 40 1161 40 1200 c 256,7,8
 40 1239 40 1239 66.5 1261.5 c 128,-1,9
 93 1284 93 1284 138 1284 c 2,10,-1
 880 1284 l 2,11,12
 984 1284 984 1284 984 1200 c 256,13,14
 984 1116 984 1116 880 1116 c 2,15,-1
 592 1116 l 1,16,-1
 592 875 l 1,17,18
 660 919 660 919 741 941.5 c 128,-1,19
 822 964 822 964 942 964 c 0,20,21
 1096 964 1096 964 1192.5 925 c 128,-1,22
 1289 886 1289 886 1334.5 802 c 128,-1,23
 1380 718 1380 718 1380 584 c 2,24,-1
 1380 76 l 2,25,26
 1380 -26 1380 -26 1296 -26 c 256,27,28
 1212 -26 1212 -26 1212 74 c 2,29,-1
 1212 580 l 2,30,31
 1212 643 1212 643 1201.5 684.5 c 128,-1,32
 1191 726 1191 726 1164 750 c 0,33,34
 1133 777 1133 777 1073 786.5 c 128,-1,35
 1013 796 1013 796 948 796 c 0,36,37
 845 796 845 796 764.5 770.5 c 128,-1,38
 684 745 684 745 638 676 c 128,-1,39
 592 607 592 607 592 476 c 2,40,-1
 592 74 l 2,41,42
 592 -26 592 -26 502 -26 c 0,0,1
EndSplineSet
EndChar

StartChar: uni042E
Encoding: 1070 1070 477
Width: 1534
Flags: W
LayerCount: 2
Fore
SplineSet
910 -30 m 0,0,1
 754 -30 754 -30 636.5 31.5 c 128,-1,2
 519 93 519 93 453.5 203 c 128,-1,3
 388 313 388 313 388 460 c 2,4,-1
 388 562 l 1,5,-1
 324 562 l 1,6,-1
 324 64 l 2,7,8
 324 -26 324 -26 240 -26 c 256,9,10
 156 -26 156 -26 156 66 c 2,11,-1
 156 1204 l 2,12,13
 156 1298 156 1298 238 1298 c 0,14,15
 279 1298 279 1298 301.5 1273 c 128,-1,16
 324 1248 324 1248 324 1206 c 2,17,-1
 324 730 l 1,18,-1
 388 730 l 1,19,-1
 388 812 l 2,20,21
 388 959 388 959 453.5 1069.5 c 128,-1,22
 519 1180 519 1180 636.5 1241 c 128,-1,23
 754 1302 754 1302 910 1302 c 0,24,25
 1064 1302 1064 1302 1178 1241 c 128,-1,26
 1292 1180 1292 1180 1355 1070 c 128,-1,27
 1418 960 1418 960 1418 812 c 2,28,-1
 1418 460 l 2,29,30
 1418 312 1418 312 1355 202 c 128,-1,31
 1292 92 1292 92 1178 31 c 128,-1,32
 1064 -30 1064 -30 910 -30 c 0,0,1
914 138 m 0,33,34
 1078 138 1078 138 1164 222.5 c 128,-1,35
 1250 307 1250 307 1250 466 c 2,36,-1
 1250 806 l 2,37,38
 1250 965 1250 965 1164 1049.5 c 128,-1,39
 1078 1134 1078 1134 914 1134 c 0,40,41
 748 1134 748 1134 655 1047.5 c 128,-1,42
 562 961 562 961 562 806 c 2,43,-1
 562 466 l 2,44,45
 562 310 562 310 655 224 c 128,-1,46
 748 138 748 138 914 138 c 0,33,34
EndSplineSet
EndChar

StartChar: uni042F
Encoding: 1071 1071 478
Width: 1258
Flags: W
LayerCount: 2
Fore
SplineSet
112 -26 m 0,0,1
 10 -26 10 -26 10 58 c 0,2,3
 10 111 10 111 42.5 123.5 c 128,-1,4
 75 136 75 136 114 140 c 0,5,6
 162 145 162 145 189.5 182 c 128,-1,7
 217 219 217 219 224 244 c 2,8,-1
 280 450 l 2,9,10
 289 483 289 483 311.5 526.5 c 128,-1,11
 334 570 334 570 370 604 c 1,12,13
 265 651 265 651 216.5 731.5 c 128,-1,14
 168 812 168 812 168 918 c 0,15,16
 168 1097 168 1097 293.5 1190.5 c 128,-1,17
 419 1284 419 1284 654 1284 c 2,18,-1
 1022 1284 l 2,19,20
 1102 1284 1102 1284 1102 1182 c 2,21,-1
 1102 66 l 2,22,23
 1102 -26 1102 -26 1018 -26 c 0,24,25
 932 -26 932 -26 932 66 c 2,26,-1
 932 556 l 1,27,-1
 650 556 l 2,28,29
 563 556 563 556 515.5 526.5 c 128,-1,30
 468 497 468 497 448 422 c 2,31,-1
 398 234 l 2,32,33
 366 113 366 113 285.5 43.5 c 128,-1,34
 205 -26 205 -26 112 -26 c 0,0,1
654 724 m 2,35,-1
 932 724 l 1,36,-1
 932 1116 l 1,37,-1
 654 1116 l 2,38,39
 494 1116 494 1116 417 1068.5 c 128,-1,40
 340 1021 340 1021 340 920 c 0,41,42
 340 821 340 821 416 772.5 c 128,-1,43
 492 724 492 724 654 724 c 2,35,-1
EndSplineSet
EndChar

StartChar: uni0402
Encoding: 1026 1026 479
Width: 1486
Flags: W
LayerCount: 2
Fore
SplineSet
1144 -422 m 0,0,1
 1083 -422 1083 -422 1053.5 -402.5 c 128,-1,2
 1024 -383 1024 -383 1024 -338 c 0,3,4
 1024 -299 1024 -299 1043 -281.5 c 128,-1,5
 1062 -264 1062 -264 1087.5 -259.5 c 128,-1,6
 1113 -255 1113 -255 1134 -254 c 0,7,8
 1165 -253 1165 -253 1182 -247.5 c 128,-1,9
 1199 -242 1199 -242 1205.5 -223.5 c 128,-1,10
 1212 -205 1212 -205 1212 -166 c 2,11,-1
 1212 578 l 2,12,13
 1212 650 1212 650 1193.5 698.5 c 128,-1,14
 1175 747 1175 747 1118.5 771.5 c 128,-1,15
 1062 796 1062 796 948 796 c 0,16,17
 842 796 842 796 762 769.5 c 128,-1,18
 682 743 682 743 637 673.5 c 128,-1,19
 592 604 592 604 592 476 c 2,20,-1
 592 74 l 2,21,22
 592 -26 592 -26 502 -26 c 0,23,24
 418 -26 418 -26 418 70 c 2,25,-1
 418 1116 l 1,26,-1
 138 1116 l 2,27,28
 93 1116 93 1116 66.5 1138.5 c 128,-1,29
 40 1161 40 1161 40 1200 c 256,30,31
 40 1239 40 1239 66.5 1261.5 c 128,-1,32
 93 1284 93 1284 138 1284 c 2,33,-1
 880 1284 l 2,34,35
 984 1284 984 1284 984 1200 c 256,36,37
 984 1116 984 1116 880 1116 c 2,38,-1
 592 1116 l 1,39,-1
 592 800 l 1,40,-1
 556 808 l 1,41,42
 606 871 606 871 664.5 905 c 128,-1,43
 723 939 723 939 791.5 951.5 c 128,-1,44
 860 964 860 964 940 964 c 0,45,46
 1095 964 1095 964 1192 925 c 128,-1,47
 1289 886 1289 886 1334.5 802 c 128,-1,48
 1380 718 1380 718 1380 584 c 2,49,-1
 1380 -132 l 2,50,51
 1380 -238 1380 -238 1359 -292.5 c 128,-1,52
 1338 -347 1338 -347 1306 -374 c 0,53,54
 1275 -401 1275 -401 1231.5 -411.5 c 128,-1,55
 1188 -422 1188 -422 1144 -422 c 0,0,1
EndSplineSet
EndChar

StartChar: uni0462
Encoding: 1122 1122 480
Width: 1380
Flags: W
LayerCount: 2
Fore
SplineSet
492 -26 m 2,0,1
 408 -26 408 -26 408 72 c 2,2,-1
 408 898 l 1,3,-1
 144 898 l 2,4,5
 46 898 46 898 46 980 c 0,6,7
 46 1060 46 1060 144 1060 c 2,8,-1
 408 1060 l 1,9,-1
 408 1200 l 2,10,11
 408 1298 408 1298 492 1298 c 0,12,13
 584 1298 584 1298 584 1200 c 2,14,-1
 584 1066 l 1,15,-1
 868 1066 l 2,16,17
 913 1066 913 1066 943.5 1046 c 128,-1,18
 974 1026 974 1026 974 984 c 0,19,20
 974 904 974 904 868 904 c 2,21,-1
 584 904 l 1,22,-1
 584 844 l 1,23,-1
 846 844 l 2,24,25
 989 844 989 844 1095.5 790 c 128,-1,26
 1202 736 1202 736 1261 638 c 128,-1,27
 1320 540 1320 540 1320 408 c 0,28,29
 1320 277 1320 277 1261 179.5 c 128,-1,30
 1202 82 1202 82 1095.5 28 c 128,-1,31
 989 -26 989 -26 846 -26 c 2,32,-1
 492 -26 l 2,0,1
584 142 m 1,33,-1
 846 142 l 2,34,35
 995 142 995 142 1073.5 210.5 c 128,-1,36
 1152 279 1152 279 1152 408 c 256,37,38
 1152 537 1152 537 1073.5 606.5 c 128,-1,39
 995 676 995 676 846 676 c 2,40,-1
 584 676 l 1,41,-1
 584 142 l 1,33,-1
EndSplineSet
EndChar

StartChar: uni0472
Encoding: 1138 1138 481
Width: 1264
Flags: W
LayerCount: 2
Fore
SplineSet
632 -30 m 0,0,1
 474 -30 474 -30 358 30 c 128,-1,2
 242 90 242 90 179 200 c 128,-1,3
 116 310 116 310 116 460 c 2,4,-1
 116 812 l 2,5,6
 116 962 116 962 179 1072 c 128,-1,7
 242 1182 242 1182 358 1242 c 128,-1,8
 474 1302 474 1302 632 1302 c 0,9,10
 789 1302 789 1302 905 1241.5 c 128,-1,11
 1021 1181 1021 1181 1084.5 1071 c 128,-1,12
 1148 961 1148 961 1148 812 c 2,13,-1
 1148 460 l 2,14,15
 1148 311 1148 311 1084.5 201 c 128,-1,16
 1021 91 1021 91 905 30.5 c 128,-1,17
 789 -30 789 -30 632 -30 c 0,0,1
632 138 m 256,18,19
 802 138 802 138 891 222.5 c 128,-1,20
 980 307 980 307 980 468 c 2,21,-1
 980 616 l 1,22,-1
 1044 586 l 1,23,24
 993 547 993 547 953 532.5 c 128,-1,25
 913 518 913 518 868 518 c 0,26,27
 824 518 824 518 758 530 c 128,-1,28
 692 542 692 542 621.5 558 c 128,-1,29
 551 574 551 574 491 586 c 128,-1,30
 431 598 431 598 398 598 c 0,31,32
 358 598 358 598 313.5 580 c 128,-1,33
 269 562 269 562 212 520 c 1,34,-1
 284 626 l 1,35,-1
 284 468 l 2,36,37
 284 307 284 307 373 222.5 c 128,-1,38
 462 138 462 138 632 138 c 256,18,19
284 668 m 1,39,-1
 230 710 l 1,40,41
 274 742 274 742 314 754 c 128,-1,42
 354 766 354 766 394 766 c 0,43,44
 437 766 437 766 502.5 754 c 128,-1,45
 568 742 568 742 639.5 726 c 128,-1,46
 711 710 711 710 772 698 c 128,-1,47
 833 686 833 686 866 686 c 0,48,49
 919 686 919 686 951.5 703.5 c 128,-1,50
 984 721 984 721 1044 764 c 1,51,-1
 980 690 l 1,52,-1
 980 804 l 2,53,54
 980 965 980 965 891 1049.5 c 128,-1,55
 802 1134 802 1134 632 1134 c 256,56,57
 462 1134 462 1134 373 1049.5 c 128,-1,58
 284 965 284 965 284 804 c 2,59,-1
 284 668 l 1,39,-1
EndSplineSet
EndChar

StartChar: uni0430
Encoding: 1072 1072 482
Width: 1188
Flags: W
LayerCount: 2
Fore
SplineSet
972 -26 m 0,0,1
 947 -26 947 -26 931 -11.5 c 128,-1,2
 915 3 915 3 907.5 50 c 128,-1,3
 900 97 900 97 900 194 c 1,4,-1
 922 142 l 1,5,6
 859 55 859 55 764.5 21.5 c 128,-1,7
 670 -12 670 -12 542 -12 c 2,8,-1
 356 -12 l 2,9,10
 247 -12 247 -12 178.5 60.5 c 128,-1,11
 110 133 110 133 110 280 c 0,12,13
 110 372 110 372 140 435.5 c 128,-1,14
 170 499 170 499 233 538.5 c 128,-1,15
 296 578 296 578 394 596 c 128,-1,16
 492 614 492 614 628 614 c 2,17,-1
 966 614 l 1,18,-1
 890 546 l 1,19,-1
 890 694 l 2,20,21
 890 738 890 738 875.5 752 c 128,-1,22
 861 766 861 766 812 766 c 2,23,-1
 530 766 l 2,24,25
 429 766 429 766 375.5 761 c 128,-1,26
 322 756 322 756 301 741.5 c 128,-1,27
 280 727 280 727 278 700 c 0,28,29
 274 648 274 648 259 623 c 128,-1,30
 244 598 244 598 194 598 c 0,31,32
 110 598 110 598 110 706 c 0,33,34
 110 825 110 825 209 879.5 c 128,-1,35
 308 934 308 934 516 934 c 2,36,-1
 826 934 l 2,37,38
 954 934 954 934 1006 873 c 128,-1,39
 1058 812 1058 812 1058 662 c 2,40,-1
 1058 70 l 2,41,42
 1058 -26 1058 -26 972 -26 c 0,0,1
362 148 m 2,43,-1
 542 148 l 2,44,45
 731 148 731 148 810.5 224.5 c 128,-1,46
 890 301 890 301 890 466 c 1,47,-1
 902 454 l 1,48,-1
 628 454 l 2,49,50
 496 454 496 454 419.5 441.5 c 128,-1,51
 343 429 343 429 310.5 393 c 128,-1,52
 278 357 278 357 278 286 c 0,53,54
 278 222 278 222 300.5 185 c 128,-1,55
 323 148 323 148 362 148 c 2,43,-1
EndSplineSet
EndChar

StartChar: uni0431
Encoding: 1073 1073 483
Width: 1334
Flags: W
LayerCount: 2
Fore
SplineSet
648 -12 m 2,0,1
 457 -12 457 -12 343.5 23.5 c 128,-1,2
 230 59 230 59 181 141 c 128,-1,3
 132 223 132 223 132 362 c 2,4,-1
 132 902 l 2,5,6
 132 1016 132 1016 172 1090.5 c 128,-1,7
 212 1165 212 1165 295.5 1206.5 c 128,-1,8
 379 1248 379 1248 510 1264 c 0,9,10
 596 1275 596 1275 718.5 1279.5 c 128,-1,11
 841 1284 841 1284 976 1284 c 0,12,13
 1080 1284 1080 1284 1080 1198 c 0,14,15
 1080 1156 1080 1156 1051 1136 c 128,-1,16
 1022 1116 1022 1116 968 1116 c 0,17,18
 918 1116 918 1116 877.5 1116 c 128,-1,19
 837 1116 837 1116 802 1115.5 c 128,-1,20
 767 1115 767 1115 732.5 1114.5 c 128,-1,21
 698 1114 698 1114 660 1112 c 0,22,23
 552 1107 552 1107 471.5 1091.5 c 128,-1,24
 391 1076 391 1076 346.5 1039.5 c 128,-1,25
 302 1003 302 1003 302 934 c 1,26,-1
 744 934 l 2,27,28
 920 934 920 934 1025.5 898.5 c 128,-1,29
 1131 863 1131 863 1177.5 782 c 128,-1,30
 1224 701 1224 701 1224 566 c 2,31,-1
 1224 356 l 2,32,33
 1224 219 1224 219 1175 138.5 c 128,-1,34
 1126 58 1126 58 1013 23 c 128,-1,35
 900 -12 900 -12 708 -12 c 2,36,-1
 648 -12 l 2,0,1
648 156 m 2,37,-1
 708 156 l 2,38,39
 858 156 858 156 932.5 170.5 c 128,-1,40
 1007 185 1007 185 1031.5 229.5 c 128,-1,41
 1056 274 1056 274 1056 362 c 2,42,-1
 1056 560 l 2,43,44
 1056 648 1056 648 1033 692 c 128,-1,45
 1010 736 1010 736 943 751 c 128,-1,46
 876 766 876 766 744 766 c 2,47,-1
 300 766 l 1,48,-1
 300 362 l 2,49,50
 300 274 300 274 324.5 229.5 c 128,-1,51
 349 185 349 185 423.5 170.5 c 128,-1,52
 498 156 498 156 648 156 c 2,37,-1
EndSplineSet
EndChar

StartChar: uni0432
Encoding: 1074 1074 484
Width: 1286
Flags: W
LayerCount: 2
Fore
SplineSet
140 -12 m 1,0,-1
 140 934 l 1,1,-1
 814 934 l 2,2,3
 982 934 982 934 1077 861.5 c 128,-1,4
 1172 789 1172 789 1172 660 c 0,5,6
 1172 595 1172 595 1149 547 c 128,-1,7
 1126 499 1126 499 1081 469 c 1,8,9
 1172 395 1172 395 1172 264 c 0,10,11
 1172 178 1172 178 1129 116 c 128,-1,12
 1086 54 1086 54 1006 21 c 128,-1,13
 926 -12 926 -12 814 -12 c 2,14,-1
 140 -12 l 1,0,-1
308 156 m 1,15,-1
 800 156 l 2,16,17
 1004 156 1004 156 1004 252 c 0,18,19
 1004 329 1004 329 959.5 360.5 c 128,-1,20
 915 392 915 392 808 392 c 2,21,-1
 308 392 l 1,22,-1
 308 156 l 1,15,-1
308 560 m 1,23,-1
 808 560 l 2,24,25
 930 560 930 560 968 581.5 c 128,-1,26
 1006 603 1006 603 1006 670 c 0,27,28
 1006 766 1006 766 800 766 c 2,29,-1
 308 766 l 1,30,-1
 308 560 l 1,23,-1
EndSplineSet
EndChar

StartChar: uni0433
Encoding: 1075 1075 485
Width: 1040
Flags: W
LayerCount: 2
Fore
SplineSet
914 766 m 2,0,-1
 380 766 l 2,1,2
 332 766 332 766 317 750.5 c 128,-1,3
 302 735 302 735 302 684 c 2,4,-1
 302 70 l 2,5,6
 302 -26 302 -26 218 -26 c 256,7,8
 134 -26 134 -26 134 70 c 2,9,-1
 134 662 l 2,10,11
 134 812 134 812 186 873 c 128,-1,12
 238 934 238 934 366 934 c 2,13,-1
 914 934 l 2,14,15
 1016 934 1016 934 1016 850 c 256,16,17
 1016 766 1016 766 914 766 c 2,0,-1
EndSplineSet
EndChar

StartChar: uni0453
Encoding: 1107 1107 486
Width: 1040
Flags: W
LayerCount: 2
Fore
SplineSet
218 -26 m 256,0,1
 134 -26 134 -26 134 70 c 2,2,-1
 134 662 l 2,3,4
 134 812 134 812 186 873 c 128,-1,5
 238 934 238 934 366 934 c 2,6,-1
 914 934 l 2,7,8
 1016 934 1016 934 1016 850 c 256,9,10
 1016 766 1016 766 914 766 c 2,11,-1
 380 766 l 2,12,13
 332 766 332 766 317 750.5 c 128,-1,14
 302 735 302 735 302 684 c 2,15,-1
 302 70 l 2,16,17
 302 -26 302 -26 218 -26 c 256,0,1
566 978 m 0,18,19
 532 978 532 978 506 1002 c 128,-1,20
 480 1026 480 1026 480 1060 c 0,21,22
 480 1074 480 1074 485.5 1093 c 128,-1,23
 491 1112 491 1112 504 1128 c 2,24,-1
 697 1356 l 2,25,26
 733 1398 733 1398 770 1398 c 0,27,28
 805 1398 805 1398 829.5 1374 c 128,-1,29
 854 1350 854 1350 854 1314 c 0,30,31
 854 1280 854 1280 829 1250 c 2,32,-1
 637 1020 l 2,33,34
 601 978 601 978 566 978 c 0,18,19
EndSplineSet
EndChar

StartChar: uni0491
Encoding: 1169 1169 487
Width: 1054
Flags: W
LayerCount: 2
Fore
SplineSet
218 -26 m 256,0,1
 134 -26 134 -26 134 70 c 2,2,-1
 134 662 l 2,3,4
 134 812 134 812 186 873 c 128,-1,5
 238 934 238 934 366 934 c 2,6,-1
 848 934 l 1,7,-1
 848 1056 l 2,8,9
 848 1158 848 1158 932 1158 c 256,10,11
 1016 1158 1016 1158 1016 1056 c 2,12,-1
 1016 766 l 1,13,-1
 380 766 l 2,14,15
 332 766 332 766 317 750.5 c 128,-1,16
 302 735 302 735 302 684 c 2,17,-1
 302 70 l 2,18,19
 302 -26 302 -26 218 -26 c 256,0,1
EndSplineSet
EndChar

StartChar: uni0434
Encoding: 1076 1076 488
Width: 1208
Flags: W
LayerCount: 2
Fore
SplineSet
104 -196 m 256,0,1
 20 -196 20 -196 20 -94 c 2,2,-1
 20 0 l 2,3,4
 20 159 20 159 168 156 c 2,5,-1
 220 156 l 1,6,-1
 130 116 l 1,7,8
 349 452 349 452 346 934 c 1,9,-1
 976 934 l 1,10,-1
 976 156 l 1,11,-1
 1030 156 l 2,12,13
 1164 156 1164 156 1164 0 c 2,14,-1
 1164 -94 l 2,15,16
 1164 -196 1164 -196 1080 -196 c 256,17,18
 996 -196 996 -196 996 -94 c 2,19,-1
 996 -12 l 1,20,-1
 188 -12 l 1,21,-1
 188 -94 l 2,22,23
 188 -196 188 -196 104 -196 c 256,0,1
347 156 m 1,24,-1
 802 156 l 1,25,-1
 802 766 l 1,26,-1
 528 766 l 1,27,28
 516 439 516 439 347 156 c 1,24,-1
EndSplineSet
EndChar

StartChar: uni0435
Encoding: 1077 1077 489
Width: 1302
Flags: W
LayerCount: 2
Fore
SplineSet
628 -12 m 2,0,1
 436 -12 436 -12 322.5 22.5 c 128,-1,2
 209 57 209 57 159.5 137.5 c 128,-1,3
 110 218 110 218 110 356 c 2,4,-1
 110 566 l 2,5,6
 110 704 110 704 159.5 784.5 c 128,-1,7
 209 865 209 865 322.5 899.5 c 128,-1,8
 436 934 436 934 628 934 c 2,9,-1
 686 934 l 2,10,11
 878 934 878 934 991 899 c 128,-1,12
 1104 864 1104 864 1153 783.5 c 128,-1,13
 1202 703 1202 703 1202 566 c 2,14,-1
 1202 458 l 1,15,-1
 278 458 l 1,16,-1
 278 362 l 2,17,18
 278 274 278 274 302.5 229.5 c 128,-1,19
 327 185 327 185 402 170.5 c 128,-1,20
 477 156 477 156 628 156 c 2,21,-1
 936 156 l 2,22,23
 983 156 983 156 998.5 173 c 128,-1,24
 1014 190 1014 190 1014 240 c 256,25,26
 1014 290 1014 290 1036.5 318 c 128,-1,27
 1059 346 1059 346 1099 346 c 0,28,29
 1140 345 1140 345 1161 315.5 c 128,-1,30
 1182 286 1182 286 1182 232 c 0,31,32
 1182 149 1182 149 1157 94.5 c 128,-1,33
 1132 40 1132 40 1080.5 14 c 128,-1,34
 1029 -12 1029 -12 950 -12 c 2,35,-1
 628 -12 l 2,0,1
279 626 m 1,36,-1
 1033 626 l 1,37,38
 1022 714 1022 714 962 738 c 0,39,40
 926 752 926 752 855.5 759 c 128,-1,41
 785 766 785 766 686 766 c 2,42,-1
 628 766 l 2,43,44
 520 766 520 766 449.5 758.5 c 128,-1,45
 379 751 379 751 346 736 c 0,46,47
 286 711 286 711 279 626 c 1,36,-1
EndSplineSet
EndChar

StartChar: uni0450
Encoding: 1104 1104 490
Width: 1302
Flags: W
LayerCount: 2
Fore
SplineSet
698 978 m 0,0,1
 664 978 664 978 625 1020 c 2,2,-1
 433 1250 l 2,3,4
 408 1280 408 1280 408 1314 c 0,5,6
 408 1350 408 1350 432.5 1374 c 128,-1,7
 457 1398 457 1398 492 1398 c 0,8,9
 529 1398 529 1398 565 1356 c 2,10,-1
 758 1125 l 2,11,12
 782 1091 782 1091 782 1060 c 0,13,14
 782 1027 782 1027 756.5 1002.5 c 128,-1,15
 731 978 731 978 698 978 c 0,0,1
628 -12 m 2,16,17
 436 -12 436 -12 322.5 22.5 c 128,-1,18
 209 57 209 57 159.5 137.5 c 128,-1,19
 110 218 110 218 110 356 c 2,20,-1
 110 566 l 2,21,22
 110 704 110 704 159.5 784.5 c 128,-1,23
 209 865 209 865 322.5 899.5 c 128,-1,24
 436 934 436 934 628 934 c 2,25,-1
 686 934 l 2,26,27
 878 934 878 934 991 899 c 128,-1,28
 1104 864 1104 864 1153 783.5 c 128,-1,29
 1202 703 1202 703 1202 566 c 2,30,-1
 1202 458 l 1,31,-1
 278 458 l 1,32,-1
 278 362 l 2,33,34
 278 274 278 274 302.5 229.5 c 128,-1,35
 327 185 327 185 402 170.5 c 128,-1,36
 477 156 477 156 628 156 c 2,37,-1
 936 156 l 2,38,39
 983 156 983 156 998.5 173 c 128,-1,40
 1014 190 1014 190 1014 240 c 256,41,42
 1014 290 1014 290 1036.5 318 c 128,-1,43
 1059 346 1059 346 1099 346 c 0,44,45
 1140 345 1140 345 1161 315.5 c 128,-1,46
 1182 286 1182 286 1182 232 c 0,47,48
 1182 149 1182 149 1157 94.5 c 128,-1,49
 1132 40 1132 40 1080.5 14 c 128,-1,50
 1029 -12 1029 -12 950 -12 c 2,51,-1
 628 -12 l 2,16,17
279 626 m 1,52,-1
 1033 626 l 1,53,54
 1022 714 1022 714 962 738 c 0,55,56
 926 752 926 752 855.5 759 c 128,-1,57
 785 766 785 766 686 766 c 2,58,-1
 628 766 l 2,59,60
 520 766 520 766 449.5 758.5 c 128,-1,61
 379 751 379 751 346 736 c 0,62,63
 286 711 286 711 279 626 c 1,52,-1
EndSplineSet
EndChar

StartChar: uni0451
Encoding: 1105 1105 491
Width: 1302
Flags: W
LayerCount: 2
Fore
SplineSet
824 1032 m 0,0,1
 772 1032 772 1032 732 1066.5 c 128,-1,2
 692 1101 692 1101 692 1146 c 0,3,4
 692 1190 692 1190 733 1225 c 128,-1,5
 774 1260 774 1260 826 1260 c 256,6,7
 878 1260 878 1260 919 1225 c 128,-1,8
 960 1190 960 1190 960 1146 c 256,9,10
 960 1102 960 1102 918.5 1067 c 128,-1,11
 877 1032 877 1032 824 1032 c 0,0,1
484 1032 m 0,12,13
 432 1032 432 1032 392 1066.5 c 128,-1,14
 352 1101 352 1101 352 1146 c 0,15,16
 352 1190 352 1190 393 1225 c 128,-1,17
 434 1260 434 1260 486 1260 c 256,18,19
 538 1260 538 1260 579 1225 c 128,-1,20
 620 1190 620 1190 620 1146 c 256,21,22
 620 1102 620 1102 578.5 1067 c 128,-1,23
 537 1032 537 1032 484 1032 c 0,12,13
628 -12 m 2,24,25
 436 -12 436 -12 322.5 22.5 c 128,-1,26
 209 57 209 57 159.5 137.5 c 128,-1,27
 110 218 110 218 110 356 c 2,28,-1
 110 566 l 2,29,30
 110 704 110 704 159.5 784.5 c 128,-1,31
 209 865 209 865 322.5 899.5 c 128,-1,32
 436 934 436 934 628 934 c 2,33,-1
 686 934 l 2,34,35
 878 934 878 934 991 899 c 128,-1,36
 1104 864 1104 864 1153 783.5 c 128,-1,37
 1202 703 1202 703 1202 566 c 2,38,-1
 1202 458 l 1,39,-1
 278 458 l 1,40,-1
 278 362 l 2,41,42
 278 274 278 274 302.5 229.5 c 128,-1,43
 327 185 327 185 402 170.5 c 128,-1,44
 477 156 477 156 628 156 c 2,45,-1
 936 156 l 2,46,47
 983 156 983 156 998.5 173 c 128,-1,48
 1014 190 1014 190 1014 240 c 256,49,50
 1014 290 1014 290 1036.5 318 c 128,-1,51
 1059 346 1059 346 1099 346 c 0,52,53
 1140 345 1140 345 1161 315.5 c 128,-1,54
 1182 286 1182 286 1182 232 c 0,55,56
 1182 149 1182 149 1157 94.5 c 128,-1,57
 1132 40 1132 40 1080.5 14 c 128,-1,58
 1029 -12 1029 -12 950 -12 c 2,59,-1
 628 -12 l 2,24,25
279 626 m 1,60,-1
 1033 626 l 1,61,62
 1022 714 1022 714 962 738 c 0,63,64
 926 752 926 752 855.5 759 c 128,-1,65
 785 766 785 766 686 766 c 2,66,-1
 628 766 l 2,67,68
 520 766 520 766 449.5 758.5 c 128,-1,69
 379 751 379 751 346 736 c 0,70,71
 286 711 286 711 279 626 c 1,60,-1
EndSplineSet
EndChar

StartChar: uni0436
Encoding: 1078 1078 492
Width: 1532
Flags: W
LayerCount: 2
Fore
SplineSet
180 -26 m 0,0,1
 76 -26 76 -26 76 58 c 256,2,3
 76 142 76 142 180 142 c 0,4,5
 193 142 193 142 204 160 c 128,-1,6
 215 178 215 178 228 227 c 0,7,8
 251 315 251 315 293 381 c 128,-1,9
 335 447 335 447 415 485 c 1,10,11
 376 540 376 540 313 677 c 0,12,13
 292 724 292 724 255.5 753 c 128,-1,14
 219 782 219 782 184 782 c 0,15,16
 135 782 135 782 105.5 804.5 c 128,-1,17
 76 827 76 827 76 866 c 0,18,19
 76 950 76 950 176 950 c 0,20,21
 259 950 259 950 326.5 922 c 128,-1,22
 394 894 394 894 436 841 c 0,23,24
 501 757 501 757 543 644 c 0,25,26
 560 597 560 597 578 572.5 c 128,-1,27
 596 548 596 548 614 546 c 2,28,-1
 676 546 l 1,29,-1
 676 856 l 2,30,31
 676 897 676 897 701.5 922.5 c 128,-1,32
 727 948 727 948 770 948 c 0,33,34
 808 948 808 948 832 922 c 128,-1,35
 856 896 856 896 854 856 c 2,36,-1
 854 546 l 1,37,-1
 917 546 l 2,38,39
 935 548 935 548 952.5 571.5 c 128,-1,40
 970 595 970 595 989 644 c 0,41,42
 1007 695 1007 695 1035 744.5 c 128,-1,43
 1063 794 1063 794 1099 840 c 0,44,45
 1142 892 1142 892 1210.5 921 c 128,-1,46
 1279 950 1279 950 1358 950 c 0,47,48
 1456 950 1456 950 1456 866 c 256,49,50
 1456 782 1456 782 1352 782 c 0,51,52
 1313 782 1313 782 1276.5 754 c 128,-1,53
 1240 726 1240 726 1219 679 c 0,54,55
 1158 546 1158 546 1115 487 c 1,56,57
 1201 446 1201 446 1244 380.5 c 128,-1,58
 1287 315 1287 315 1306 227 c 0,59,60
 1317 185 1317 185 1326 163.5 c 128,-1,61
 1335 142 1335 142 1360 142 c 0,62,63
 1401 142 1401 142 1428.5 118 c 128,-1,64
 1456 94 1456 94 1456 58 c 0,65,66
 1456 9 1456 9 1423.5 -8.5 c 128,-1,67
 1391 -26 1391 -26 1346 -26 c 0,68,69
 1285 -26 1285 -26 1241.5 -3.5 c 128,-1,70
 1198 19 1198 19 1174 62 c 0,71,72
 1147 107 1147 107 1128.5 181 c 128,-1,73
 1110 255 1110 255 1066 316 c 0,74,75
 1009 397 1009 397 854 407 c 1,76,-1
 854 70 l 2,77,78
 854 28 854 28 829.5 1 c 128,-1,79
 805 -26 805 -26 764 -26 c 0,80,81
 726 -26 726 -26 701 1 c 128,-1,82
 676 28 676 28 676 70 c 2,83,-1
 676 407 l 1,84,85
 594 402 594 402 543.5 379.5 c 128,-1,86
 493 357 493 357 464 324 c 0,87,88
 427 283 427 283 412.5 231 c 128,-1,89
 398 179 398 179 386.5 128 c 128,-1,90
 375 77 375 77 348 40 c 0,91,92
 327 10 327 10 287.5 -8 c 128,-1,93
 248 -26 248 -26 180 -26 c 0,0,1
EndSplineSet
EndChar

StartChar: uni0437
Encoding: 1079 1079 493
Width: 1256
Flags: W
LayerCount: 2
Fore
SplineSet
342 -12 m 2,0,1
 213 -12 213 -12 161.5 53 c 128,-1,2
 110 118 110 118 110 278 c 0,3,4
 110 380 110 380 194 380 c 256,5,6
 278 380 278 380 278 278 c 2,7,-1
 278 242 l 2,8,9
 278 189 278 189 292.5 172.5 c 128,-1,10
 307 156 307 156 356 156 c 2,11,-1
 722 156 l 2,12,13
 974 156 974 156 974 240 c 0,14,15
 974 323 974 323 919.5 357.5 c 128,-1,16
 865 392 865 392 730 392 c 2,17,-1
 558 392 l 2,18,19
 454 392 454 392 454 472 c 0,20,21
 454 560 454 560 558 560 c 2,22,-1
 730 560 l 2,23,24
 829 560 829 560 882 570.5 c 128,-1,25
 935 581 935 581 955.5 607.5 c 128,-1,26
 976 634 976 634 976 682 c 0,27,28
 976 766 976 766 722 766 c 2,29,-1
 356 766 l 2,30,31
 307 766 307 766 292.5 749.5 c 128,-1,32
 278 733 278 733 278 680 c 2,33,-1
 278 644 l 2,34,35
 278 542 278 542 194 542 c 256,36,37
 110 542 110 542 110 644 c 0,38,39
 110 804 110 804 161.5 869 c 128,-1,40
 213 934 213 934 342 934 c 2,41,-1
 736 934 l 2,42,43
 937 934 937 934 1039.5 866 c 128,-1,44
 1142 798 1142 798 1142 662 c 0,45,46
 1142 596 1142 596 1119.5 547.5 c 128,-1,47
 1097 499 1097 499 1051 469 c 1,48,49
 1142 396 1142 396 1142 260 c 256,50,51
 1142 124 1142 124 1039.5 56 c 128,-1,52
 937 -12 937 -12 736 -12 c 2,53,-1
 342 -12 l 2,0,1
EndSplineSet
EndChar

StartChar: uni0438
Encoding: 1080 1080 494
Width: 1292
Flags: W
LayerCount: 2
Fore
SplineSet
1068 -26 m 256,0,1
 984 -26 984 -26 984 78 c 2,2,-1
 984 696 l 1,3,-1
 297 -12 l 1,4,-1
 140 -12 l 1,5,-1
 140 850 l 2,6,7
 140 948 140 948 224 948 c 256,8,9
 308 948 308 948 308 844 c 2,10,-1
 308 218 l 1,11,-1
 1001 934 l 1,12,-1
 1152 934 l 1,13,-1
 1152 72 l 2,14,15
 1152 -26 1152 -26 1068 -26 c 256,0,1
EndSplineSet
EndChar

StartChar: uni0439
Encoding: 1081 1081 495
Width: 1292
Flags: W
LayerCount: 2
Fore
SplineSet
1068 -26 m 256,0,1
 984 -26 984 -26 984 78 c 2,2,-1
 984 696 l 1,3,-1
 297 -12 l 1,4,-1
 140 -12 l 1,5,-1
 140 850 l 2,6,7
 140 948 140 948 224 948 c 256,8,9
 308 948 308 948 308 844 c 2,10,-1
 308 218 l 1,11,-1
 1001 934 l 1,12,-1
 1152 934 l 1,13,-1
 1152 72 l 2,14,15
 1152 -26 1152 -26 1068 -26 c 256,0,1
530 982 m 2,16,17
 412 982 412 982 364 1042.5 c 128,-1,18
 316 1103 316 1103 316 1248 c 2,19,-1
 316 1334 l 1,20,-1
 484 1334 l 1,21,-1
 484 1216 l 2,22,23
 484 1171 484 1171 494 1160.5 c 128,-1,24
 504 1150 504 1150 546 1150 c 2,25,-1
 750 1150 l 2,26,27
 791 1150 791 1150 800.5 1160.5 c 128,-1,28
 810 1171 810 1171 810 1216 c 2,29,-1
 810 1334 l 1,30,-1
 978 1334 l 1,31,-1
 978 1248 l 2,32,33
 978 1101 978 1101 930.5 1041.5 c 128,-1,34
 883 982 883 982 764 982 c 2,35,-1
 530 982 l 2,16,17
EndSplineSet
EndChar

StartChar: uni043A
Encoding: 1082 1082 496
Width: 1216
Flags: W
LayerCount: 2
Fore
SplineSet
220 -26 m 0,0,1
 183 -26 183 -26 160.5 0 c 128,-1,2
 138 26 138 26 138 66 c 2,3,-1
 138 856 l 2,4,5
 138 898 138 898 162 923 c 128,-1,6
 186 948 186 948 226 948 c 0,7,8
 262 948 262 948 284 922.5 c 128,-1,9
 306 897 306 897 306 856 c 2,10,-1
 306 546 l 1,11,-1
 498 546 l 2,12,13
 518 546 518 546 546.5 576 c 128,-1,14
 575 606 575 606 628 685 c 0,15,16
 669 744 669 744 721.5 804 c 128,-1,17
 774 864 774 864 856 907 c 0,18,19
 939 950 939 950 1040 950 c 0,20,21
 1087 950 1087 950 1115.5 928 c 128,-1,22
 1144 906 1144 906 1144 866 c 0,23,24
 1144 824 1144 824 1117.5 803 c 128,-1,25
 1091 782 1091 782 1040 782 c 0,26,27
 988 782 988 782 938.5 742 c 128,-1,28
 889 702 889 702 818 601 c 0,29,30
 800 576 800 576 783.5 554.5 c 128,-1,31
 767 533 767 533 752.5 515.5 c 128,-1,32
 738 498 738 498 724 484 c 1,33,34
 802 450 802 450 865.5 390 c 128,-1,35
 929 330 929 330 951 268 c 0,36,37
 975 206 975 206 998 174 c 128,-1,38
 1021 142 1021 142 1040 142 c 0,39,40
 1087 142 1087 142 1115.5 119 c 128,-1,41
 1144 96 1144 96 1144 58 c 0,42,43
 1144 -26 1144 -26 1040 -26 c 0,44,45
 970 -26 970 -26 919 -5 c 128,-1,46
 868 16 868 16 838 59 c 0,47,48
 808 100 808 100 789 139 c 128,-1,49
 770 178 770 178 745 218.5 c 128,-1,50
 720 259 720 259 672 301 c 0,51,52
 589 378 589 378 386 378 c 2,53,-1
 306 378 l 1,54,-1
 306 64 l 2,55,56
 306 23 306 23 283 -1.5 c 128,-1,57
 260 -26 260 -26 220 -26 c 0,0,1
EndSplineSet
EndChar

StartChar: uni045C
Encoding: 1116 1116 497
Width: 1216
Flags: W
LayerCount: 2
Fore
SplineSet
546 978 m 0,0,1
 512 978 512 978 486 1002 c 128,-1,2
 460 1026 460 1026 460 1060 c 0,3,4
 460 1074 460 1074 465.5 1092 c 128,-1,5
 471 1110 471 1110 484 1126 c 2,6,-1
 677 1356 l 2,7,8
 714 1398 714 1398 750 1398 c 0,9,10
 785 1398 785 1398 809.5 1374 c 128,-1,11
 834 1350 834 1350 834 1314 c 0,12,13
 834 1280 834 1280 809 1250 c 2,14,-1
 617 1020 l 2,15,16
 581 978 581 978 546 978 c 0,0,1
220 -26 m 0,17,18
 183 -26 183 -26 160.5 0 c 128,-1,19
 138 26 138 26 138 66 c 2,20,-1
 138 856 l 2,21,22
 138 898 138 898 162 923 c 128,-1,23
 186 948 186 948 226 948 c 0,24,25
 262 948 262 948 284 922.5 c 128,-1,26
 306 897 306 897 306 856 c 2,27,-1
 306 546 l 1,28,-1
 498 546 l 2,29,30
 518 546 518 546 546.5 576 c 128,-1,31
 575 606 575 606 628 685 c 0,32,33
 669 744 669 744 721.5 804 c 128,-1,34
 774 864 774 864 856 907 c 0,35,36
 939 950 939 950 1040 950 c 0,37,38
 1087 950 1087 950 1115.5 928 c 128,-1,39
 1144 906 1144 906 1144 866 c 0,40,41
 1144 824 1144 824 1117.5 803 c 128,-1,42
 1091 782 1091 782 1040 782 c 0,43,44
 988 782 988 782 938.5 742 c 128,-1,45
 889 702 889 702 818 601 c 0,46,47
 800 576 800 576 783.5 554.5 c 128,-1,48
 767 533 767 533 752.5 515.5 c 128,-1,49
 738 498 738 498 724 484 c 1,50,51
 802 450 802 450 865.5 390 c 128,-1,52
 929 330 929 330 951 268 c 0,53,54
 975 206 975 206 998 174 c 128,-1,55
 1021 142 1021 142 1040 142 c 0,56,57
 1087 142 1087 142 1115.5 119 c 128,-1,58
 1144 96 1144 96 1144 58 c 0,59,60
 1144 -26 1144 -26 1040 -26 c 0,61,62
 970 -26 970 -26 919 -5 c 128,-1,63
 868 16 868 16 838 59 c 0,64,65
 808 100 808 100 789 139 c 128,-1,66
 770 178 770 178 745 218.5 c 128,-1,67
 720 259 720 259 672 301 c 0,68,69
 589 378 589 378 386 378 c 2,70,-1
 306 378 l 1,71,-1
 306 64 l 2,72,73
 306 23 306 23 283 -1.5 c 128,-1,74
 260 -26 260 -26 220 -26 c 0,17,18
EndSplineSet
EndChar

StartChar: uni043B
Encoding: 1083 1083 498
Width: 1222
Flags: W
LayerCount: 2
Fore
SplineSet
998 -26 m 256,0,1
 914 -26 914 -26 914 72 c 2,2,-1
 914 766 l 1,3,-1
 518 766 l 2,4,5
 451 766 451 766 429.5 750 c 128,-1,6
 408 734 408 734 408 684 c 2,7,-1
 408 260 l 2,8,9
 408 164 408 164 382 103.5 c 128,-1,10
 356 43 356 43 301 14.5 c 128,-1,11
 246 -14 246 -14 158 -14 c 0,12,13
 106 -14 106 -14 73 5 c 128,-1,14
 40 24 40 24 40 72 c 0,15,16
 40 156 40 156 146 156 c 0,17,18
 200 156 200 156 220 173 c 128,-1,19
 240 190 240 190 240 236 c 2,20,-1
 240 662 l 2,21,22
 240 768 240 768 263 827 c 128,-1,23
 286 886 286 886 343.5 910 c 128,-1,24
 401 934 401 934 502 934 c 2,25,-1
 1082 934 l 1,26,-1
 1082 74 l 2,27,28
 1082 -26 1082 -26 998 -26 c 256,0,1
EndSplineSet
EndChar

StartChar: uni043C
Encoding: 1084 1084 499
Width: 1350
Flags: W
LayerCount: 2
Fore
SplineSet
222 -26 m 256,0,1
 138 -26 138 -26 138 70 c 2,2,-1
 138 850 l 2,3,4
 138 948 138 948 218 948 c 0,5,6
 267 948 267 948 304 897 c 2,7,-1
 674 379 l 1,8,-1
 1046 897 l 2,9,10
 1082 948 1082 948 1130 948 c 0,11,12
 1212 948 1212 948 1212 850 c 2,13,-1
 1212 70 l 2,14,15
 1212 -26 1212 -26 1128 -26 c 256,16,17
 1044 -26 1044 -26 1044 76 c 2,18,-1
 1044 658 l 1,19,-1
 739 224 l 2,20,21
 719 196 719 196 678 196 c 0,22,23
 659 196 659 196 640.5 202 c 128,-1,24
 622 208 622 208 611 224 c 2,25,-1
 306 658 l 1,26,-1
 306 76 l 2,27,28
 306 -26 306 -26 222 -26 c 256,0,1
EndSplineSet
EndChar

StartChar: uni043D
Encoding: 1085 1085 500
Width: 1288
Flags: W
LayerCount: 2
Fore
SplineSet
222 -26 m 256,0,1
 138 -26 138 -26 138 70 c 2,2,-1
 138 850 l 2,3,4
 138 948 138 948 218 948 c 0,5,6
 306 948 306 948 306 850 c 2,7,-1
 306 572 l 1,8,-1
 982 572 l 1,9,-1
 982 850 l 2,10,11
 982 948 982 948 1066 948 c 256,12,13
 1150 948 1150 948 1150 850 c 2,14,-1
 1150 70 l 2,15,16
 1150 -26 1150 -26 1066 -26 c 256,17,18
 982 -26 982 -26 982 70 c 2,19,-1
 982 404 l 1,20,-1
 306 404 l 1,21,-1
 306 70 l 2,22,23
 306 -26 306 -26 222 -26 c 256,0,1
EndSplineSet
EndChar

StartChar: uni043E
Encoding: 1086 1086 501
Width: 1312
Flags: W
LayerCount: 2
Fore
SplineSet
628 -12 m 2,0,1
 436 -12 436 -12 322.5 22.5 c 128,-1,2
 209 57 209 57 159.5 137.5 c 128,-1,3
 110 218 110 218 110 356 c 2,4,-1
 110 566 l 2,5,6
 110 704 110 704 159.5 784.5 c 128,-1,7
 209 865 209 865 322.5 899.5 c 128,-1,8
 436 934 436 934 628 934 c 2,9,-1
 686 934 l 2,10,11
 878 934 878 934 991 899 c 128,-1,12
 1104 864 1104 864 1153 783.5 c 128,-1,13
 1202 703 1202 703 1202 566 c 2,14,-1
 1202 356 l 2,15,16
 1202 219 1202 219 1153 138.5 c 128,-1,17
 1104 58 1104 58 991 23 c 128,-1,18
 878 -12 878 -12 686 -12 c 2,19,-1
 628 -12 l 2,0,1
628 156 m 2,20,-1
 686 156 l 2,21,22
 836 156 836 156 910.5 170.5 c 128,-1,23
 985 185 985 185 1009.5 229.5 c 128,-1,24
 1034 274 1034 274 1034 362 c 2,25,-1
 1034 560 l 2,26,27
 1034 649 1034 649 1009.5 693 c 128,-1,28
 985 737 985 737 910.5 751.5 c 128,-1,29
 836 766 836 766 686 766 c 2,30,-1
 628 766 l 2,31,32
 477 766 477 766 402 751.5 c 128,-1,33
 327 737 327 737 302.5 693 c 128,-1,34
 278 649 278 649 278 560 c 2,35,-1
 278 362 l 2,36,37
 278 274 278 274 302.5 229.5 c 128,-1,38
 327 185 327 185 402 170.5 c 128,-1,39
 477 156 477 156 628 156 c 2,20,-1
EndSplineSet
EndChar

StartChar: uni043F
Encoding: 1087 1087 502
Width: 1292
Flags: W
LayerCount: 2
Fore
SplineSet
224 -26 m 256,0,1
 140 -26 140 -26 140 70 c 2,2,-1
 140 934 l 1,3,-1
 1152 934 l 1,4,-1
 1152 70 l 2,5,6
 1152 -26 1152 -26 1068 -26 c 256,7,8
 984 -26 984 -26 984 70 c 2,9,-1
 984 766 l 1,10,-1
 308 766 l 1,11,-1
 308 70 l 2,12,13
 308 -26 308 -26 224 -26 c 256,0,1
EndSplineSet
EndChar

StartChar: uni0440
Encoding: 1088 1088 503
Width: 1340
Flags: W
LayerCount: 2
Fore
SplineSet
220 -376 m 0,0,1
 138 -376 138 -376 138 -274 c 2,2,-1
 138 852 l 2,3,4
 138 948 138 948 224 948 c 0,5,6
 269 948 269 948 286.5 920 c 128,-1,7
 304 892 304 892 304 824 c 2,8,-1
 304 764 l 1,9,-1
 274 804 l 1,10,11
 337 873 337 873 433.5 903.5 c 128,-1,12
 530 934 530 934 656 934 c 2,13,-1
 714 934 l 2,14,15
 906 934 906 934 1019 899 c 128,-1,16
 1132 864 1132 864 1181 783.5 c 128,-1,17
 1230 703 1230 703 1230 566 c 2,18,-1
 1230 356 l 2,19,20
 1230 219 1230 219 1181 138.5 c 128,-1,21
 1132 58 1132 58 1020.5 23 c 128,-1,22
 909 -12 909 -12 720 -12 c 2,23,-1
 306 -12 l 1,24,-1
 306 -274 l 2,25,26
 306 -376 306 -376 220 -376 c 0,0,1
306 156 m 1,27,-1
 720 156 l 2,28,29
 868 156 868 156 941 170.5 c 128,-1,30
 1014 185 1014 185 1038 229.5 c 128,-1,31
 1062 274 1062 274 1062 362 c 2,32,-1
 1062 560 l 2,33,34
 1062 649 1062 649 1037.5 693 c 128,-1,35
 1013 737 1013 737 938.5 751.5 c 128,-1,36
 864 766 864 766 714 766 c 2,37,-1
 656 766 l 2,38,39
 475 766 475 766 390.5 692.5 c 128,-1,40
 306 619 306 619 306 464 c 2,41,-1
 306 156 l 1,27,-1
EndSplineSet
EndChar

StartChar: uni0441
Encoding: 1089 1089 504
Width: 1248
Flags: W
LayerCount: 2
Fore
SplineSet
628 -12 m 2,0,1
 436 -12 436 -12 322.5 22.5 c 128,-1,2
 209 57 209 57 159.5 137.5 c 128,-1,3
 110 218 110 218 110 356 c 2,4,-1
 110 566 l 2,5,6
 110 704 110 704 159.5 784.5 c 128,-1,7
 209 865 209 865 322.5 899.5 c 128,-1,8
 436 934 436 934 628 934 c 2,9,-1
 910 934 l 2,10,11
 989 934 989 934 1040.5 907.5 c 128,-1,12
 1092 881 1092 881 1117 826.5 c 128,-1,13
 1142 772 1142 772 1142 688 c 0,14,15
 1142 634 1142 634 1120.5 605 c 128,-1,16
 1099 576 1099 576 1058 576 c 0,17,18
 1018 576 1018 576 996 603.5 c 128,-1,19
 974 631 974 631 974 680 c 0,20,21
 974 730 974 730 958 748 c 128,-1,22
 942 766 942 766 896 766 c 2,23,-1
 628 766 l 2,24,25
 477 766 477 766 402 751.5 c 128,-1,26
 327 737 327 737 302.5 693 c 128,-1,27
 278 649 278 649 278 560 c 2,28,-1
 278 362 l 2,29,30
 278 274 278 274 302.5 229.5 c 128,-1,31
 327 185 327 185 402 170.5 c 128,-1,32
 477 156 477 156 628 156 c 2,33,-1
 896 156 l 2,34,35
 943 156 943 156 958.5 173 c 128,-1,36
 974 190 974 190 974 240 c 0,37,38
 974 287 974 287 995 316.5 c 128,-1,39
 1016 346 1016 346 1056 346 c 0,40,41
 1095 346 1095 346 1118.5 317.5 c 128,-1,42
 1142 289 1142 289 1142 232 c 0,43,44
 1142 149 1142 149 1117 94.5 c 128,-1,45
 1092 40 1092 40 1040.5 14 c 128,-1,46
 989 -12 989 -12 910 -12 c 2,47,-1
 628 -12 l 2,0,1
EndSplineSet
EndChar

StartChar: uni0442
Encoding: 1090 1090 505
Width: 1008
Flags: W
LayerCount: 2
Fore
SplineSet
504 -26 m 0,0,1
 412 -26 412 -26 412 64 c 2,2,-1
 412 766 l 1,3,-1
 124 766 l 2,4,5
 26 766 26 766 26 850 c 256,6,7
 26 934 26 934 124 934 c 2,8,-1
 886 934 l 2,9,10
 984 934 984 934 984 850 c 256,11,12
 984 766 984 766 886 766 c 2,13,-1
 600 766 l 1,14,-1
 600 64 l 2,15,16
 600 23 600 23 574 -1.5 c 128,-1,17
 548 -26 548 -26 504 -26 c 0,0,1
EndSplineSet
EndChar

StartChar: uni0443
Encoding: 1091 1091 506
Width: 1358
Flags: W
LayerCount: 2
Fore
SplineSet
360 -422 m 2,0,1
 281 -422 281 -422 229.5 -395.5 c 128,-1,2
 178 -369 178 -369 153 -314 c 128,-1,3
 128 -259 128 -259 128 -176 c 0,4,5
 128 -122 128 -122 149.5 -93 c 128,-1,6
 171 -64 171 -64 212 -64 c 0,7,8
 254 -64 254 -64 275 -89 c 128,-1,9
 296 -114 296 -114 296 -162 c 0,10,11
 296 -218 296 -218 311.5 -236 c 128,-1,12
 327 -254 327 -254 374 -254 c 2,13,-1
 992 -254 l 2,14,15
 1032 -254 1032 -254 1042 -243 c 128,-1,16
 1052 -232 1052 -232 1052 -186 c 2,17,-1
 1052 76 l 1,18,19
 927 -12 927 -12 702 -12 c 2,20,-1
 644 -12 l 2,21,22
 453 -12 453 -12 339.5 23 c 128,-1,23
 226 58 226 58 177 138.5 c 128,-1,24
 128 219 128 219 128 356 c 2,25,-1
 128 852 l 2,26,27
 128 948 128 948 212 948 c 256,28,29
 296 948 296 948 296 852 c 2,30,-1
 296 362 l 2,31,32
 296 274 296 274 320.5 229.5 c 128,-1,33
 345 185 345 185 419.5 170.5 c 128,-1,34
 494 156 494 156 644 156 c 2,35,-1
 702 156 l 2,36,37
 878 156 878 156 965 232.5 c 128,-1,38
 1052 309 1052 309 1052 464 c 2,39,-1
 1052 852 l 2,40,41
 1052 948 1052 948 1136 948 c 256,42,43
 1220 948 1220 948 1220 852 c 2,44,-1
 1220 -154 l 2,45,46
 1220 -300 1220 -300 1172 -361 c 128,-1,47
 1124 -422 1124 -422 1006 -422 c 2,48,-1
 360 -422 l 2,0,1
EndSplineSet
EndChar

StartChar: uni045E
Encoding: 1118 1118 507
Width: 1358
Flags: W
LayerCount: 2
Fore
SplineSet
556 982 m 2,0,1
 438 982 438 982 390 1042.5 c 128,-1,2
 342 1103 342 1103 342 1248 c 2,3,-1
 342 1334 l 1,4,-1
 510 1334 l 1,5,-1
 510 1216 l 2,6,7
 510 1171 510 1171 520 1160.5 c 128,-1,8
 530 1150 530 1150 572 1150 c 2,9,-1
 776 1150 l 2,10,11
 817 1150 817 1150 826.5 1160.5 c 128,-1,12
 836 1171 836 1171 836 1216 c 2,13,-1
 836 1334 l 1,14,-1
 1004 1334 l 1,15,-1
 1004 1248 l 2,16,17
 1004 1101 1004 1101 956.5 1041.5 c 128,-1,18
 909 982 909 982 790 982 c 2,19,-1
 556 982 l 2,0,1
360 -422 m 2,20,21
 281 -422 281 -422 229.5 -395.5 c 128,-1,22
 178 -369 178 -369 153 -314 c 128,-1,23
 128 -259 128 -259 128 -176 c 0,24,25
 128 -122 128 -122 149.5 -93 c 128,-1,26
 171 -64 171 -64 212 -64 c 0,27,28
 254 -64 254 -64 275 -89 c 128,-1,29
 296 -114 296 -114 296 -162 c 0,30,31
 296 -218 296 -218 311.5 -236 c 128,-1,32
 327 -254 327 -254 374 -254 c 2,33,-1
 992 -254 l 2,34,35
 1032 -254 1032 -254 1042 -243 c 128,-1,36
 1052 -232 1052 -232 1052 -186 c 2,37,-1
 1052 76 l 1,38,39
 927 -12 927 -12 702 -12 c 2,40,-1
 644 -12 l 2,41,42
 453 -12 453 -12 339.5 23 c 128,-1,43
 226 58 226 58 177 138.5 c 128,-1,44
 128 219 128 219 128 356 c 2,45,-1
 128 852 l 2,46,47
 128 948 128 948 212 948 c 256,48,49
 296 948 296 948 296 852 c 2,50,-1
 296 362 l 2,51,52
 296 274 296 274 320.5 229.5 c 128,-1,53
 345 185 345 185 419.5 170.5 c 128,-1,54
 494 156 494 156 644 156 c 2,55,-1
 702 156 l 2,56,57
 878 156 878 156 965 232.5 c 128,-1,58
 1052 309 1052 309 1052 464 c 2,59,-1
 1052 852 l 2,60,61
 1052 948 1052 948 1136 948 c 256,62,63
 1220 948 1220 948 1220 852 c 2,64,-1
 1220 -154 l 2,65,66
 1220 -300 1220 -300 1172 -361 c 128,-1,67
 1124 -422 1124 -422 1006 -422 c 2,68,-1
 360 -422 l 2,20,21
EndSplineSet
EndChar

StartChar: uni0444
Encoding: 1092 1092 508
Width: 1612
Flags: W
LayerCount: 2
Fore
SplineSet
806 -376 m 256,0,1
 722 -376 722 -376 722 -274 c 2,2,-1
 722 67 l 1,3,4
 674 27 674 27 612 7.5 c 128,-1,5
 550 -12 550 -12 476 -12 c 0,6,7
 106 -12 106 -12 106 396 c 2,8,-1
 106 526 l 2,9,10
 106 934 106 934 476 934 c 0,11,12
 550 934 550 934 612 914.5 c 128,-1,13
 674 895 674 895 722 855 c 1,14,-1
 722 1196 l 2,15,16
 722 1298 722 1298 806 1298 c 256,17,18
 890 1298 890 1298 890 1196 c 2,19,-1
 890 855 l 1,20,21
 938 895 938 895 1000.5 914.5 c 128,-1,22
 1063 934 1063 934 1136 934 c 0,23,24
 1506 934 1506 934 1506 526 c 2,25,-1
 1506 396 l 2,26,27
 1506 194 1506 194 1413.5 91 c 128,-1,28
 1321 -12 1321 -12 1136 -12 c 0,29,30
 1063 -12 1063 -12 1000.5 7.5 c 128,-1,31
 938 27 938 27 890 67 c 1,32,-1
 890 -274 l 2,33,34
 890 -376 890 -376 806 -376 c 256,0,1
478 156 m 0,35,36
 565 156 565 156 619 197 c 128,-1,37
 673 238 673 238 697.5 307.5 c 128,-1,38
 722 377 722 377 722 462 c 0,39,40
 722 552 722 552 697 620.5 c 128,-1,41
 672 689 672 689 617.5 727.5 c 128,-1,42
 563 766 563 766 476 766 c 0,43,44
 409 766 409 766 368.5 748.5 c 128,-1,45
 328 731 328 731 307.5 699 c 128,-1,46
 287 667 287 667 280.5 623 c 128,-1,47
 274 579 274 579 274 526 c 2,48,-1
 274 396 l 2,49,50
 274 264 274 264 319 210 c 128,-1,51
 364 156 364 156 478 156 c 0,35,36
1142 156 m 0,52,53
 1221 156 1221 156 1263.5 184.5 c 128,-1,54
 1306 213 1306 213 1322 266.5 c 128,-1,55
 1338 320 1338 320 1338 396 c 2,56,-1
 1338 526 l 2,57,58
 1338 658 1338 658 1293 712 c 128,-1,59
 1248 766 1248 766 1134 766 c 0,60,61
 1048 766 1048 766 994 725 c 128,-1,62
 940 684 940 684 915 615 c 128,-1,63
 890 546 890 546 890 462 c 0,64,65
 890 368 890 368 917.5 299.5 c 128,-1,66
 945 231 945 231 1001 193.5 c 128,-1,67
 1057 156 1057 156 1142 156 c 0,52,53
EndSplineSet
EndChar

StartChar: uni0445
Encoding: 1093 1093 509
Width: 1116
Flags: W
LayerCount: 2
Fore
SplineSet
166 -34 m 0,0,1
 127 -34 127 -34 100.5 -11.5 c 128,-1,2
 74 11 74 11 74 46 c 0,3,4
 74 64 74 64 81 79.5 c 128,-1,5
 88 95 88 95 101 108 c 2,6,-1
 435 460 l 1,7,-1
 101 814 l 2,8,9
 74 844 74 844 74 878 c 0,10,11
 74 913 74 913 99.5 934.5 c 128,-1,12
 125 956 125 956 164 956 c 0,13,14
 206 956 206 956 231 928 c 2,15,-1
 560 568 l 1,16,-1
 888 928 l 2,17,18
 915 956 915 956 954 956 c 0,19,20
 992 956 992 956 1017 934.5 c 128,-1,21
 1042 913 1042 913 1042 878 c 0,22,23
 1042 844 1042 844 1015 814 c 2,24,-1
 681 460 l 1,25,-1
 1014 108 l 2,26,27
 1027 95 1027 95 1034.5 79.5 c 128,-1,28
 1042 64 1042 64 1042 46 c 0,29,30
 1042 12 1042 12 1016 -11 c 128,-1,31
 990 -34 990 -34 952 -34 c 0,32,33
 912 -34 912 -34 887 -6 c 2,34,-1
 560 354 l 1,35,-1
 230 -6 l 2,36,37
 204 -34 204 -34 166 -34 c 0,0,1
EndSplineSet
EndChar

StartChar: uni0447
Encoding: 1095 1095 510
Width: 1258
Flags: W
LayerCount: 2
Fore
SplineSet
1038 -26 m 0,0,1
 952 -26 952 -26 952 70 c 2,2,-1
 952 312 l 1,3,4
 830 224 830 224 638 224 c 2,5,-1
 568 224 l 2,6,7
 393 224 393 224 287.5 260.5 c 128,-1,8
 182 297 182 297 135 379.5 c 128,-1,9
 88 462 88 462 88 598 c 2,10,-1
 88 852 l 2,11,12
 88 948 88 948 172 948 c 256,13,14
 256 948 256 948 256 852 c 2,15,-1
 256 604 l 2,16,17
 256 515 256 515 280 469.5 c 128,-1,18
 304 424 304 424 371 408 c 128,-1,19
 438 392 438 392 568 392 c 2,20,-1
 638 392 l 2,21,22
 796 392 796 392 874 470 c 128,-1,23
 952 548 952 548 952 706 c 2,24,-1
 952 852 l 2,25,26
 952 948 952 948 1036 948 c 256,27,28
 1120 948 1120 948 1120 852 c 2,29,-1
 1120 72 l 2,30,31
 1120 -26 1120 -26 1038 -26 c 0,0,1
EndSplineSet
EndChar

StartChar: uni0446
Encoding: 1094 1094 511
Width: 1212
Flags: W
LayerCount: 2
Fore
SplineSet
1068 -196 m 256,0,1
 984 -196 984 -196 984 -94 c 2,2,-1
 984 -12 l 1,3,-1
 140 -12 l 1,4,-1
 140 852 l 2,5,6
 140 948 140 948 224 948 c 256,7,8
 308 948 308 948 308 852 c 2,9,-1
 308 156 l 1,10,-1
 868 156 l 1,11,-1
 868 852 l 2,12,13
 868 948 868 948 952 948 c 256,14,15
 1036 948 1036 948 1036 850 c 2,16,-1
 1036 68 l 1,17,-1
 974 144 l 1,18,-1
 1020 144 l 2,19,20
 1152 141 1152 141 1152 0 c 2,21,-1
 1152 -94 l 2,22,23
 1152 -196 1152 -196 1068 -196 c 256,0,1
EndSplineSet
EndChar

StartChar: uni0448
Encoding: 1096 1096 512
Width: 1356
Flags: W
LayerCount: 2
Fore
SplineSet
140 -12 m 1,0,-1
 140 852 l 2,1,2
 140 948 140 948 224 948 c 256,3,4
 308 948 308 948 308 852 c 2,5,-1
 308 156 l 1,6,-1
 594 156 l 1,7,-1
 594 852 l 2,8,9
 594 948 594 948 678 948 c 256,10,11
 762 948 762 948 762 852 c 2,12,-1
 762 156 l 1,13,-1
 1048 156 l 1,14,-1
 1048 852 l 2,15,16
 1048 948 1048 948 1132 948 c 256,17,18
 1216 948 1216 948 1216 852 c 2,19,-1
 1216 -12 l 1,20,-1
 140 -12 l 1,0,-1
EndSplineSet
EndChar

StartChar: uni0449
Encoding: 1097 1097 513
Width: 1392
Flags: W
LayerCount: 2
Fore
SplineSet
1248 -196 m 256,0,1
 1164 -196 1164 -196 1164 -94 c 2,2,-1
 1164 -12 l 1,3,-1
 140 -12 l 1,4,-1
 140 852 l 2,5,6
 140 948 140 948 224 948 c 256,7,8
 308 948 308 948 308 852 c 2,9,-1
 308 156 l 1,10,-1
 588 156 l 1,11,-1
 588 852 l 2,12,13
 588 948 588 948 672 948 c 256,14,15
 756 948 756 948 756 852 c 2,16,-1
 756 156 l 1,17,-1
 1048 156 l 1,18,-1
 1048 852 l 2,19,20
 1048 948 1048 948 1132 948 c 256,21,22
 1216 948 1216 948 1216 850 c 2,23,-1
 1216 68 l 1,24,-1
 1152 144 l 1,25,-1
 1200 144 l 2,26,27
 1332 144 1332 144 1332 0 c 2,28,-1
 1332 -94 l 2,29,30
 1332 -196 1332 -196 1248 -196 c 256,0,1
EndSplineSet
EndChar

StartChar: uni045F
Encoding: 1119 1119 514
Width: 1292
Flags: W
LayerCount: 2
Fore
SplineSet
646 -196 m 256,0,1
 562 -196 562 -196 562 -94 c 2,2,-1
 562 -12 l 1,3,-1
 140 -12 l 1,4,-1
 140 852 l 2,5,6
 140 948 140 948 224 948 c 256,7,8
 308 948 308 948 308 852 c 2,9,-1
 308 156 l 1,10,-1
 984 156 l 1,11,-1
 984 852 l 2,12,13
 984 948 984 948 1068 948 c 256,14,15
 1152 948 1152 948 1152 852 c 2,16,-1
 1152 -12 l 1,17,-1
 730 -12 l 1,18,-1
 730 -94 l 2,19,20
 730 -196 730 -196 646 -196 c 256,0,1
EndSplineSet
EndChar

StartChar: uni044C
Encoding: 1100 1100 515
Width: 1154
Flags: W
LayerCount: 2
Fore
SplineSet
140 -12 m 1,0,-1
 140 850 l 2,1,2
 140 948 140 948 224 948 c 256,3,4
 308 948 308 948 308 850 c 2,5,-1
 308 560 l 1,6,-1
 738 560 l 2,7,8
 853 560 853 560 932.5 526.5 c 128,-1,9
 1012 493 1012 493 1054 429.5 c 128,-1,10
 1096 366 1096 366 1096 274 c 0,11,12
 1096 183 1096 183 1054.5 119.5 c 128,-1,13
 1013 56 1013 56 933 23 c 128,-1,14
 853 -10 853 -10 738 -12 c 2,15,-1
 140 -12 l 1,0,-1
308 156 m 1,16,-1
 720 156 l 2,17,18
 803 156 803 156 865.5 176.5 c 128,-1,19
 928 197 928 197 928 264 c 0,20,21
 928 319 928 319 904.5 346.5 c 128,-1,22
 881 374 881 374 835 383 c 128,-1,23
 789 392 789 392 720 392 c 2,24,-1
 308 392 l 1,25,-1
 308 156 l 1,16,-1
EndSplineSet
EndChar

StartChar: uni044A
Encoding: 1098 1098 516
Width: 1302
Flags: W
LayerCount: 2
Fore
SplineSet
310 -12 m 1,0,-1
 310 766 l 1,1,-1
 150 766 l 2,2,3
 46 766 46 766 46 854 c 0,4,5
 46 934 46 934 150 934 c 2,6,-1
 478 934 l 1,7,-1
 478 560 l 1,8,-1
 824 560 l 2,9,10
 933 560 933 560 1029 530.5 c 128,-1,11
 1125 501 1125 501 1184.5 438 c 128,-1,12
 1244 375 1244 375 1244 274 c 0,13,14
 1244 179 1244 179 1198.5 115.5 c 128,-1,15
 1153 52 1153 52 1062.5 20 c 128,-1,16
 972 -12 972 -12 838 -12 c 2,17,-1
 310 -12 l 1,0,-1
478 156 m 1,18,-1
 824 156 l 2,19,20
 885 156 885 156 943 165 c 128,-1,21
 1001 174 1001 174 1038.5 197.5 c 128,-1,22
 1076 221 1076 221 1076 266 c 0,23,24
 1076 352 1076 352 1011 372 c 128,-1,25
 946 392 946 392 824 392 c 2,26,-1
 478 392 l 1,27,-1
 478 156 l 1,18,-1
EndSplineSet
EndChar

StartChar: uni044B
Encoding: 1099 1099 517
Width: 1454
Flags: W
LayerCount: 2
Fore
SplineSet
140 -12 m 1,0,-1
 140 850 l 2,1,2
 140 948 140 948 224 948 c 256,3,4
 308 948 308 948 308 850 c 2,5,-1
 308 560 l 1,6,-1
 738 560 l 2,7,8
 853 560 853 560 932.5 526.5 c 128,-1,9
 1012 493 1012 493 1054 429.5 c 128,-1,10
 1096 366 1096 366 1096 274 c 0,11,12
 1096 183 1096 183 1054.5 119.5 c 128,-1,13
 1013 56 1013 56 933 23 c 128,-1,14
 853 -10 853 -10 738 -12 c 2,15,-1
 140 -12 l 1,0,-1
308 156 m 1,16,-1
 720 156 l 2,17,18
 801 156 801 156 864.5 176.5 c 128,-1,19
 928 197 928 197 928 264 c 0,20,21
 928 319 928 319 904.5 346.5 c 128,-1,22
 881 374 881 374 834.5 383 c 128,-1,23
 788 392 788 392 720 392 c 2,24,-1
 308 392 l 1,25,-1
 308 156 l 1,16,-1
1232 -56 m 0,26,27
 1150 -56 1150 -56 1150 40 c 2,28,-1
 1150 880 l 2,29,30
 1150 925 1150 925 1172.5 951.5 c 128,-1,31
 1195 978 1195 978 1234 978 c 256,32,33
 1273 978 1273 978 1295.5 951.5 c 128,-1,34
 1318 925 1318 925 1318 880 c 2,35,-1
 1318 40 l 2,36,37
 1318 -56 1318 -56 1232 -56 c 0,26,27
EndSplineSet
EndChar

StartChar: uni0459
Encoding: 1113 1113 518
Width: 1630
Flags: W
LayerCount: 2
Fore
SplineSet
154 -12 m 0,0,1
 50 -12 50 -12 50 72 c 256,2,3
 50 156 50 156 154 156 c 0,4,5
 202 156 202 156 217 171.5 c 128,-1,6
 232 187 232 187 232 236 c 2,7,-1
 232 662 l 2,8,9
 232 766 232 766 259 825 c 128,-1,10
 286 884 286 884 349.5 909 c 128,-1,11
 413 934 413 934 524 934 c 2,12,-1
 1004 934 l 1,13,-1
 1004 560 l 1,14,-1
 1206 560 l 2,15,16
 1320 560 1320 560 1401.5 529 c 128,-1,17
 1483 498 1483 498 1526.5 434.5 c 128,-1,18
 1570 371 1570 371 1570 274 c 0,19,20
 1570 179 1570 179 1524.5 115.5 c 128,-1,21
 1479 52 1479 52 1388.5 20 c 128,-1,22
 1298 -12 1298 -12 1164 -12 c 2,23,-1
 836 -12 l 1,24,-1
 836 766 l 1,25,-1
 538 766 l 2,26,27
 470 766 470 766 447 749.5 c 128,-1,28
 424 733 424 733 424 684 c 2,29,-1
 408 260 l 2,30,31
 408 162 408 162 383 102 c 128,-1,32
 358 42 358 42 302 15 c 128,-1,33
 246 -12 246 -12 154 -12 c 0,0,1
1004 156 m 1,34,-1
 1150 156 l 2,35,36
 1212 156 1212 156 1270.5 165 c 128,-1,37
 1329 174 1329 174 1366.5 197.5 c 128,-1,38
 1404 221 1404 221 1404 266 c 0,39,40
 1404 352 1404 352 1337 372 c 128,-1,41
 1270 392 1270 392 1150 392 c 2,42,-1
 1004 392 l 1,43,-1
 1004 156 l 1,34,-1
EndSplineSet
EndChar

StartChar: uni045A
Encoding: 1114 1114 519
Width: 1712
Flags: W
LayerCount: 2
Fore
SplineSet
222 -26 m 256,0,1
 138 -26 138 -26 138 70 c 2,2,-1
 138 850 l 2,3,4
 138 948 138 948 220 948 c 0,5,6
 306 948 306 948 306 850 c 2,7,-1
 306 560 l 1,8,-1
 896 560 l 1,9,-1
 896 850 l 2,10,11
 896 948 896 948 982 948 c 0,12,13
 1066 948 1066 948 1066 850 c 2,14,-1
 1066 560 l 1,15,-1
 1246 560 l 2,16,17
 1350 560 1350 560 1444.5 529 c 128,-1,18
 1539 498 1539 498 1598.5 432.5 c 128,-1,19
 1658 367 1658 367 1658 262 c 0,20,21
 1658 176 1658 176 1612.5 114.5 c 128,-1,22
 1567 53 1567 53 1476.5 20.5 c 128,-1,23
 1386 -12 1386 -12 1252 -12 c 2,24,-1
 896 -12 l 1,25,-1
 896 392 l 1,26,-1
 306 392 l 1,27,-1
 306 70 l 2,28,29
 306 -26 306 -26 222 -26 c 256,0,1
1064 156 m 1,30,-1
 1238 156 l 2,31,32
 1355 156 1355 156 1423.5 181 c 128,-1,33
 1492 206 1492 206 1492 278 c 0,34,35
 1492 329 1492 329 1458.5 353.5 c 128,-1,36
 1425 378 1425 378 1367.5 385 c 128,-1,37
 1310 392 1310 392 1238 392 c 2,38,-1
 1064 392 l 1,39,-1
 1064 156 l 1,30,-1
EndSplineSet
EndChar

StartChar: uni0455
Encoding: 1109 1109 520
Width: 1250
Flags: W
LayerCount: 2
Fore
SplineSet
340 -12 m 2,0,1
 261 -12 261 -12 209.5 14 c 128,-1,2
 158 40 158 40 133 94.5 c 128,-1,3
 108 149 108 149 108 232 c 0,4,5
 108 295 108 295 123 318.5 c 128,-1,6
 138 342 138 342 186 342 c 0,7,8
 230 342 230 342 253 322 c 128,-1,9
 276 302 276 302 276 248 c 0,10,11
 276 192 276 192 291.5 174 c 128,-1,12
 307 156 307 156 354 156 c 2,13,-1
 890 156 l 2,14,15
 976 156 976 156 976 264 c 0,16,17
 976 320 976 320 952 354 c 128,-1,18
 928 388 928 388 890 388 c 2,19,-1
 398 388 l 2,20,21
 259 388 259 388 183.5 461 c 128,-1,22
 108 534 108 534 108 670 c 0,23,24
 108 807 108 807 192.5 870.5 c 128,-1,25
 277 934 277 934 458 934 c 2,26,-1
 908 934 l 2,27,28
 987 934 987 934 1038.5 907.5 c 128,-1,29
 1090 881 1090 881 1115 826.5 c 128,-1,30
 1140 772 1140 772 1140 688 c 0,31,32
 1140 634 1140 634 1118.5 605 c 128,-1,33
 1097 576 1097 576 1056 576 c 0,34,35
 1016 576 1016 576 994 603.5 c 128,-1,36
 972 631 972 631 972 680 c 0,37,38
 972 730 972 730 956 748 c 128,-1,39
 940 766 940 766 894 766 c 2,40,-1
 362 766 l 2,41,42
 276 766 276 766 276 668 c 0,43,44
 276 616 276 616 299.5 586 c 128,-1,45
 323 556 323 556 362 556 c 2,46,-1
 856 556 l 2,47,48
 996 556 996 556 1070 480 c 128,-1,49
 1144 404 1144 404 1144 260 c 0,50,51
 1144 121 1144 121 1059.5 54.5 c 128,-1,52
 975 -12 975 -12 796 -12 c 2,53,-1
 340 -12 l 2,0,1
EndSplineSet
EndChar

StartChar: uni0454
Encoding: 1108 1108 521
Width: 1244
Flags: W
LayerCount: 2
Fore
SplineSet
628 -12 m 2,0,1
 436 -12 436 -12 322.5 22.5 c 128,-1,2
 209 57 209 57 159.5 137.5 c 128,-1,3
 110 218 110 218 110 356 c 2,4,-1
 110 566 l 2,5,6
 110 704 110 704 159.5 784.5 c 128,-1,7
 209 865 209 865 322.5 899.5 c 128,-1,8
 436 934 436 934 628 934 c 2,9,-1
 910 934 l 2,10,11
 989 934 989 934 1040.5 907.5 c 128,-1,12
 1092 881 1092 881 1117 826.5 c 128,-1,13
 1142 772 1142 772 1142 688 c 0,14,15
 1142 576 1142 576 1058 576 c 256,16,17
 974 576 974 576 974 680 c 0,18,19
 974 730 974 730 958 748 c 128,-1,20
 942 766 942 766 896 766 c 2,21,-1
 628 766 l 2,22,23
 477 766 477 766 402.5 752 c 128,-1,24
 328 738 328 738 303 695.5 c 128,-1,25
 278 653 278 653 278 568 c 2,26,-1
 278 560 l 1,27,-1
 694 560 l 2,28,29
 798 560 798 560 798 472 c 0,30,31
 798 392 798 392 694 392 c 2,32,-1
 278 392 l 1,33,-1
 278 356 l 2,34,35
 278 271 278 271 303 228 c 128,-1,36
 328 185 328 185 403 170.5 c 128,-1,37
 478 156 478 156 628 156 c 2,38,-1
 896 156 l 2,39,40
 943 156 943 156 958.5 173 c 128,-1,41
 974 190 974 190 974 240 c 256,42,43
 974 290 974 290 996 318 c 128,-1,44
 1018 346 1018 346 1058 346 c 0,45,46
 1099 346 1099 346 1120.5 317 c 128,-1,47
 1142 288 1142 288 1142 234 c 0,48,49
 1142 151 1142 151 1117 96 c 128,-1,50
 1092 41 1092 41 1040.5 14.5 c 128,-1,51
 989 -12 989 -12 910 -12 c 2,52,-1
 628 -12 l 2,0,1
EndSplineSet
EndChar

StartChar: uni0456
Encoding: 1110 1110 523
Width: 436
Flags: W
LayerCount: 2
Fore
SplineSet
216 -56 m 0,0,1
 134 -56 134 -56 134 40 c 2,2,-1
 134 880 l 2,3,4
 134 925 134 925 156.5 951.5 c 128,-1,5
 179 978 179 978 218 978 c 256,6,7
 257 978 257 978 279.5 951.5 c 128,-1,8
 302 925 302 925 302 880 c 2,9,-1
 302 40 l 2,10,11
 302 -56 302 -56 216 -56 c 0,0,1
218 1088 m 0,12,13
 166 1088 166 1088 125 1123 c 128,-1,14
 84 1158 84 1158 84 1202 c 0,15,16
 84 1247 84 1247 124 1281.5 c 128,-1,17
 164 1316 164 1316 216 1316 c 0,18,19
 269 1316 269 1316 310.5 1281 c 128,-1,20
 352 1246 352 1246 352 1202 c 0,21,22
 352 1151 352 1151 306 1119.5 c 128,-1,23
 260 1088 260 1088 218 1088 c 0,12,13
EndSplineSet
EndChar

StartChar: uni0457
Encoding: 1111 1111 524
Width: 436
Flags: W
LayerCount: 2
Fore
SplineSet
216 -56 m 0,0,1
 134 -56 134 -56 134 40 c 2,2,-1
 134 880 l 2,3,4
 134 925 134 925 156.5 951.5 c 128,-1,5
 179 978 179 978 218 978 c 256,6,7
 257 978 257 978 279.5 951.5 c 128,-1,8
 302 925 302 925 302 880 c 2,9,-1
 302 40 l 2,10,11
 302 -56 302 -56 216 -56 c 0,0,1
46 1076 m 0,12,13
 -6 1076 -6 1076 -46 1110.5 c 128,-1,14
 -86 1145 -86 1145 -86 1190 c 0,15,16
 -86 1234 -86 1234 -45 1269 c 128,-1,17
 -4 1304 -4 1304 48 1304 c 256,18,19
 100 1304 100 1304 141 1269 c 128,-1,20
 182 1234 182 1234 182 1190 c 256,21,22
 182 1146 182 1146 140.5 1111 c 128,-1,23
 99 1076 99 1076 46 1076 c 0,12,13
386 1076 m 0,24,25
 334 1076 334 1076 294 1110.5 c 128,-1,26
 254 1145 254 1145 254 1190 c 0,27,28
 254 1234 254 1234 295 1269 c 128,-1,29
 336 1304 336 1304 388 1304 c 256,30,31
 440 1304 440 1304 481 1269 c 128,-1,32
 522 1234 522 1234 522 1190 c 256,33,34
 522 1146 522 1146 480.5 1111 c 128,-1,35
 439 1076 439 1076 386 1076 c 0,24,25
EndSplineSet
EndChar

StartChar: uni0458
Encoding: 1112 1112 525
Width: 444
Flags: W
LayerCount: 2
Fore
SplineSet
-152 -362 m 0,0,1
 -256 -362 -256 -362 -256 -278 c 256,2,3
 -256 -194 -256 -194 -152 -194 c 0,4,5
 -30 -194 -30 -194 32.5 -179.5 c 128,-1,6
 95 -165 95 -165 116.5 -123.5 c 128,-1,7
 138 -82 138 -82 138 0 c 2,8,-1
 138 844 l 2,9,10
 138 948 138 948 222 948 c 256,11,12
 306 948 306 948 306 844 c 2,13,-1
 306 0 l 2,14,15
 306 -134 306 -134 261.5 -213.5 c 128,-1,16
 217 -293 217 -293 117 -327.5 c 128,-1,17
 17 -362 17 -362 -152 -362 c 0,0,1
222 1088 m 0,18,19
 170 1088 170 1088 129 1123 c 128,-1,20
 88 1158 88 1158 88 1202 c 0,21,22
 88 1247 88 1247 128 1281.5 c 128,-1,23
 168 1316 168 1316 220 1316 c 0,24,25
 273 1316 273 1316 314.5 1281 c 128,-1,26
 356 1246 356 1246 356 1202 c 0,27,28
 356 1151 356 1151 310 1119.5 c 128,-1,29
 264 1088 264 1088 222 1088 c 0,18,19
EndSplineSet
EndChar

StartChar: uni045B
Encoding: 1115 1115 526
Width: 1358
Flags: W
LayerCount: 2
Fore
SplineSet
222 -26 m 256,0,1
 138 -26 138 -26 138 70 c 2,2,-1
 138 999 l 1,3,4
 95 1003 95 1003 69.5 1026 c 128,-1,5
 44 1049 44 1049 44 1086 c 0,6,7
 44 1120 44 1120 68 1140 c 128,-1,8
 92 1160 92 1160 138 1167 c 1,9,-1
 138 1194 l 2,10,11
 138 1298 138 1298 218 1298 c 0,12,13
 306 1298 306 1298 306 1194 c 2,14,-1
 306 1168 l 1,15,-1
 738 1168 l 2,16,17
 794 1168 794 1168 828 1143.5 c 128,-1,18
 862 1119 862 1119 862 1078 c 0,19,20
 862 1042 862 1042 827.5 1020 c 128,-1,21
 793 998 793 998 738 998 c 2,22,-1
 306 998 l 1,23,-1
 306 845 l 1,24,25
 442 934 442 934 656 934 c 2,26,-1
 714 934 l 2,27,28
 906 934 906 934 1019 899 c 128,-1,29
 1132 864 1132 864 1181 783.5 c 128,-1,30
 1230 703 1230 703 1230 566 c 2,31,-1
 1230 70 l 2,32,33
 1230 -26 1230 -26 1146 -26 c 256,34,35
 1062 -26 1062 -26 1062 70 c 2,36,-1
 1062 560 l 2,37,38
 1062 649 1062 649 1037.5 693 c 128,-1,39
 1013 737 1013 737 938.5 751.5 c 128,-1,40
 864 766 864 766 714 766 c 2,41,-1
 656 766 l 2,42,43
 480 766 480 766 393 689.5 c 128,-1,44
 306 613 306 613 306 458 c 2,45,-1
 306 70 l 2,46,47
 306 -26 306 -26 222 -26 c 256,0,1
EndSplineSet
EndChar

StartChar: uni044E
Encoding: 1102 1102 527
Width: 1458
Flags: W
LayerCount: 2
Fore
SplineSet
222 -26 m 256,0,1
 138 -26 138 -26 138 64 c 2,2,-1
 138 856 l 2,3,4
 138 898 138 898 160.5 923 c 128,-1,5
 183 948 183 948 222 948 c 256,6,7
 261 948 261 948 283.5 923 c 128,-1,8
 306 898 306 898 306 856 c 2,9,-1
 306 560 l 1,10,-1
 374 560 l 1,11,-1
 374 570 l 2,12,13
 374 704 374 704 424.5 783.5 c 128,-1,14
 475 863 475 863 583.5 897.5 c 128,-1,15
 692 932 692 932 866 932 c 0,16,17
 1042 932 1042 932 1147.5 897 c 128,-1,18
 1253 862 1253 862 1299.5 781.5 c 128,-1,19
 1346 701 1346 701 1346 566 c 2,20,-1
 1346 356 l 2,21,22
 1346 220 1346 220 1299.5 139.5 c 128,-1,23
 1253 59 1253 59 1148.5 23.5 c 128,-1,24
 1044 -12 1044 -12 870 -12 c 0,25,26
 690 -12 690 -12 581 24.5 c 128,-1,27
 472 61 472 61 423 142 c 128,-1,28
 374 223 374 223 374 356 c 2,29,-1
 374 392 l 1,30,-1
 306 392 l 1,31,-1
 306 64 l 2,32,33
 306 -26 306 -26 222 -26 c 256,0,1
876 156 m 0,34,35
 1004 156 1004 156 1069 171.5 c 128,-1,36
 1134 187 1134 187 1156 231 c 128,-1,37
 1178 275 1178 275 1178 362 c 2,38,-1
 1178 560 l 2,39,40
 1178 647 1178 647 1156 691 c 128,-1,41
 1134 735 1134 735 1069 750.5 c 128,-1,42
 1004 766 1004 766 876 766 c 0,43,44
 740 766 740 766 670 750 c 128,-1,45
 600 734 600 734 575 689.5 c 128,-1,46
 550 645 550 645 550 560 c 2,47,-1
 550 362 l 2,48,49
 550 277 550 277 575 232.5 c 128,-1,50
 600 188 600 188 670 172 c 128,-1,51
 740 156 740 156 876 156 c 0,34,35
EndSplineSet
EndChar

StartChar: uni044F
Encoding: 1103 1103 528
Width: 1190
Flags: W
LayerCount: 2
Fore
SplineSet
144 -28 m 0,0,1
 40 -28 40 -28 40 56 c 256,2,3
 40 140 40 140 144 140 c 0,4,5
 180 140 180 140 210.5 173.5 c 128,-1,6
 241 207 241 207 254 246 c 0,7,8
 272 300 272 300 286 332 c 128,-1,9
 300 364 300 364 328 398 c 1,10,11
 240 426 240 426 199 486 c 128,-1,12
 158 546 158 546 158 648 c 0,13,14
 158 759 158 759 203.5 821 c 128,-1,15
 249 883 249 883 359.5 908.5 c 128,-1,16
 470 934 470 934 664 934 c 2,17,-1
 972 934 l 2,18,19
 1008 934 1008 934 1030 909.5 c 128,-1,20
 1052 885 1052 885 1052 844 c 2,21,-1
 1052 56 l 2,22,23
 1052 19 1052 19 1028.5 -3.5 c 128,-1,24
 1005 -26 1005 -26 966 -26 c 0,25,26
 931 -26 931 -26 907.5 -2.5 c 128,-1,27
 884 21 884 21 884 56 c 2,28,-1
 884 362 l 1,29,-1
 632 362 l 2,30,31
 559 362 559 362 520 352 c 128,-1,32
 481 342 481 342 460.5 312 c 128,-1,33
 440 282 440 282 422 221 c 0,34,35
 390 112 390 112 311.5 42 c 128,-1,36
 233 -28 233 -28 144 -28 c 0,0,1
598 530 m 2,37,-1
 884 530 l 1,38,-1
 884 766 l 1,39,-1
 598 766 l 2,40,41
 508 766 508 766 447.5 761.5 c 128,-1,42
 387 757 387 757 356.5 733.5 c 128,-1,43
 326 710 326 710 326 654 c 0,44,45
 326 592 326 592 357 566 c 128,-1,46
 388 540 388 540 448.5 535 c 128,-1,47
 509 530 509 530 598 530 c 2,37,-1
EndSplineSet
EndChar

StartChar: uni0452
Encoding: 1106 1106 529
Width: 1360
Flags: W
LayerCount: 2
Fore
SplineSet
984 -422 m 0,0,1
 927 -422 927 -422 896.5 -400.5 c 128,-1,2
 866 -379 866 -379 866 -338 c 0,3,4
 866 -254 866 -254 984 -254 c 0,5,6
 1016 -254 1016 -254 1033 -247 c 128,-1,7
 1050 -240 1050 -240 1056 -221 c 128,-1,8
 1062 -202 1062 -202 1062 -166 c 2,9,-1
 1062 556 l 2,10,11
 1062 645 1062 645 1036.5 690 c 128,-1,12
 1011 735 1011 735 936.5 750.5 c 128,-1,13
 862 766 862 766 714 766 c 2,14,-1
 656 766 l 2,15,16
 480 766 480 766 393 689.5 c 128,-1,17
 306 613 306 613 306 458 c 2,18,-1
 306 70 l 2,19,20
 306 -26 306 -26 222 -26 c 256,21,22
 138 -26 138 -26 138 70 c 2,23,-1
 138 999 l 1,24,25
 95 1003 95 1003 69.5 1026 c 128,-1,26
 44 1049 44 1049 44 1086 c 0,27,28
 44 1120 44 1120 68 1140 c 128,-1,29
 92 1160 92 1160 138 1167 c 1,30,-1
 138 1194 l 2,31,32
 138 1298 138 1298 218 1298 c 0,33,34
 306 1298 306 1298 306 1194 c 2,35,-1
 306 1168 l 1,36,-1
 738 1168 l 2,37,38
 794 1168 794 1168 828 1143.5 c 128,-1,39
 862 1119 862 1119 862 1078 c 0,40,41
 862 1042 862 1042 827.5 1020 c 128,-1,42
 793 998 793 998 738 998 c 2,43,-1
 306 998 l 1,44,-1
 306 845 l 1,45,46
 442 934 442 934 656 934 c 2,47,-1
 714 934 l 2,48,49
 906 934 906 934 1019 898.5 c 128,-1,50
 1132 863 1132 863 1181 781.5 c 128,-1,51
 1230 700 1230 700 1230 560 c 2,52,-1
 1230 -132 l 2,53,54
 1230 -288 1230 -288 1175.5 -355 c 128,-1,55
 1121 -422 1121 -422 984 -422 c 0,0,1
EndSplineSet
EndChar

StartChar: uni0463
Encoding: 1123 1123 530
Width: 1426
Flags: W
LayerCount: 2
Fore
SplineSet
852 -12 m 2,0,-1
 470 -12 l 2,1,2
 368 -12 368 -12 368 86 c 2,3,-1
 368 840 l 1,4,-1
 118 840 l 2,5,6
 73 840 73 840 46.5 862.5 c 128,-1,7
 20 885 20 885 20 924 c 256,8,9
 20 963 20 963 46.5 985.5 c 128,-1,10
 73 1008 73 1008 118 1008 c 2,11,-1
 368 1008 l 1,12,-1
 368 1202 l 2,13,14
 368 1298 368 1298 456 1298 c 0,15,16
 540 1298 540 1298 540 1202 c 2,17,-1
 540 1008 l 1,18,-1
 812 1008 l 2,19,20
 859 1008 859 1008 887.5 985 c 128,-1,21
 916 962 916 962 916 924 c 0,22,23
 916 885 916 885 887.5 862.5 c 128,-1,24
 859 840 859 840 812 840 c 2,25,-1
 540 840 l 1,26,-1
 540 640 l 1,27,-1
 926 640 l 2,28,29
 1047 640 1047 640 1147.5 602.5 c 128,-1,30
 1248 565 1248 565 1308 487.5 c 128,-1,31
 1368 410 1368 410 1368 290 c 0,32,33
 1368 130 1368 130 1243.5 59 c 128,-1,34
 1119 -12 1119 -12 852 -12 c 2,0,-1
540 156 m 1,35,-1
 852 156 l 2,36,37
 963 156 963 156 1041 165.5 c 128,-1,38
 1119 175 1119 175 1159.5 207 c 128,-1,39
 1200 239 1200 239 1200 308 c 0,40,41
 1200 372 1200 372 1167.5 407.5 c 128,-1,42
 1135 443 1135 443 1055 457.5 c 128,-1,43
 975 472 975 472 834 472 c 2,44,-1
 540 472 l 1,45,-1
 540 156 l 1,35,-1
EndSplineSet
EndChar

StartChar: uni0473
Encoding: 1139 1139 531
Width: 1254
Flags: W
LayerCount: 2
Fore
SplineSet
628 -12 m 256,0,1
 436 -12 436 -12 322.5 23 c 128,-1,2
 209 58 209 58 159.5 139 c 128,-1,3
 110 220 110 220 110 358 c 2,4,-1
 110 568 l 2,5,6
 110 705 110 705 159.5 785 c 128,-1,7
 209 865 209 865 322.5 899.5 c 128,-1,8
 436 934 436 934 628 934 c 256,9,10
 820 934 820 934 933 899.5 c 128,-1,11
 1046 865 1046 865 1095 785 c 128,-1,12
 1144 705 1144 705 1144 568 c 2,13,-1
 1144 358 l 2,14,15
 1144 220 1144 220 1095 139 c 128,-1,16
 1046 58 1046 58 933 23 c 128,-1,17
 820 -12 820 -12 628 -12 c 256,0,1
626 156 m 256,18,19
 777 156 777 156 851.5 170 c 128,-1,20
 926 184 926 184 951 226.5 c 128,-1,21
 976 269 976 269 976 354 c 2,22,-1
 976 361 l 1,23,24
 922 338 922 338 862 338 c 0,25,26
 828 338 828 338 767 347.5 c 128,-1,27
 706 357 706 357 611 378 c 0,28,29
 517 399 517 399 464.5 408.5 c 128,-1,30
 412 418 412 418 390 418 c 256,31,32
 368 418 368 418 340.5 406.5 c 128,-1,33
 313 395 313 395 278 370 c 1,34,-1
 278 356 l 2,35,36
 278 270 278 270 302.5 227 c 128,-1,37
 327 184 327 184 401 170 c 128,-1,38
 475 156 475 156 626 156 c 256,18,19
860 506 m 0,39,40
 881 506 881 506 910 518.5 c 128,-1,41
 939 531 939 531 976 556 c 1,42,-1
 976 566 l 2,43,44
 976 652 976 652 951.5 694.5 c 128,-1,45
 927 737 927 737 852 751.5 c 128,-1,46
 777 766 777 766 626 766 c 0,47,48
 476 766 476 766 401.5 752 c 128,-1,49
 327 738 327 738 302.5 695.5 c 128,-1,50
 278 653 278 653 278 568 c 2,51,-1
 278 564 l 1,52,53
 331 586 331 586 392 586 c 0,54,55
 425 586 425 586 484 576.5 c 128,-1,56
 543 567 543 567 639 546 c 0,57,58
 733 525 733 525 785.5 515.5 c 128,-1,59
 838 506 838 506 860 506 c 0,39,40
EndSplineSet
EndChar

